<?xml version="1.0" encoding="utf-8"?>
<!-- Generator: Adobe Illustrator 28.0.0, SVG Export Plug-In . SVG Version: 6.00 Build 0)  -->
<svg version="1.1" id="Layer_1" xmlns="http://www.w3.org/2000/svg" xmlns:xlink="http://www.w3.org/1999/xlink" x="0px" y="0px"
	 viewBox="0 0 187 40" style="enable-background:new 0 0 187 40;" xml:space="preserve">
<style type="text/css">
	.st0{fill-rule:evenodd;clip-rule:evenodd;fill:#FFFFFF;}
	.st1{opacity:0.75;fill-rule:evenodd;clip-rule:evenodd;fill:#FFFFFF;enable-background:new    ;}
</style>
<g transform="translate(0 .5)">
	<path class="st0" d="M7,37.8v-7.8l2.7-3l8.5,10.8h7.3L13.7,22.9l10.5-12h-7.4L7,22.3V0.6H0.6v37.2H7z M26.2,29.8
		c0,5.8,2.8,8.7,8.5,8.7c1.3,0,2.3-0.1,3-0.3v-5.7c-0.5,0.2-1.2,0.2-1.9,0.2c-2.3,0-3.2-1.1-3.2-3.7V0.6h-6.4V29.8z M39.5,31.5
		c0,4.5,2.1,6.8,6.2,6.8c1.5,0,2.6-0.2,3.2-0.4v-5.4c-0.3,0.1-0.6,0.1-1.1,0.1c-1.4,0-1.9-0.7-1.9-2.8V10.9h-6.4
		C39.5,10.9,39.5,31.5,39.5,31.5z M42.7,7.8c2.1,0,3.8-1.7,3.8-3.7c0,0,0,0,0,0c0-2.1-1.7-3.8-3.7-3.8c0,0,0,0,0,0
		c-2.1,0-3.8,1.7-3.8,3.8C38.9,6.1,40.6,7.8,42.7,7.8z M57.7,37.8h-6.3V0.6h6.3v21.7l9.9-11.4H75l-10.5,12l11.6,14.9h-7.3L60.4,27
		l-2.7,3C57.7,29.9,57.7,37.8,57.7,37.8z M74.8,24.5v-0.2c0-4.3,1.3-7.7,3.9-10.3c2.7-2.6,6-3.9,10.1-3.9c3.9,0,7.1,1.3,9.5,3.9
		c2.5,2.6,3.7,5.8,3.7,9.7c0,0.8-0.1,1.5-0.1,2.2H81.1c0.2,4.3,3.4,7,8.1,7c2.8,0,5.2-1,7.3-3.1l3.8,3.7c-3,3.2-6.8,4.8-11.3,4.8
		c-4.2,0-7.7-1.3-10.3-3.8C76.1,32.1,74.8,28.8,74.8,24.5z M81.3,21.5h14.3c0-1.6-0.7-3-2-4.1c-1.3-1.2-2.9-1.8-4.7-1.8
		c-2,0-3.7,0.6-5.2,1.7S81.5,19.8,81.3,21.5z M111.5,37.8V23.6c0-4.4,2.8-7.2,7.3-7.2c1,0,1.9,0.1,2.7,0.3v-6.2
		c-0.5-0.1-1.2-0.2-1.9-0.2c-3.8,0-6.7,1.7-8,4.5v-4h-6.3v26.9L111.5,37.8L111.5,37.8z"/>
	<path class="st1" d="M115,34.5c0,2.1,1.8,3.7,3.7,3.7c2,0,3.7-1.6,3.7-3.7c0-2-1.7-3.6-3.7-3.6C116.8,30.9,115,32.6,115,34.5z
		 M126.2,37.8V0.6h2.7v15.9c0.6-1.8,1.9-3.2,3.8-4.4c2-1.2,4.3-1.9,6.9-1.9c3.8,0,7,1.3,9.6,4.1s3.9,6.1,3.9,10.1s-1.3,7.4-3.9,10.1
		s-5.8,4.1-9.6,4.1c-2.6,0-4.9-0.6-6.9-1.8c-1.9-1.2-3.2-2.7-3.8-4.5v5.6C128.9,37.8,126.2,37.8,126.2,37.8z M139.5,36
		c3.1,0,5.7-1.1,7.7-3.3c2.1-2.2,3.1-5,3.1-8.3c0-3.3-1.1-6-3.1-8.3s-4.6-3.4-7.7-3.4c-3.1,0-5.8,1.1-7.8,3.3
		c-2.1,2.2-3.1,5-3.1,8.3s1.1,6.2,3.1,8.4S136.4,36,139.5,36z M169.4,10.2c2.6,0,4.9,0.6,6.8,1.9c2,1.2,3.3,2.7,3.8,4.4v-5.6h2.7
		v21.9c0,2.3,0.6,3.3,2.2,3.3c0.6,0,1.1-0.1,1.5-0.2v2.1c-0.5,0.3-1.3,0.4-2.2,0.4c-2.7,0-4.1-1.7-4.1-5.2v-0.9
		c-1.8,3.8-5.7,6.2-10.8,6.2c-3.8,0-7-1.3-9.7-4.1c-2.6-2.7-3.9-6.1-3.9-10.1s1.3-7.4,3.9-10.1C162.4,11.5,165.7,10.2,169.4,10.2z
		 M169.4,12.7c-3.1,0-5.7,1.1-7.8,3.4c-2.1,2.2-3.1,5-3.1,8.3c0,3.3,1,6.1,3.1,8.3c2.1,2.2,4.6,3.3,7.8,3.3s5.7-1.1,7.8-3.3
		s3.1-5,3.1-8.4s-1.1-6.1-3.1-8.3C175.1,13.8,172.6,12.7,169.4,12.7z"/>
</g>
</svg>
