<?xml version="1.0" encoding="utf-8"?>
<!-- Generator: Adobe Illustrator 28.0.0, SVG Export Plug-In . SVG Version: 6.00 Build 0)  -->
<svg version="1.1" id="Layer_1" xmlns="http://www.w3.org/2000/svg" xmlns:xlink="http://www.w3.org/1999/xlink" x="0px" y="0px"
	 viewBox="0 0 67 40" style="enable-background:new 0 0 67 40;" xml:space="preserve">
<style type="text/css">
	.st0{fill-rule:evenodd;clip-rule:evenodd;fill:#FFFFFF;}
</style>
<path class="st0" d="M57.1,20.2c0,0.3,0,0.7-0.1,0.9c-0.2,1.2-1.3,1.9-1.8,1.9c-0.8,0-1.4-0.7-1.4-1.8c0-1.3,0.7-2.7,1.9-2.7
	C56.8,18.6,57.1,19.4,57.1,20.2z M59.8,24L59.8,24l-0.1,0.1h0.1c0,0,0,0,0.1,0c0,0,0,0,0-0.1C59.9,24.1,59.9,24,59.8,24
	C59.9,24,59.8,24,59.8,24z M65.4,30.8c0.1,0.2,0.1,0.4,0,0.6c-0.1,0.1-0.1,0.2-0.2,0.2c-0.1,0.1-0.2,0.1-0.3,0.1
	c-0.2,0-0.4-0.1-0.6-0.3c-0.1-0.2-0.1-0.4,0-0.6c0.1-0.1,0.1-0.2,0.2-0.2c0.1-0.1,0.2-0.1,0.3-0.1c0.1,0,0.2,0,0.3,0.1
	C65.2,30.6,65.3,30.7,65.4,30.8z M64.9,31.1C65,31.1,65,31,65,31c0-0.1,0-0.1-0.1-0.1c0,0-0.1,0-0.1,0h-0.2v0.5h0.1v-0.2h0.1
	l0.1,0.2H65L64.9,31.1z M33.1,19.6c0-0.6-0.4-1-1.1-1c-0.8,0-1.3,0.5-1.5,1.4l2.6,0C33.1,20,33.1,19.6,33.1,19.6z M60.3,24.2
	c0,0.3-0.2,0.5-0.5,0.5c-0.3,0-0.5-0.2-0.5-0.5c0-0.3,0.2-0.5,0.5-0.5C60.1,23.7,60.3,23.9,60.3,24.2z M60,24.2
	c0.1,0,0.1-0.1,0.1-0.1c0-0.1,0-0.1-0.1-0.1c0,0-0.1,0-0.1,0h-0.2v0.5h0.1v-0.2h0.1l0.1,0.2h0.1C60.1,24.5,60,24.2,60,24.2z
	 M46.8,40c-5,0-9.7-1.8-13.4-5.2C29.7,38.2,24.9,40,20,40C9,40,0,31,0,20C0,9,8.9,0.1,19.9,0c5.3,0,10,2,13.5,5.2
	C37.1,1.8,41.9,0,46.8,0c11,0,20,8.9,20,20C66.8,31,57.9,40,46.8,40z M20.8,15.2h-3.8l-2.6,6l-0.2-6h-3.7l-1.8,9.6h2.1l1.4-7.4
	l0.4,7.4h2.1l3.2-7.4l-1.4,7.4h2.4L20.8,15.2L20.8,15.2z M27.5,19.1c0-1.5-1.1-2.3-3.1-2.3c-0.9,0-1.6,0.1-2.8,0.4L21.2,19l0.2-0.1
	l0.3-0.1c0.5-0.1,1.3-0.2,1.9-0.2c1.1,0,1.5,0.2,1.5,0.7c0,0.1,0,0.3-0.1,0.5c-0.4,0-0.7-0.1-1-0.1c-2.6,0-4.2,1.1-4.2,3
	c0,1.3,0.9,2.1,2.1,2.1c1.1,0,1.9-0.3,2.5-0.9l-0.1,0.8h2l0-0.2l0-0.3l0.1-0.4l0.1-0.5l0.5-2.8C27.4,19.8,27.5,19.5,27.5,19.1
	L27.5,19.1z M27.9,21.4c0,2.3,1.4,3.5,4,3.5c0.8,0,1.6-0.1,2.4-0.3l0.4-2c-0.8,0.3-1.6,0.5-2.5,0.5c-1.4,0-2.1-0.5-2.1-1.4
	c0-0.1,0-0.1,0-0.2h4.7c0.2-0.8,0.3-1.4,0.3-1.9c0-1.7-1.2-2.8-3.2-2.8C29.6,16.8,27.9,18.7,27.9,21.4z M41.6,16.9
	c-0.7-0.1-1.4-0.1-2.1-0.2c-2.7,0-3.6,1.2-3.6,2.6c0,1,0.6,1.7,1.8,2.2c1,0.4,1.1,0.5,1.1,0.9c0,0.5-0.4,0.7-1.4,0.7
	c-0.7,0-1.5-0.1-2.1-0.3L35,24.7l0.1,0l0.4,0.1c0.1,0,0.4,0,0.7,0.1c0.4,0,0.9,0.1,1.3,0.1c2.5,0,3.7-0.8,3.7-2.6
	c0-1.1-0.5-1.7-1.7-2.2c-1-0.4-1.1-0.5-1.1-0.9c0-0.4,0.4-0.6,1.2-0.6c0.5,0,1.1,0,1.7,0.1L41.6,16.9L41.6,16.9z M44.2,22.5
	c0-0.1,0-0.2,0-0.3l0.6-3.3H46l0.3-1.9h-1.2l0.3-1.8h-2.3l-1.1,6L42,21.8l-0.1,0.8c0,0.2-0.1,0.5-0.1,0.7c0,1.1,0.7,1.7,1.9,1.7
	c0.5,0,1-0.1,1.7-0.3l0.3-1.7C45.5,23,45.3,23,45,23C44.4,23,44.2,22.9,44.2,22.5z M51.1,19.2l0.3,0.1l0.8-2.2
	C52,17,52,17,51.9,16.9c-0.1,0-0.2,0-0.2,0c-0.1,0-0.2,0-0.3,0c-0.8,0-1.3,0.3-2.1,1.3l0.2-1.2h-2.1l-1.4,7.8h2.4
	c0.8-4.8,1.2-5.6,2.3-5.6C50.9,19.2,51,19.2,51.1,19.2z M59.6,21.2c0.1-0.5,0.1-0.5,0.1-1c0-2-1.3-3.5-3.8-3.5
	c-2.8,0-4.7,1.9-4.7,4.7c0,2,1.1,3.6,3.8,3.6C57.4,25,59.2,23.8,59.6,21.2z M60.5,24.2c0-0.3-0.3-0.6-0.6-0.6
	c-0.3,0-0.6,0.3-0.6,0.6c0,0.3,0.3,0.6,0.6,0.6C60.2,24.8,60.5,24.5,60.5,24.2z M22.3,22.5c0,0.5,0.3,0.8,0.8,0.8c1,0,1.6-0.8,1.7-2
	c-0.2,0-0.4,0-0.5,0C23,21.3,22.3,21.7,22.3,22.5z M64.8,30.9L64.8,30.9L64.7,31h0.1c0,0,0,0,0.1,0c0,0,0,0,0-0.1
	C64.9,30.9,64.9,30.9,64.8,30.9C64.9,30.9,64.8,30.9,64.8,30.9z"/>
</svg>
