<?xml version="1.0" encoding="utf-8"?>
<!-- Generator: Adobe Illustrator 28.0.0, SVG Export Plug-In . SVG Version: 6.00 Build 0)  -->
<svg version="1.1" id="Layer_1" xmlns="http://www.w3.org/2000/svg" xmlns:xlink="http://www.w3.org/1999/xlink" x="0px" y="0px"
	 viewBox="0 0 67 40" style="enable-background:new 0 0 67 40;" xml:space="preserve">
<style type="text/css">
	.st0{fill-rule:evenodd;clip-rule:evenodd;fill:#FFFFFF;}
</style>
<path class="st0" d="M65.1,30.5c-0.1-0.1-0.2-0.1-0.3-0.1c-0.1,0-0.2,0-0.3,0.1c-0.1,0.1-0.2,0.1-0.2,0.2c-0.2,0.3-0.1,0.7,0.3,0.9
	c0.1,0.1,0.2,0.1,0.3,0.1c0.4,0,0.6-0.3,0.6-0.7C65.4,30.9,65.3,30.6,65.1,30.5L65.1,30.5z M65,31.5l-0.1-0.1c0-0.1-0.1-0.1-0.1-0.2
	c0,0-0.1,0-0.1,0h-0.1v0.3h-0.1v-0.7h0.2c0.1,0,0.1,0,0.2,0c0,0,0.1,0,0.1,0.1c0,0,0,0.1,0,0.1c0,0,0,0.1-0.1,0.1
	c0,0-0.1,0.1-0.1,0.1c0,0,0,0,0.1,0c0,0,0.1,0.1,0.1,0.1l0.1,0.1L65,31.5C65,31.5,65,31.5,65,31.5z M64.9,31c0,0-0.1,0-0.1,0h-0.1
	v-0.2h0.1c0.1,0,0.1,0,0.1,0c0,0,0,0,0,0C64.9,30.9,64.9,30.9,64.9,31C64.9,31,64.9,31,64.9,31L64.9,31z M64.3,24
	c-0.1,0-0.2,0.1-0.2,0.2c0,0.1-0.1,0.2-0.1,0.3c0,0.1,0,0.2,0.1,0.3c0.1,0.2,0.3,0.3,0.5,0.3c0.1,0,0.2,0,0.3-0.1
	c0.3-0.1,0.3-0.5,0.2-0.7c0,0,0,0,0,0c0-0.1-0.1-0.2-0.2-0.2C64.6,23.9,64.4,23.9,64.3,24z M64.8,24.2c0,0,0,0.1,0,0.1
	c0,0.1,0,0.1-0.1,0.1c0,0-0.1,0.1-0.1,0.1c0,0,0,0,0.1,0c0,0,0.1,0.1,0.1,0.1l0.1,0.1h-0.1l-0.1-0.1c0-0.1-0.1-0.1-0.1-0.2
	c0,0-0.1,0-0.1,0h-0.1v0.3h-0.1v-0.7h0.2C64.6,24.1,64.6,24.1,64.8,24.2C64.7,24.2,64.7,24.2,64.8,24.2z M64.5,24.2c0,0,0.1,0,0.1,0
	c0,0,0,0,0,0c0,0,0,0,0,0.1c0,0,0,0.1,0,0.1c0,0-0.1,0-0.1,0h-0.1v-0.2L64.5,24.2C64.5,24.2,64.5,24.2,64.5,24.2z M49.7,21.4
	c0.4,0,0.4,0,0.5,0c0,0.4-0.2,2-1.5,2c-0.7,0-0.8-0.5-0.8-0.8C47.8,22.1,48.2,21.4,49.7,21.4z M15.2,21.4c0.4,0,0.4,0,0.5,0
	c0,0.4-0.2,2-1.5,2c-0.7,0-0.8-0.5-0.8-0.8C13.3,22.1,13.6,21.4,15.2,21.4z M33.4,5.2C29.7,1.8,24.9,0,20,0C8.9,0.1,0,9,0,20
	c0,11,9,20,20,20c5.2,0,9.9-2,13.4-5.2c3.7,3.3,8.5,5.2,13.4,5.2c11,0,20-9,20-20c0-11.1-9-20-20-20C41.9,0,37.1,1.8,33.4,5.2
	L33.4,5.2z M8.2,25.1l1.2-7.6l-2.7,7.6H5.2L5,17.4l-1.3,7.6H1.6L3.3,15h3.1l0.1,6.2L8.6,15H12l-1.7,10.1H8.2L8.2,25.1z M15.4,25.1
	l0.1-0.8c0,0-0.7,1-2.2,1c-0.8,0-2.1-0.4-2.1-2.3c0-2.4,1.9-3.2,3.8-3.2c0.3,0,0.9,0.1,0.9,0.1s0.1-0.1,0.1-0.5
	c0-0.6-0.6-0.7-1.4-0.7c-1.4,0-2.3,0.4-2.3,0.4l0.3-1.8c0,0,1.1-0.5,2.6-0.5c0.8,0,2.9,0.1,2.9,2.6l-0.8,5.9L15.4,25.1
	C15.4,25.1,15.4,25.1,15.4,25.1z M23.3,22.5c0,2.8-2.7,2.7-3.2,2.7c-1.8,0-2.3-0.2-2.4-0.3l0.3-1.9c0,0,0.9,0.3,1.9,0.3
	c0.6,0,1.3-0.1,1.3-0.7c0-1-2.7-0.8-2.7-3.2c0-2.1,1.6-2.8,3.2-2.8c1.2,0,2,0.2,2,0.2l-0.3,1.9c0,0-1.2-0.1-1.5-0.1
	c-0.8,0-1.2,0.2-1.2,0.7C20.8,20.4,23.3,19.8,23.3,22.5z M26.6,23.2c0.2,0,0.4-0.1,0.5-0.1L26.9,25c-0.2,0.1-0.8,0.3-1.6,0.3
	c-1,0-1.7-0.5-1.7-1.8c0-0.8,1.2-7.8,1.3-7.8H27l-0.2,1.2h1.1l-0.3,2h-1.1l-0.6,3.7C25.8,22.8,25.9,23.2,26.6,23.2z M31.3,16.6
	c2.3,0,3,1.7,3,3.1c0,0.6-0.3,1.9-0.3,1.9h-4.3c0,0-0.4,1.7,1.9,1.7c1.1,0,2.3-0.5,2.3-0.5l-0.4,2.1c0,0-0.7,0.4-2.2,0.4
	c-1.7,0-3.7-0.7-3.7-3.7C27.6,18.9,29.2,16.6,31.3,16.6L31.3,16.6z M36.5,25.1h-2.2l1.3-8.3h2l-0.2,1.2c0,0,0.7-1.3,1.7-1.3
	c0.3,0,0.4,0,0.4,0c-0.3,0.6-0.5,1.1-0.8,2.5C37.2,18.7,37.1,21.6,36.5,25.1L36.5,25.1z M44.8,25c0,0-1.1,0.3-1.9,0.3
	c-2.5,0-3.8-1.8-3.8-4.4c0-4,2.4-6.1,4.8-6.1c1.1,0,2.4,0.5,2.4,0.5L46,17.5c0,0-0.9-0.6-2-0.6c-1.4,0-2.7,1.4-2.7,3.9
	c0,1.2,0.6,2.4,2.1,2.4c0.7,0,1.8-0.5,1.8-0.5L44.8,25L44.8,25z M49.9,25.1l0.1-0.8c0,0-0.7,1-2.2,1c-0.8,0-2.1-0.4-2.1-2.3
	c0-2.4,1.9-3.2,3.8-3.2c0.3,0,0.9,0.1,0.9,0.1s0.1-0.1,0.1-0.5c0-0.6-0.6-0.7-1.4-0.7c-1.4,0-2.3,0.4-2.3,0.4l0.3-1.8
	c0,0,1.1-0.5,2.6-0.5c0.8,0,2.9,0.1,2.9,2.6l-0.8,5.9C51.8,25.1,49.9,25.1,49.9,25.1z M54.4,25.1h-2.2l1.3-8.3h2l-0.2,1.2
	c0,0,0.7-1.3,1.7-1.3c0.3,0,0.4,0,0.4,0c-0.3,0.6-0.5,1.1-0.8,2.5C55.1,18.7,55,21.6,54.4,25.1L54.4,25.1z M65.1,24.2
	c0.1,0.2,0.1,0.4,0,0.6c-0.1,0.2-0.3,0.3-0.6,0.3c-0.2,0-0.4-0.1-0.6-0.3c-0.1-0.2-0.1-0.4,0-0.6c0.1-0.2,0.3-0.3,0.6-0.3
	c0.1,0,0.2,0,0.3,0.1C64.9,24,65,24.1,65.1,24.2z M62,17.8l0.5-2.8l2.1,0L63,25.1h-2.1l0.1-0.8c0,0-0.7,0.9-2,0.9
	c-1.8,0-2.6-1.7-2.6-3.5c0-2.7,1.6-5.1,3.6-5.1C61.2,16.7,62,17.8,62,17.8z M32.3,20h-2.4c0-0.1,0.2-1.5,1.4-1.5
	C32.5,18.5,32.3,19.9,32.3,20L32.3,20z M60.3,18.8c0.8,0,1.2,0.5,1.2,1.8c0,1.1-0.6,2.6-1.7,2.6c-0.8,0-1.1-0.6-1.1-1.7
	C58.6,19.8,59.4,18.8,60.3,18.8z"/>
</svg>
