<?xml version="1.0" encoding="utf-8"?>
<!-- Generator: Adobe Illustrator 28.0.0, SVG Export Plug-In . SVG Version: 6.00 Build 0)  -->
<svg version="1.1" id="Layer_1" xmlns="http://www.w3.org/2000/svg" xmlns:xlink="http://www.w3.org/1999/xlink" x="0px" y="0px"
	 viewBox="0 0 190 33" style="enable-background:new 0 0 190 33;" xml:space="preserve">
<style type="text/css">
	.st0{fill-rule:evenodd;clip-rule:evenodd;fill:#FFFFFF;}
</style>
<path class="st0" d="M177.6,14.4c-1.1,0.8-2.6,1.1-4.8,1.1h-2.1l1.6-8.8h1.6c1.8,0,3.1,0.3,4,0.8c0.7,0.4,1.5,1.4,1.5,3.1
	C179.4,12.7,178.5,13.8,177.6,14.4z M50.8,25.4H34.3l1.1-5.8h10.3l1.2-6.5H36.6l1-5.7H54C54,7.5,50.8,25.4,50.8,25.4z M186.5,2.5
	c-2.5-1.7-6.1-2.5-10.9-2.5h-12.5l-4.7,25.4H142l1-5.8h9.9l1.2-6.4h-9.9l1.1-5.8h10.3l1.4-7.5h-20.8l-4.4,24.1h-7.6L128.6,0h-11
	l-4.4,24.1h-7.5L110.2,0H99.4l-4.7,25.4H78.1l1-5.8h10l1.2-6.4h-9.9l1-5.8h10.3L93.1,0H28.4l-3.6,20.1l-7.4-20H6.1L0,32.9h10.8
	l3.6-20.7l7.1,20.7h38.6l4.7-25.4h6l-4.7,25.4h101.4l3-16l4.7,16H186l-4.9-13.1l1.1-0.3c2.5-0.5,4.4-1.7,5.8-3.4c1.4-1.7,2-4,2-6.6
	C190,6.4,188.9,4.2,186.5,2.5L186.5,2.5z"/>
</svg>
