<?xml version="1.0" encoding="utf-8"?>
<!-- Generator: Adobe Illustrator 28.0.0, SVG Export Plug-In . SVG Version: 6.00 Build 0)  -->
<svg version="1.1" id="Layer_1" xmlns="http://www.w3.org/2000/svg" xmlns:xlink="http://www.w3.org/1999/xlink" x="0px" y="0px"
	 viewBox="0 0 190 33" style="enable-background:new 0 0 190 33;" xml:space="preserve">
<style type="text/css">
	.st0{fill-rule:evenodd;clip-rule:evenodd;fill:#FFFFFF;}
</style>
<path class="st0" d="M17.7,12.6c0.1,0.4,0.1,0.7,0.1,1.1v7.8c0,0.7-0.1,1.3-0.3,1.9c-0.2,0.5-0.4,1-0.8,1.4c-0.5,0.5-1,0.8-1.7,0.9
	c-0.4,0.1-0.9,0.2-1.3,0.2c-3.3,0-6.6,0-9.9,0c-1,0-1.9-0.4-2.7-1c-0.1-0.1-0.2-0.3-0.3-0.4c-0.3-0.4-0.5-0.9-0.6-1.4
	c-0.1-0.3-0.1-0.5-0.1-0.8c0-0.1,0-0.2-0.1-0.3v-8.8c0.1-0.1,0.1-0.2,0.1-0.3c0-0.3,0.1-0.7,0.2-1c0.1-0.5,0.3-0.9,0.6-1.3
	c0.1-0.1,0.2-0.3,0.3-0.4c0.6-0.5,1.3-0.8,2.1-0.9c0.2,0,0.3,0,0.5,0h10.2c0.5,0,1,0.1,1.5,0.2c0.9,0.3,1.6,0.9,2,1.8
	C17.6,11.6,17.7,12.1,17.7,12.6z M38.3,13.6c0,2.8,0,5.6,0,8.3c0,1.1-0.4,1.9-1.1,2.7c-0.3,0.3-0.6,0.6-1,0.8
	c-0.5,0.2-1,0.4-1.5,0.4c-0.3,0-0.6,0-0.9,0H29c-0.1,0-0.1,0-0.1,0.1c0,0.1,0,0.2,0,0.2v5.5c0,0.1,0,0.2,0,0.2c0,0.1,0,0.1-0.1,0.1
	h-3.9c-0.1,0-0.1,0-0.1-0.1V13.6c0-0.6,0.1-1.2,0.2-1.8c0.1-0.4,0.2-0.7,0.4-1c0.2-0.3,0.4-0.6,0.7-0.8c0.6-0.4,1.2-0.7,1.8-0.8
	c0.1,0,0.3,0,0.5,0h6.1c0.4,0,0.8,0.1,1.2,0.2c1.1,0.3,1.9,1,2.3,2c0.1,0.4,0.2,0.8,0.3,1.2C38.3,12.9,38.3,13.2,38.3,13.6
	L38.3,13.6z M34.2,14.5c0-0.2,0-0.3-0.1-0.5c-0.1-0.3-0.3-0.6-0.6-0.6c-0.1,0-0.2,0-0.3,0h-3.1c-0.2,0-0.3,0-0.4,0.1
	c-0.4,0.1-0.7,0.4-0.7,0.8c0,0.2-0.1,0.4-0.1,0.5c0,1.1,0,2.2,0,3.3c0,0.7,0,1.5,0,2.2c0,0.2,0,0.3,0.1,0.5c0.1,0.3,0.3,0.6,0.6,0.7
	c0.2,0.1,0.4,0.1,0.6,0.1h2.9c0.5,0,0.8-0.3,1-0.6c0.1-0.1,0.1-0.3,0.1-0.5v-3C34.2,16.5,34.2,15.5,34.2,14.5z M117.2,16.2
	c0-1,0-2.1,0-3.1c0-0.6,0.1-1.3,0.3-1.9c0.3-0.8,0.9-1.4,1.7-1.7c0.5-0.2,1-0.3,1.5-0.3c0.2,0,0.3,0,0.5,0h5.6c0.5,0,0.9,0,1.4,0.2
	c1.2,0.3,1.9,1.1,2.3,2.2c0.2,0.5,0.2,1,0.2,1.5v3.3c0,0,0,0.1,0,0.1c0,0,0,0.1-0.1,0.1c0,0-0.1,0-0.1,0.1c-1.7,0.7-3.3,1.3-5,2
	c-1.3,0.5-2.6,1-3.9,1.5c0,0-0.1,0-0.1,0.1c0,0-0.1,0-0.1,0.1c0,0.3,0,0.7,0.2,0.9c0.1,0.1,0.1,0.1,0.1,0.2c0.1,0.2,0.3,0.2,0.4,0.2
	h8.1c0.4,0,0.3,0,0.3,0.3v3.6c0,0.3,0,0.3-0.3,0.3h-8.7c-0.5,0-1.1,0-1.6-0.1c-0.7-0.2-1.4-0.6-1.9-1.1c-0.3-0.4-0.6-0.8-0.7-1.3
	c-0.1-0.3-0.1-0.5-0.1-0.8c-0.1-0.6,0-1.2-0.1-1.8C117.2,19.1,117.2,17.6,117.2,16.2L117.2,16.2z M121.3,15.8c0,0.1,0,0.1,0,0.2
	c0,0,0,0.1,0.1,0.1c0.1,0,0.2-0.1,0.3-0.1c1.4-0.5,2.7-1,4.1-1.5c0.2-0.1,0.4-0.2,0.6-0.2c0.1,0,0.1-0.1,0.1-0.2
	c0-0.3-0.1-0.4-0.4-0.6c-0.2-0.1-0.4-0.2-0.6-0.2c-0.9,0-1.9,0-2.8,0c-0.4,0-0.8,0.1-1.1,0.4c-0.2,0.2-0.3,0.4-0.3,0.6
	c0,0.2,0,0.5,0,0.7L121.3,15.8L121.3,15.8z M55,11.8c0.1,0.4,0.2,0.9,0.2,1.4c0,2.9,0,5.8,0,8.7c0,0.7-0.1,1.3-0.4,2
	c-0.3,0.7-0.8,1.3-1.5,1.6c-0.4,0.2-0.9,0.4-1.3,0.4c-0.3,0-0.6,0-0.9,0h-5.1c-0.6,0-1.3-0.1-1.9-0.3c-0.5-0.1-1-0.4-1.4-0.8
	c-0.4-0.4-0.7-0.9-0.9-1.5c-0.1-0.4-0.2-0.8-0.2-1.2c0-1.2,0-2.3,0-3.5c0-0.5,0.1-1.1,0.2-1.6c0.3-1,1-1.7,2-2.1
	c0.5-0.2,0.9-0.2,1.4-0.3c0.1,0,0.3,0,0.4,0h5c0.4,0,0.4,0.1,0.4-0.4c0-0.1,0-0.3,0-0.4c-0.1-0.2-0.2-0.4-0.4-0.5
	c-0.1-0.1-0.3-0.1-0.4-0.1c-0.1,0-0.2,0-0.3,0H42c-0.1,0-0.1,0-0.2,0c-0.1,0-0.1,0-0.1-0.2c0-0.1,0-0.1,0-0.2c0-1.2,0-2.4,0-3.6
	c0-0.4,0-0.3,0.3-0.3h9c0.5,0,1,0,1.5,0.2c0.6,0.1,1.1,0.4,1.5,0.7C54.5,10.5,54.9,11.1,55,11.8L55,11.8z M51.1,19.9
	c0-0.1,0-0.3,0-0.4c0-0.4-0.3-0.7-0.7-0.8c-0.1,0-0.3-0.1-0.4-0.1c-0.5,0-1.1,0-1.6,0h-1.6c-0.1,0-0.2,0-0.4,0
	c-0.5,0.1-0.6,0.2-0.6,0.7c0,0,0,0.1,0,0.1c0,0.5,0,1,0,1.4c0,0.2,0.1,0.3,0.2,0.4c0.2,0.2,0.5,0.4,0.9,0.4c0.4,0,0.8,0,1.3,0H50
	c0.2,0,0.4,0,0.6-0.1c0.2-0.1,0.4-0.3,0.4-0.5c0-0.1,0-0.2,0-0.3C51.1,20.4,51.1,20.1,51.1,19.9z M108,25.9h3.7c0.1,0,0.1,0,0.1-0.1
	c0-0.1,0-0.1,0-0.2V13.7c0-0.3,0-0.3,0.3-0.3h2.4c0.3,0,0.3,0,0.3-0.2V9.4c0,0,0-0.1,0-0.1c0-0.1,0-0.1-0.1-0.1h-2.6
	c-0.1,0-0.1,0-0.1-0.1c0-0.3,0-0.6,0-0.9c0-0.1,0-0.2,0.1-0.3c0.1-0.3,0.3-0.6,0.6-0.7c0.2-0.1,0.4-0.1,0.6-0.1h1.4
	c0.2,0,0.2,0,0.2-0.2V3.1c0-0.2,0-0.2-0.2-0.2c-0.8,0-1.6,0-2.4,0c-0.3,0-0.5,0-0.8,0.1c-0.9,0.1-1.7,0.5-2.4,1.1
	c-0.5,0.5-0.9,1.1-1.1,1.7c-0.1,0.4-0.1,0.8-0.1,1.2v18.6C107.7,25.9,107.7,25.9,108,25.9L108,25.9z M0.6,9.2
	C0.6,9.2,0.6,9.2,0.6,9.2C1.3,8.7,2,8.4,2.7,8.2c0.1,0,0.1-0.1,0.1-0.1C2.9,7.8,3,7.5,3.1,7.2C4,4.7,6.6,3,9.3,3.2
	c0.9,0.1,1.7,0.3,2.4,0.7c1.7,0.9,2.7,2.2,3.2,4c0.1,0.2,0.1,0.2,0.3,0.3c0.7,0.2,1.4,0.5,1.9,1c0,0,0.1,0.1,0.1,0
	c0-0.1,0-0.2,0-0.3c0-0.4,0-0.8-0.1-1.2c-0.3-3.5-2.8-6.4-6.2-7.3c-0.5-0.1-0.9-0.2-1.4-0.3c0,0-0.1,0-0.1-0.1H8c0,0,0,0,0,0.1
	c-0.3,0-0.5,0.1-0.8,0.1c-2,0.4-3.6,1.4-4.9,3C1.5,4.3,0.9,5.6,0.6,7.1c-0.1,0.5-0.1,1-0.1,1.6C0.5,8.8,0.5,9,0.6,9.2
	C0.5,9.2,0.5,9.3,0.6,9.2L0.6,9.2z M101.1,25.8c-0.3,0-0.6,0-0.9,0h-5.1c-0.7,0-1.3-0.1-1.9-0.3c-0.5-0.1-1-0.4-1.4-0.8
	c-0.4-0.4-0.7-1-0.9-1.6c-0.1-0.4-0.1-0.8-0.1-1.2c0-1.2,0-2.4,0-3.6c0-0.6,0.1-1.2,0.4-1.8c0.3-0.7,0.9-1.3,1.6-1.6
	c0.4-0.2,0.9-0.3,1.4-0.4c0.3,0,0.7,0,1,0h5c0.2,0,0.2,0,0.2-0.2c0-0.1,0-0.2,0-0.4c0-0.4-0.3-0.6-0.6-0.7c-0.2,0-0.4-0.1-0.5-0.1
	h-8.2c-0.1,0-0.1,0-0.1-0.1V9.4c0-0.3,0-0.3,0.3-0.3h9.1c0.5,0,1,0,1.5,0.2c0.5,0.1,1,0.4,1.5,0.7c0.5,0.5,0.9,1.1,1,1.8
	c0.1,0.5,0.2,0.9,0.2,1.4v8.6c0,0.7-0.1,1.5-0.5,2.1c-0.3,0.6-0.8,1.1-1.4,1.5C102,25.6,101.6,25.8,101.1,25.8L101.1,25.8z
	 M100.3,19.9c0-0.1,0-0.3,0-0.4c0-0.4-0.2-0.7-0.6-0.8c-0.1,0-0.3-0.1-0.4-0.1c-1.1,0-2.2,0-3.3,0c-0.2,0-0.3,0-0.4,0.1
	c-0.2,0-0.4,0.2-0.4,0.4c0,0.1-0.1,0.2-0.1,0.3c0,0.5,0,0.9,0,1.4c0,0.2,0.1,0.3,0.2,0.4c0.3,0.2,0.5,0.4,0.9,0.4c0.5,0,1.1,0,1.6,0
	h1.6c0.1,0,0.3,0,0.4-0.1c0.4-0.1,0.6-0.4,0.6-0.8C100.3,20.5,100.3,20.2,100.3,19.9z M162.4,24.2c-0.7,1.1-1.7,1.9-3.1,2.1
	c-0.3,0.1-0.7,0.1-1,0.1h-4.9c-0.8,0-1.4-0.1-2-0.3c-1.2-0.5-2.1-1.3-2.6-2.5c-0.2-0.4-0.3-0.8-0.4-1.4c0-0.4,0-0.7,0-1.1v-2
	c0-0.6,0.1-1.1,0.2-1.6c0.1-0.5,0.3-1,0.5-1.4c0.5-0.8,1.2-1.4,2.1-1.8c0.6-0.2,1.2-0.3,1.8-0.4c0.2,0,0.4,0,0.6,0h7.4
	c0-0.2,0-0.3,0-0.5c0-0.5-0.1-1-0.3-1.4c-0.2-0.5-0.4-0.8-0.8-1.1c-0.2-0.2-0.4-0.3-0.7-0.4c-0.4-0.1-0.8-0.1-1.1-0.1l-2.9,0l-5.8,0
	c-0.1,0-0.2,0-0.3,0c-0.4,0-0.6-0.3-0.7-0.7V9.1c0-0.3,0.1-0.7,0.7-0.7l0.2,0c2.7,0,5.5,0,8.2,0c0.8,0,1.5,0.1,2.1,0.2
	c0.6,0.1,1.2,0.4,1.7,0.8c0.5,0.5,0.9,1,1.1,1.6c0.3,0.6,0.5,1.3,0.6,1.9c0,0.3,0,0.6,0,0.9l0,2.5l0,4.9c0,0.5,0,1.1-0.1,1.7
	C162.9,23.3,162.7,23.8,162.4,24.2L162.4,24.2z M160.9,16.2c-2.5,0-5,0-7.5,0c-0.3,0-0.6,0-0.9,0.1c-0.9,0.2-1.4,0.7-1.7,1.5
	c-0.1,0.3-0.2,0.7-0.2,1.1c0,1,0,2,0,3c0,0.3,0.1,0.6,0.1,1c0,0.1,0.1,0.3,0.2,0.4c0.1,0.1,0.2,0.3,0.4,0.4c0.6,0.5,1.3,0.8,2,0.8
	h2.2c0.9,0,1.8,0,2.8,0c0.5,0,0.9-0.1,1.2-0.2c0.5-0.2,0.9-0.6,1.1-1.1c0.2-0.4,0.2-0.8,0.2-1.3L160.9,16.2L160.9,16.2z M139.4,26.4
	h5.9c0.4,0,0.6-0.3,0.6-0.7v-0.7c0-0.7-0.4-0.8-0.8-0.8h-5.6c-0.3,0-0.6,0-0.9-0.1c-0.2,0-0.5-0.1-0.7-0.1c-0.5-0.2-0.8-0.4-1.1-0.6
	c-0.3-0.3-0.5-0.7-0.6-1.1c-0.1-0.5-0.2-1-0.2-1.5l0-4.6l0-2.3c0-0.4,0-0.8,0-1.2c0-0.2,0.1-0.5,0.1-0.7c0.1-0.4,0.3-0.7,0.5-0.9
	c0.2-0.1,0.4-0.3,0.6-0.4c0.5-0.2,1-0.3,1.6-0.3l2,0l3.9,0c0.1,0,0.2,0,0.2,0l0.7-0.1V9.1l-0.1-0.6l-0.5-0.1c-0.1,0-0.2,0-0.3,0
	h-5.3c-0.5,0-1,0-1.5,0c-0.4,0-0.8,0.1-1.3,0.2c-0.8,0.2-1.4,0.7-2,1.4c-0.4,0.5-0.7,1.1-0.9,1.8c-0.1,0.4-0.1,0.7-0.1,1.1v8.5
	c0,0.5,0.1,1.1,0.2,1.7c0.3,1,0.9,1.9,1.7,2.4c0.5,0.3,0.9,0.6,1.4,0.6C138,26.4,138.6,26.4,139.4,26.4L139.4,26.4z M168.9,25.5
	V13.8c0-0.3,0-0.6,0-0.9c0.1-0.4,0.1-0.7,0.3-1c0.2-0.4,0.4-0.7,0.8-0.9c0.2-0.1,0.4-0.2,0.7-0.3c0.3-0.1,0.7-0.1,1.1-0.1l0.3,0
	l0.6,0c0.1,0,0.2,0,0.3,0l0.6-0.2V9.1l-0.1-0.6L173,8.4c-0.6-0.1-1.1,0-1.6,0c-0.5,0-0.9,0.1-1.3,0.2c-0.9,0.2-1.6,0.6-2.1,1.2
	c-0.5,0.5-0.8,1.1-1,1.9c-0.2,0.6-0.2,1.3-0.2,2v11.9l0.1,0.9h1.2c0.1,0,0.4,0,0.6-0.2C168.9,26,168.9,25.8,168.9,25.5L168.9,25.5z
	 M190,3.7v17.4c0,0.9-0.1,1.7-0.4,2.4c-0.5,1.3-1.4,2.2-2.7,2.6c-0.5,0.2-1,0.3-1.6,0.3c-0.4,0-0.8,0-1.2,0h-3.7
	c-0.6,0-1.2-0.1-1.7-0.2c-0.4-0.1-0.7-0.2-1-0.4c-1.2-0.6-2-1.6-2.3-2.9c-0.1-0.6-0.2-1.2-0.2-1.8v-7.5c0-0.7,0.1-1.5,0.3-2.1
	c0.2-0.7,0.6-1.4,1.1-1.9c0.5-0.6,1.2-0.9,2-1.2c0.6-0.2,1.2-0.2,2-0.2h7.3l0-4.7c0-0.5,0.3-0.7,0.8-0.7h0.7
	C189.7,2.9,190,3.2,190,3.7L190,3.7z M187.8,10.6h-6.5c-0.4,0-0.7,0-1.1,0c-0.3,0-0.6,0.1-0.9,0.1c-0.3,0.1-0.6,0.2-0.8,0.4
	c-0.2,0.2-0.4,0.4-0.5,0.6c-0.2,0.2-0.3,0.4-0.4,0.6c-0.1,0.4-0.2,0.7-0.2,1.1v8.1c0,0.2,0,0.3,0,0.4c0,0.3,0.1,0.6,0.2,0.9
	c0.2,0.5,0.4,0.8,0.8,1c0.2,0.1,0.3,0.2,0.5,0.2c0.6,0.2,1.1,0.3,1.7,0.3h3.4c0.4,0,0.9,0,1.2-0.1c0.7-0.1,1.3-0.4,1.8-0.8
	c0.1-0.1,0.2-0.2,0.3-0.3c0.2-0.2,0.4-0.5,0.4-0.9c0.1-0.4,0.2-0.8,0.2-1.2L187.8,10.6L187.8,10.6z M71.7,9.1h-3.4
	c-0.4,0-0.4,0-0.4,0.4v11.1c0,0.2-0.1,0.4-0.2,0.5c-0.3,0.3-0.6,0.6-1,0.6h-3c-0.5,0-0.9-0.3-1-0.8c-0.1-0.2-0.1-0.4-0.1-0.7V9.4
	c0-0.3,0-0.3-0.3-0.3h-3.5c-0.4,0-0.3,0-0.3,0.3v12c0,0.4,0,0.9,0.1,1.3c0.1,0.6,0.4,1.2,0.8,1.7c0.5,0.6,1.2,1.1,2,1.3
	c0.4,0.1,0.8,0.1,1.2,0.1h5.1c0.1,0,0.1,0,0.1,0.1c0,0.3,0,0.6,0,0.9c0,0.2-0.1,0.4-0.2,0.6c-0.2,0.2-0.5,0.4-0.8,0.4
	c-0.1,0-0.3,0-0.4,0h-7.7c-0.3,0-0.3,0-0.3,0.3v3.6c0,0,0,0.1,0,0.2c0,0.1,0,0.1,0.1,0.1H68c0.3,0,0.5,0,0.8-0.1
	c0.7-0.1,1.4-0.4,1.9-0.9c0.6-0.5,0.9-1.2,1.1-1.9C72,28.7,72,28,72,27.4c0-3,0-6,0-8.9v-9C72,9.1,72.1,9.1,71.7,9.1z M83.9,25.9
	c0.4,0,0.7,0,1.1-0.1c0.4-0.1,0.7-0.2,1-0.5c0.7-0.6,1.3-1.3,1.6-2.2c0.1-0.3,0.2-0.7,0.2-1c0-1,0-2.1,0-3.1c0-0.3,0-0.5-0.1-0.8
	c-0.2-0.9-0.7-1.7-1.5-2.2c-0.6-0.5-1.3-0.7-2.1-0.7h-3.5c-0.1,0-0.3,0-0.4,0c-0.2,0-0.3-0.1-0.5-0.1c-0.3-0.1-0.4-0.4-0.4-0.6
	c0-0.2,0-0.3,0-0.5c0-0.3,0.2-0.5,0.4-0.6c0.1,0,0.2-0.1,0.3-0.1c0.2,0,0.4-0.1,0.6,0h6.9c0.3,0,0.3,0,0.3-0.3V9.4
	c0-0.3,0-0.3-0.3-0.3h-8.1c-0.2,0-0.3,0-0.5,0c-0.5,0-1.1,0.1-1.6,0.3c-0.9,0.3-1.5,1-1.8,1.9c-0.2,0.5-0.2,0.9-0.2,1.4
	c0,1.1,0,2.2,0,3.3c0,0.6,0.2,1.2,0.6,1.8c0.2,0.3,0.4,0.5,0.7,0.7c0.7,0.7,1.7,1,2.7,1.1h0.3c1.1,0,2.2,0,3.2,0
	c0.3,0,0.5,0.1,0.6,0.3c0.3,0.4,0.2,0.8,0.1,1.2c0,0,0,0,0,0c-0.1,0.2-0.2,0.3-0.4,0.4c-0.2,0.1-0.4,0.1-0.7,0.1h-7
	c-0.3,0-0.3,0-0.3,0.3v3.7c0,0.3,0,0.3,0.3,0.3C78.3,25.9,81.1,25.9,83.9,25.9L83.9,25.9z"/>
</svg>
