<?xml version="1.0" encoding="utf-8"?>
<!-- Generator: Adobe Illustrator 28.0.0, SVG Export Plug-In . SVG Version: 6.00 Build 0)  -->
<svg version="1.1" id="Layer_1" xmlns="http://www.w3.org/2000/svg" xmlns:xlink="http://www.w3.org/1999/xlink" x="0px" y="0px"
	 viewBox="0 0 153 40" style="enable-background:new 0 0 153 40;" xml:space="preserve">
<style type="text/css">
	.st0{fill-rule:evenodd;clip-rule:evenodd;fill:#FFFFFF;}
</style>
<g id="Payments">
	<g id="xbon" transform="translate(-18.000000, 0.000000)">
		<g transform="translate(18.000000, 0.000000)">
			<path id="shape" class="st0" d="M61.2,0.2c-6.5,1.7-14.2,7-18.8,12.2C38,7.2,30.2,1.8,23.8,0.2V8c2.6,1,5.6,2.8,8.5,5.1
				c2,1.6,3.8,3.3,5.1,4.9c0.6,0.7,1,1.3,1.3,1.8c0.1,0.2,0.2,0.3,0.2,0.4c0-0.1,0-0.2,0-0.4c0-0.2,0-0.3,0-0.4
				c0,0.1-0.1,0.2-0.2,0.4c-0.3,0.5-0.7,1.1-1.3,1.8c-1.3,1.5-3.1,3.3-5.1,4.9c-2.9,2.3-5.9,4.1-8.5,5.1v7.8
				c6.5-1.7,14.2-7,18.8-12.2c4.5,5.2,12.3,10.5,18.8,12.2v-7.8c-2.6-1-5.6-2.8-8.5-5.1c-2-1.6-3.8-3.3-5.1-4.9
				c-0.6-0.7-1-1.3-1.3-1.8c-0.1-0.2-0.2-0.3-0.2-0.4c0,0.1,0,0.2,0,0.4c0,0.2,0,0.3,0,0.4c0-0.1,0.1-0.2,0.2-0.4
				c0.3-0.5,0.7-1.1,1.3-1.8c1.3-1.5,3.1-3.3,5.1-4.9c2.9-2.3,5.9-4.1,8.5-5.1V0.2z M68.8,0C78,1.8,85,9.9,85,19.6
				s-7,17.9-16.2,19.6v-7.7c5.1-1.6,8.8-6.3,8.8-11.9S73.8,9.3,68.8,7.7V0z M16.2,0C7,1.8,0,9.9,0,19.6s7,17.9,16.2,19.6v-7.7
				c-5.1-1.6-8.8-6.3-8.8-11.9s3.7-10.3,8.8-11.9V0z"/>
			<path id="BON" class="st0" d="M105.5,29h-5.7c-0.8,0-1.4-0.2-1.8-0.6s-0.5-1-0.5-1.8v-14c0-0.8,0.2-1.4,0.5-1.8s0.9-0.5,1.7-0.5
				h6c0.9,0,1.7,0.1,2.3,0.2s1.2,0.3,1.8,0.6c0.4,0.3,0.8,0.6,1.2,1s0.6,0.8,0.8,1.3s0.3,1,0.3,1.5c0,1.9-0.9,3.2-2.8,4.1
				c2.4,0.8,3.7,2.3,3.7,4.5c0,1-0.3,2-0.8,2.8s-1.3,1.4-2.2,1.8c-0.6,0.2-1.2,0.4-2,0.5C107.3,29,106.4,29,105.5,29L105.5,29z
				 M105.2,20.7h-3.9v5.4h4c2.5,0,3.8-0.9,3.8-2.8c0-0.9-0.3-1.6-1-2S106.5,20.7,105.2,20.7L105.2,20.7z M101.3,13.2V18h3.5
				c0.9,0,1.7-0.1,2.2-0.3s0.9-0.5,1.2-1c0.2-0.4,0.3-0.8,0.3-1.2c0-0.9-0.3-1.6-1-1.9s-1.7-0.5-3.1-0.5H101.3z M124.4,10.1
				c1.9,0,3.6,0.4,5,1.2c1.4,0.8,2.4,1.9,3.1,3.3s1.1,3.1,1.1,5.1c0,1.4-0.2,2.7-0.6,3.9s-1,2.2-1.8,3.1s-1.7,1.5-2.9,2
				c-1.1,0.5-2.4,0.7-3.9,0.7c-1.5,0-2.8-0.2-3.9-0.7s-2.1-1.1-2.9-2s-1.4-1.9-1.7-3.1c-0.4-1.2-0.6-2.5-0.6-3.9
				c0-1.4,0.2-2.7,0.6-3.9s1-2.2,1.8-3s1.7-1.5,2.8-1.9S123,10.1,124.4,10.1L124.4,10.1z M129.8,19.6c0-1.4-0.2-2.5-0.7-3.5
				s-1.1-1.8-1.9-2.3c-0.8-0.5-1.8-0.8-2.8-0.8c-0.8,0-1.4,0.1-2.1,0.4s-1.2,0.7-1.7,1.2s-0.8,1.2-1.1,2.1s-0.4,1.8-0.4,2.8
				c0,1.1,0.1,2,0.4,2.9s0.6,1.6,1.1,2.1s1,1,1.7,1.3s1.3,0.4,2.1,0.4c1,0,1.9-0.2,2.7-0.7s1.5-1.2,1.9-2.2S129.8,21.1,129.8,19.6
				L129.8,19.6z M141.7,12.3l7.2,11V12.2c0-0.7,0.2-1.3,0.5-1.6s0.7-0.5,1.3-0.5c0.5,0,1,0.2,1.3,0.5s0.5,0.9,0.5,1.6v14.6
				c0,1.6-0.7,2.5-2,2.5c-0.3,0-0.6,0-0.9-0.1s-0.5-0.3-0.8-0.5s-0.5-0.5-0.7-0.7s-0.4-0.6-0.6-0.9l-7.1-10.8v10.9
				c0,0.7-0.2,1.2-0.5,1.6s-0.8,0.5-1.3,0.5c-0.5,0-1-0.2-1.3-0.6s-0.5-0.9-0.5-1.6V12.8c0-0.6,0.1-1.1,0.2-1.4
				c0.2-0.4,0.4-0.7,0.8-0.9s0.8-0.4,1.2-0.4c0.3,0,0.6,0.1,0.9,0.2s0.5,0.3,0.6,0.4s0.4,0.4,0.6,0.7S141.5,12,141.7,12.3
				L141.7,12.3z"/>
		</g>
	</g>
</g>
</svg>
