<?xml version="1.0" encoding="utf-8"?>
<!-- Generator: Adobe Illustrator 23.1.0, SVG Export Plug-In . SVG Version: 6.00 Build 0)  -->
<svg version="1.1" id="Capa_1" xmlns="http://www.w3.org/2000/svg" xmlns:xlink="http://www.w3.org/1999/xlink" x="0px" y="0px"
	 viewBox="0 0 100 100" style="enable-background:new 0 0 100 100;" xml:space="preserve">
<style type="text/css">
	.st0{display:none;}
	.st1{display:inline;fill-rule:evenodd;clip-rule:evenodd;fill:url(#SVGID_1_);}
	.st2{display:inline;}
	.st3{fill:#FFFFFF;}
	.st4{display:inline;fill-rule:evenodd;clip-rule:evenodd;fill:url(#SVGID_2_);}
	.st5{display:inline;fill-rule:evenodd;clip-rule:evenodd;fill:url(#SVGID_3_);}
	.st6{display:inline;fill-rule:evenodd;clip-rule:evenodd;fill:url(#SVGID_4_);}
	.st7{fill-rule:evenodd;clip-rule:evenodd;fill:url(#SVGID_5_);}
	.st8{fill-rule:evenodd;clip-rule:evenodd;fill:url(#SVGID_6_);}
	.st9{display:inline;fill-rule:evenodd;clip-rule:evenodd;fill:url(#SVGID_7_);}
	.st10{fill-rule:evenodd;clip-rule:evenodd;fill:#FFFFFF;}
</style>
<g class="st0">
	
		<linearGradient id="SVGID_1_" gradientUnits="userSpaceOnUse" x1="3.95" y1="53.5006" x2="94.41" y2="53.5006" gradientTransform="matrix(1 0 0 -1 0 101.2756)">
		<stop  offset="0" style="stop-color:#B47A1A"/>
		<stop  offset="5.280000e-02" style="stop-color:#B9811E"/>
		<stop  offset="0.1288" style="stop-color:#C69429"/>
		<stop  offset="0.2187" style="stop-color:#DCB33C"/>
		<stop  offset="0.3185" style="stop-color:#FADE56"/>
		<stop  offset="0.3333" style="stop-color:#FFE55A"/>
		<stop  offset="0.5161" style="stop-color:#FFEC88"/>
		<stop  offset="0.6613" style="stop-color:#FFE55A"/>
		<stop  offset="1" style="stop-color:#B47A1A"/>
	</linearGradient>
	<path class="st1" d="M94.4,47.8C94.4,72.7,74.1,93,49.2,93C24.2,93,4,72.7,4,47.8c0-25,20.2-45.3,45.2-45.3
		C74.1,2.5,94.4,22.8,94.4,47.8z"/>
	<g class="st2">
		<g>
			<g>
				<g>
					<path class="st3" d="M39.6,59.9L21.4,78.1c1.1,0.6,2.4,0.9,3.8,0.9h24.6L39.6,59.9z"/>
				</g>
				<g>
					<polygon class="st3" points="16.4,43.6 16.4,66.5 31.3,51.6 					"/>
				</g>
				<g>
					<path class="st3" d="M70.7,15.9H25.2c-4.9,0-8.8,3.9-8.8,8.8v10.1l3.5,0.5l2.6-2.6c0.9-0.9,2.4-0.9,3.3,0
						c0.9,0.9,0.9,2.4,0,3.3l0,0l18.6,2.5l6.9-6.9c1.3-1.3,2.8-2.5,4.4-3.5s3.3-1.7,5-2.3c1.5-0.5,2.9-0.1,3.8,0.8
						c0.9,0.9,1.3,2.3,0.8,3.8l0,0c-0.5,1.7-1.3,3.4-2.3,5c-1,1.6-2.1,3.1-3.5,4.4l-6.9,6.9l2.5,18.6l0-0.1c0.9-0.9,2.4-0.9,3.3,0
						s0.9,2.4,0,3.3l-2.6,2.6l1,7.7h13.7c4.9,0,8.8-3.9,8.8-8.8V24.7C79.4,19.8,75.5,15.9,70.7,15.9z"/>
				</g>
			</g>
		</g>
	</g>
</g>
<g class="st0">
	
		<linearGradient id="SVGID_2_" gradientUnits="userSpaceOnUse" x1="3.95" y1="54.1206" x2="94.41" y2="54.1206" gradientTransform="matrix(1 0 0 -1 0 101.2756)">
		<stop  offset="0" style="stop-color:#B47A1A"/>
		<stop  offset="5.280000e-02" style="stop-color:#B9811E"/>
		<stop  offset="0.1288" style="stop-color:#C69429"/>
		<stop  offset="0.2187" style="stop-color:#DCB33C"/>
		<stop  offset="0.3185" style="stop-color:#FADE56"/>
		<stop  offset="0.3333" style="stop-color:#FFE55A"/>
		<stop  offset="0.5161" style="stop-color:#FFEC88"/>
		<stop  offset="0.6613" style="stop-color:#FFE55A"/>
		<stop  offset="1" style="stop-color:#B47A1A"/>
	</linearGradient>
	<path class="st4" d="M94.4,47.2c0,24.9-20.3,45.2-45.2,45.2C24.2,92.4,4,72.1,4,47.2c0-25,20.2-45.3,45.2-45.3
		C74.1,1.9,94.4,22.2,94.4,47.2z"/>
	<g class="st2">
		<path class="st3" d="M77.4,42.8L64.7,30.7c0,0,0,0,0-0.1v-11c0-0.9-0.8-1.7-1.7-1.7c-0.9,0-1.7,0.8-1.7,1.7v7.8L49.2,15.8
			c-0.7-0.7-1.8-0.7-2.5,0l-28.2,27c-0.7,0.7-0.8,1.8,0,2.6c0.7,0.7,1.8,0.8,2.6,0l26.9-25.8l26.9,25.8c0.3,0.3,0.8,0.5,1.3,0.5
			c0.5,0,0.9-0.2,1.3-0.6C78.1,44.6,78.1,43.5,77.4,42.8z"/>
		<g>
			<path class="st3" d="M66.8,69.7H29.1c-1,0-1.8-0.8-1.8-1.8V45.5c0-1,0.8-1.8,1.8-1.8s1.8,0.8,1.8,1.8v20.6h34V45.5
				c0-1,0.8-1.8,1.8-1.8c1,0,1.8,0.8,1.8,1.8v22.5C68.6,68.9,67.8,69.7,66.8,69.7z"/>
		</g>
		<path class="st3" d="M57,41.2c-2-2.3-5.8-2.3-8.5,0.6c-2.7-2.9-6.5-2.8-8.5-0.6c-4,4.4,0.2,10.1,4.1,12.8c1.3,0.9,2.9,1.5,4.4,2
			c1.5-0.4,3.1-1.1,4.4-2C56.9,51.3,61,45.6,57,41.2z"/>
	</g>
</g>
<g class="st0">
	
		<linearGradient id="SVGID_3_" gradientUnits="userSpaceOnUse" x1="3.95" y1="53.1106" x2="94.41" y2="53.1106" gradientTransform="matrix(1 0 0 -1 0 101.2756)">
		<stop  offset="0" style="stop-color:#B47A1A"/>
		<stop  offset="5.280000e-02" style="stop-color:#B9811E"/>
		<stop  offset="0.1288" style="stop-color:#C69429"/>
		<stop  offset="0.2187" style="stop-color:#DCB33C"/>
		<stop  offset="0.3185" style="stop-color:#FADE56"/>
		<stop  offset="0.3333" style="stop-color:#FFE55A"/>
		<stop  offset="0.5161" style="stop-color:#FFEC88"/>
		<stop  offset="0.6613" style="stop-color:#FFE55A"/>
		<stop  offset="1" style="stop-color:#B47A1A"/>
	</linearGradient>
	<path class="st5" d="M94.4,48.2c0,24.9-20.3,45.2-45.2,45.2C24.2,93.4,4,73.1,4,48.2c0-25,20.2-45.3,45.2-45.3
		C74.1,2.9,94.4,23.2,94.4,48.2z"/>
	<g class="st2">
		<path class="st3" d="M68.8,47.2H52.9v26.7h15.9c1.2,0,2.1-0.9,2.1-2.1V49.3C70.9,48.1,69.9,47.2,68.8,47.2z"/>
		<path class="st3" d="M27.1,49.3v22.5c0,1.2,0.9,2.1,2.1,2.1H45V47.2H29.2C28,47.2,27.1,48.1,27.1,49.3z"/>
		<path class="st3" d="M24.2,36v6.6c0,1.2,0.9,2.1,2.1,2.1H45l0-10.8H26.3C25.1,33.9,24.2,34.8,24.2,36z"/>
		<path class="st3" d="M71.6,33.9H52.9l0,10.8h18.7c1.2,0,2.1-0.9,2.1-2.1V36C73.7,34.8,72.8,33.9,71.6,33.9z"/>
		<path class="st3" d="M63,31.8c1.2,0,1.7-0.2,2-0.4c1.9-1.1,3.1-3.4,3.1-6.4c0-2.2-0.7-4.4-1.9-6c-1.5-2-3.7-3.1-6.2-3.1
			c-0.2,0-0.4,0-0.6,0c-6.6,0.5-9.3,6.7-10.4,10.8c-1-4-3.7-10.3-10.4-10.8c-0.2,0-0.4,0-0.6,0c-2.5,0-4.7,1.1-6.2,3.1
			c-1.2,1.6-1.9,3.8-1.9,6c0,3,1.2,5.3,3.1,6.4c0.2,0.1,0.6,0.4,1.8,0.4C39.6,31.8,61.7,31.8,63,31.8 M59.5,19.7c0.1,0,0.3,0,0.4,0
			c1.3,0,2.4,0.5,3.2,1.6c0.7,1,1.2,2.4,1.2,3.8c0,1.2-0.4,3.3-1.9,3.3h-9.9C53.1,25.4,54.9,20,59.5,19.7z M34.7,21.3
			c0.8-1,1.9-1.6,3.2-1.6c0.1,0,0.3,0,0.4,0c4.6,0.3,6.4,5.6,7.1,8.7h-9.9c-1.5,0-1.9-2.2-1.9-3.3C33.6,23.7,34,22.3,34.7,21.3z"/>
	</g>
</g>
<g class="st0">
	
		<linearGradient id="SVGID_4_" gradientUnits="userSpaceOnUse" x1="3.95" y1="53.1106" x2="94.41" y2="53.1106" gradientTransform="matrix(1 0 0 -1 0 101.2756)">
		<stop  offset="0" style="stop-color:#B47A1A"/>
		<stop  offset="5.280000e-02" style="stop-color:#B9811E"/>
		<stop  offset="0.1288" style="stop-color:#C69429"/>
		<stop  offset="0.2187" style="stop-color:#DCB33C"/>
		<stop  offset="0.3185" style="stop-color:#FADE56"/>
		<stop  offset="0.3333" style="stop-color:#FFE55A"/>
		<stop  offset="0.5161" style="stop-color:#FFEC88"/>
		<stop  offset="0.6613" style="stop-color:#FFE55A"/>
		<stop  offset="1" style="stop-color:#B47A1A"/>
	</linearGradient>
	<path class="st6" d="M94.4,48.2c0,24.9-20.3,45.2-45.2,45.2C24.2,93.4,4,73.1,4,48.2c0-25,20.2-45.3,45.2-45.3
		C74.1,2.9,94.4,23.2,94.4,48.2z"/>
	<g class="st2">
		<path class="st3" d="M42.5,50.2h4.8c-0.3-1.5-1.2-4.1-3.5-4.2c-0.1,0-0.1,0-0.2,0c-0.7,0-1.2,0.3-1.5,0.8
			c-0.4,0.5-0.6,1.2-0.6,1.8C41.5,49.1,41.7,50.2,42.5,50.2z"/>
		<path class="st3" d="M56.4,48.6c0-0.7-0.2-1.3-0.6-1.8C55.5,46.2,55,46,54.3,46c-0.1,0-0.1,0-0.2,0c-2.2,0.2-3.1,2.7-3.5,4.2h4.8
			C56.2,50.2,56.4,49.1,56.4,48.6z"/>
		<path class="st3" d="M65.3,31.4L51.5,15.8c-1.2-1.5-3.3-1.5-4.5-0.1L32.9,32c-1.3,1.4-2.3,4.1-2.3,6l0,37c0,1.9,1.6,3.5,3.5,3.5
			l30,0c1.9,0,3.5-1.6,3.5-3.5l0-37.4C67.5,35.6,66.5,32.9,65.3,31.4z M49,22.3c2.6,0,4.7,2.1,4.7,4.7c0,2.6-2.1,4.7-4.7,4.7
			c-2.6,0-4.7-2.1-4.7-4.7C44.3,24.4,46.4,22.3,49,22.3z M40.6,45.6c0.7-1,1.8-1.5,3-1.5c0.1,0,0.2,0,0.3,0c3.2,0.2,4.5,3.3,5,5.2
			c0.5-2,1.8-5,5-5.2c0.1,0,0.2,0,0.3,0c1.2,0,2.3,0.5,3,1.5c0.6,0.8,0.9,1.9,0.9,2.9c0,1.4-0.6,2.6-1.5,3.1c-0.1,0.1-0.4,0.2-1,0.2
			c-0.7,0-11.4,0-13.8,0c-0.5,0-0.7-0.1-0.8-0.2c-0.9-0.5-1.5-1.7-1.5-3.1C39.7,47.5,40,46.4,40.6,45.6z M47.1,72.3h-7.7
			c-0.6,0-1-0.5-1-1V60.3c0-0.6,0.5-1,1-1h7.7V72.3z M47.1,58.1H38c-0.6,0-1-0.5-1-1v-3.2c0-0.6,0.5-1,1-1h9.1L47.1,58.1z
			 M59.6,71.3c0,0.6-0.5,1-1,1h-7.7v-13h7.7c0.6,0,1,0.5,1,1V71.3z M61,57.1c0,0.6-0.5,1-1,1h-9.1l0-5.2H60c0.6,0,1,0.5,1,1V57.1z"
			/>
	</g>
</g>
<g>
	<g>
		<linearGradient id="SVGID_5_" gradientUnits="userSpaceOnUse" x1="28.41" y1="47.2226" x2="69.9633" y2="47.2226">
			<stop  offset="0" style="stop-color:#B47A1A"/>
			<stop  offset="5.280000e-02" style="stop-color:#B9811E"/>
			<stop  offset="0.1288" style="stop-color:#C69429"/>
			<stop  offset="0.2187" style="stop-color:#DCB33C"/>
			<stop  offset="0.3185" style="stop-color:#FADE56"/>
			<stop  offset="0.3333" style="stop-color:#FFE55A"/>
			<stop  offset="0.5161" style="stop-color:#FFEC88"/>
			<stop  offset="0.6613" style="stop-color:#FFE55A"/>
			<stop  offset="1" style="stop-color:#B47A1A"/>
		</linearGradient>
		<path class="st7" d="M54.3,43.9c-0.8-0.1-1.5-0.8-1.5-1.7V33c0-0.6,0.3-1.1,0.8-1.4s1.1-0.4,1.6-0.1c1.3,0.6,2.5,1.4,3.7,2.4
			c0.3,0.3,0.7,0.4,1.2,0.4c0.1,0,0.6-0.1,0.9-0.3l5.4-3.4c0.3-0.2,0.3-0.3,0.3-0.4c0,0,0-0.1-0.2-0.3c0,0-0.1-0.1-0.1-0.1
			c-3.1-3.6-7.2-5.8-12.2-6.7c-0.8-0.1-1.4-0.8-1.4-1.7v-5.2c0-0.5-0.4-0.9-1-0.9H47c-0.5,0-1,0.4-1,0.9v5c0,0.9-0.6,1.6-1.5,1.7
			c-2.3,0.3-4.5,0.9-6.3,1.8c-5.9,2.7-8.8,6.5-8.7,11.8c0,2.5,0.8,4.8,2.3,6.7c2.5,3.4,6.8,5.6,12.7,6.5c0.8,0.1,1.5,0.8,1.5,1.7
			v11.4c0,0.5-0.3,1.1-0.7,1.4c-0.5,0.3-1,0.4-1.6,0.2c-3-1.1-5.9-3-8.5-5.9l-0.1-0.1c-0.2-0.3-0.4-0.4-0.8-0.4c0,0-0.4,0.1-0.7,0.3
			l-4.8,2.9c-0.4,0.2-0.4,0.4-0.4,0.5c0,0.1,0,0.1,0.2,0.3c0,0,0.1,0.1,0.1,0.1c1.2,1.6,2.8,3.3,4.8,4.8c3.3,2.5,7,4.1,11.1,4.8
			c0.8,0.1,1.4,0.9,1.4,1.7V78c0,0.5,0.4,0.9,1,0.9h4.9c0.5,0,1-0.4,1-0.9v-4.5c0-0.8,0.6-1.6,1.4-1.7c3.2-0.5,6.1-1.5,8.5-2.9
			c0.3-0.2,0.7-0.3,1-0.6c1-0.7,1.9-1.4,2.7-2.2c1.5-1.6,2.6-3.4,3.1-5.5c0.3-1,0.4-2.2,0.4-3.3c0.1-2.9-0.7-5.3-2.4-7.3
			C64.8,46.8,60.3,44.7,54.3,43.9z M46,40.9c0,0.6-0.3,1.1-0.7,1.4c-0.3,0.2-0.6,0.3-1,0.3c-0.2,0-0.4,0-0.6-0.1
			c-3.5-1.4-4.3-3.9-4.3-5.7c0-1.6,0.7-3.9,3.8-5.4l0.5-0.2c0.5-0.2,1.1-0.1,1.6,0.2c0.5,0.3,0.8,0.8,0.7,1.4V40.9z M56.5,63.8
			c-0.4,0.3-0.9,0.5-1.2,0.7c-0.2,0.1-0.5,0.1-0.7,0.1c-0.3,0-0.7-0.1-0.9-0.3c-0.5-0.3-0.8-0.9-0.8-1.4v-10c0-0.5,0.3-1.1,0.7-1.4
			c0.4-0.3,1-0.4,1.5-0.3c4.3,1.4,5.2,4.1,5.1,6.3C60.1,60.2,58.9,62.3,56.5,63.8z"/>
		<linearGradient id="SVGID_6_" gradientUnits="userSpaceOnUse" x1="3.95" y1="49.4626" x2="94.41" y2="49.4626">
			<stop  offset="0" style="stop-color:#B47A1A"/>
			<stop  offset="5.280000e-02" style="stop-color:#B9811E"/>
			<stop  offset="0.1288" style="stop-color:#C69429"/>
			<stop  offset="0.2187" style="stop-color:#DCB33C"/>
			<stop  offset="0.3185" style="stop-color:#FADE56"/>
			<stop  offset="0.3333" style="stop-color:#FFE55A"/>
			<stop  offset="0.5161" style="stop-color:#FFEC88"/>
			<stop  offset="0.6613" style="stop-color:#FFE55A"/>
			<stop  offset="1" style="stop-color:#B47A1A"/>
		</linearGradient>
		<path class="st8" d="M49.2,4.2C24.2,4.2,4,24.5,4,49.5c0,24.9,20.2,45.2,45.2,45.2c25,0,45.2-20.3,45.2-45.2
			C94.4,24.5,74.1,4.2,49.2,4.2z M65.6,71.2c-2.7,1.8-5.8,3-9.4,3.7V78c0,2.4-1.9,4.4-4.4,4.4H47c-2.4,0-4.4-2-4.4-4.4v-3.1
			c-4.1-0.9-7.9-2.6-11.2-5.2c-2.3-1.7-4.1-3.6-5.5-5.5c-0.6-0.7-0.9-1.5-0.9-2.4c0-1,0.3-2.4,2.1-3.5l5.1-3
			c0.5-0.2,1.4-0.6,2.1-0.6c1.4,0,2.6,0.6,3.5,1.7c1.5,1.6,3.1,3,4.8,3.9V53c-5.1-1-9-2.9-11.9-5.8c-0.6-0.6-1.1-1.2-1.6-1.8
			c-1.9-2.5-2.9-5.5-3-8.7c-0.1-6.6,3.5-11.7,10.7-14.9c1.8-0.8,3.7-1.4,5.8-1.8v-3.6c0-2.4,1.9-4.4,4.4-4.4h4.9
			c2.4,0,4.4,2,4.4,4.4v3.8c5.1,1.2,9.3,3.7,12.7,7.4c0.8,0.7,1.2,1.7,1.2,2.7c0,0.9-0.4,2.2-1.9,3.2L62.7,37
			c-0.1,0.1-0.1,0.1-0.2,0.1c-0.1,0.1-1.3,0.6-2.4,0.6c0,0,0,0,0,0c-1.3,0-2.4-0.4-3.4-1.2c-0.2-0.2-0.3-0.3-0.5-0.4v4.6
			c0.5,0.1,0.9,0.2,1.4,0.3c5.5,1.2,9.7,3.5,12.6,6.9c2.2,2.6,3.2,5.8,3.1,9.5C73.3,63.3,70.7,67.9,65.6,71.2z"/>
	</g>
</g>
<g class="st0">
	
		<linearGradient id="SVGID_7_" gradientUnits="userSpaceOnUse" x1="3.95" y1="53.2806" x2="94.41" y2="53.2806" gradientTransform="matrix(1 0 0 -1 0 101.2756)">
		<stop  offset="0" style="stop-color:#B47A1A"/>
		<stop  offset="5.280000e-02" style="stop-color:#B9811E"/>
		<stop  offset="0.1288" style="stop-color:#C69429"/>
		<stop  offset="0.2187" style="stop-color:#DCB33C"/>
		<stop  offset="0.3185" style="stop-color:#FADE56"/>
		<stop  offset="0.3333" style="stop-color:#FFE55A"/>
		<stop  offset="0.5161" style="stop-color:#FFEC88"/>
		<stop  offset="0.6613" style="stop-color:#FFE55A"/>
		<stop  offset="1" style="stop-color:#B47A1A"/>
	</linearGradient>
	<path class="st9" d="M94.4,48c0,24.9-20.3,45.2-45.2,45.2C24.2,93.2,4,72.9,4,48C4,23,24.2,2.8,49.2,2.8C74.1,2.8,94.4,23,94.4,48z
		"/>
	<g class="st2">
		<path class="st10" d="M56.3,40v-5.2l-5.5-0.5c-0.3-1.4-0.9-2.8-1.6-4l3.6-4.3L49,22.4L44.8,26c-1.2-0.8-2.5-1.3-4-1.6l-0.5-5.5
			h-5.2l-0.5,5.5c-1.4,0.4-2.8,0.9-4,1.6l-4.2-3.6l-3.7,3.6l3.6,4.3c-0.8,1.2-1.3,2.5-1.7,4l-5.5,0.5V40l5.5,0.4
			c0.4,1.4,0.9,2.8,1.7,4l-3.6,4.2l3.7,3.7l4.2-3.5c1.2,0.7,2.6,1.3,4,1.6l0.5,5.5h5.2l0.5-5.5c1.4-0.3,2.8-0.9,4-1.6l4.2,3.5
			l3.7-3.7l-3.6-4.2c0.8-1.2,1.3-2.5,1.6-4L56.3,40z M37.8,43.9c-3.6,0-6.5-2.9-6.5-6.5c0-3.6,2.9-6.5,6.5-6.5
			c3.6,0,6.5,2.9,6.5,6.5C44.3,41,41.4,43.9,37.8,43.9z"/>
		<path class="st10" d="M76.7,60.1v-3.5L73,56.2c-0.2-1-0.6-1.9-1.1-2.7l2.4-2.9l-2.5-2.5l-2.8,2.4c-0.8-0.5-1.7-0.9-2.7-1.1
			l-0.3-3.7h-3.5l-0.3,3.7c-1,0.2-1.9,0.6-2.7,1.1l-2.8-2.4l-2.5,2.5l2.4,2.9c-0.5,0.8-0.9,1.7-1.1,2.7l-3.7,0.3v3.5l3.7,0.3
			c0.2,1,0.6,1.9,1.1,2.7l-2.4,2.8l2.5,2.5l2.8-2.4c0.8,0.5,1.7,0.9,2.7,1.1l0.3,3.7h3.5l0.3-3.7c1-0.2,1.9-0.6,2.7-1.1l2.8,2.4
			l2.5-2.5L71.8,63c0.5-0.8,0.9-1.7,1.1-2.7L76.7,60.1z M64.1,62.7c-2.4,0-4.4-1.9-4.4-4.4s2-4.4,4.4-4.4c2.4,0,4.4,2,4.4,4.4
			S66.6,62.7,64.1,62.7z"/>
	</g>
</g>
</svg>
