<?xml version="1.0" encoding="utf-8"?>
<!-- Generator: Adobe Illustrator 26.3.0, SVG Export Plug-In . SVG Version: 6.00 Build 0)  -->
<svg version="1.1" id="Capa_1" xmlns="http://www.w3.org/2000/svg" xmlns:xlink="http://www.w3.org/1999/xlink" x="0px" y="0px"
	 viewBox="0 0 150 150" style="enable-background:new 0 0 150 150;" xml:space="preserve">
<style type="text/css">
	.st0{display:none;fill:url(#SVGID_1_);}
	.st1{display:none;fill:url(#SVGID_00000084530642168424699550000002425788294680369066_);}
	.st2{display:none;}
	.st3{display:inline;fill:url(#SVGID_00000054239046990219554220000016425364504496729745_);}
	.st4{display:inline;fill:url(#SVGID_00000143603981385809941290000015477598585573211801_);}
	.st5{display:inline;fill:url(#SVGID_00000170244102774662139330000012560804075637960122_);}
	.st6{display:inline;fill:url(#SVGID_00000152240940582778756480000018241357495429864333_);}
	.st7{display:inline;fill:url(#SVGID_00000106137525801056333450000005263533001886010024_);}
	.st8{display:inline;fill:url(#SVGID_00000039129080101450262680000015302389975410709899_);}
	.st9{display:inline;fill:url(#SVGID_00000021799982313541990960000009579211798385377469_);}
	.st10{display:inline;fill:url(#SVGID_00000137815380671640355010000006851926654930296235_);}
	.st11{display:inline;fill:url(#SVGID_00000006690862615077810010000018244672244228192440_);}
	.st12{display:none;fill:url(#SVGID_00000085934419496413721720000001861273022335728802_);}
	.st13{fill:url(#SVGID_00000130615180067874858900000018343237801581115794_);}
	.st14{fill:url(#SVGID_00000145737300505535582990000012541668936217834163_);}
	.st15{fill:url(#SVGID_00000082358754934335135590000006426444965487933857_);}
	.st16{fill:url(#SVGID_00000127033374732276438260000004464694299940950458_);}
	.st17{fill:url(#SVGID_00000168077890922830256890000000787883614086393484_);}
	.st18{fill:url(#SVGID_00000084517425339129429810000014422467524972158635_);}
	.st19{fill:url(#SVGID_00000101101497349361887150000015494113090250428577_);}
	.st20{fill:url(#SVGID_00000122685879066194554370000001472377221493178514_);}
	.st21{fill:url(#SVGID_00000101814637836744941840000011396643427443186581_);}
	.st22{fill:url(#SVGID_00000183943805390841265320000001368133918780377219_);}
	.st23{fill:url(#SVGID_00000114069755000371416180000017027868329432503693_);}
	.st24{fill:url(#SVGID_00000120521895748839096770000014332149943356704389_);}
	.st25{fill:url(#SVGID_00000026864035530912660550000000233361003035779496_);}
	.st26{fill:url(#SVGID_00000016780617402656990200000012372212628447376555_);}
	.st27{fill:url(#SVGID_00000109734813855880238370000003897883435238072466_);}
	.st28{fill:url(#SVGID_00000168079176170205956830000015521477498848881030_);}
	.st29{fill:url(#SVGID_00000181057192889932675720000012694542246978899385_);}
	.st30{fill:url(#SVGID_00000080187584001191624190000017292014481159861946_);}
	.st31{fill:url(#SVGID_00000152946027437971308880000015283477120277994919_);}
	.st32{fill-rule:evenodd;clip-rule:evenodd;fill:#F7D33D;}
	.st33{fill:#F7D33D;}
	.st34{fill:url(#SVGID_00000099630973997598219260000006093707530541672893_);}
	.st35{fill:url(#SVGID_00000093179161847043631950000014823970522804704159_);}
	.st36{fill:url(#SVGID_00000100356327807320696020000007852165218821599142_);}
	.st37{display:none;fill:url(#SVGID_00000176032236623988032460000012627256327206233005_);}
	.st38{fill:url(#SVGID_00000116927256119805798420000005693486713605190316_);}
	.st39{display:none;fill:url(#SVGID_00000107563255463789953130000008790900702931428267_);}
	.st40{fill:url(#SVGID_00000032613277276557924950000012496487447682501513_);}
	.st41{fill:url(#SVGID_00000026147448350663157590000002908881446471896458_);}
	.st42{fill:url(#SVGID_00000084491727728921493960000008902216372178162839_);}
	.st43{fill:url(#SVGID_00000168810782186904371880000002574064020952388268_);}
	.st44{fill:url(#SVGID_00000086656686039349947510000009209118565512885911_);}
</style>
<linearGradient id="SVGID_1_" gradientUnits="userSpaceOnUse" x1="-6.7138" y1="145.3943" x2="158.5847" y2="240.8279" gradientTransform="matrix(1 0 0 -1 0 268)">
	<stop  offset="0" style="stop-color:#BFA065"/>
	<stop  offset="0.24" style="stop-color:#EBCE6F"/>
	<stop  offset="0.52" style="stop-color:#FFFCAC"/>
	<stop  offset="1" style="stop-color:#BFA065"/>
</linearGradient>
<path class="st0" d="M134.49,0.89H17.38C8.85,0.89,1.94,7.8,1.94,16.33v117.11c0,8.53,6.92,15.45,15.45,15.45h117.11
	c8.53,0,15.45-6.92,15.45-15.45V16.33C149.94,7.8,143.02,0.89,134.49,0.89z M36.11,108.51c0,0-0.1-2.95-0.12-4.27
	c-0.07-5.71-0.13-11.43-0.19-17.14c-0.1-8.01-0.19-16.01-0.29-24.02c-0.11-7.43-0.25-14.85-0.37-22.28c-0.04-2.8-0.04-5.61-0.11-8.4
	c-0.02-0.85,0.29-1.18,1.14-1.16c1.09,0.03,2.18-0.05,3.28,0s1.37-0.56,1.33-1.51c-0.04-0.83-0.14-1.52-1.27-1.45
	s-2.34-0.06-3.49,0.07c-0.92,0.1-1.07-0.35-1.07-1.05c-0.02-2.36-0.04-4.73-0.06-7.09c0-1.13-0.02-2.26-0.03-3.39
	c0-1.99,1.23-3.44,3.24-3.52c3.85-0.14,7.71-0.08,11.56-0.27c1.78-0.09,2.79,0.13,3.63,2.07c1.36,3.15,4.19,4.66,7.65,4.31
	c3.47-0.35,5.86-2.31,6.97-5.66c0.25-0.77,0.6-1.01,1.39-1.01c4.23-0.04,8.45-0.16,12.67-0.21c2.55-0.03,3.79,1.27,3.82,3.85
	c0.01,1.34,0.05,2.68,0.08,4.19c-0.94-0.23-1.76-0.46-2.59-0.63c-2.78-0.51-5.56,0.87-6.84,3.39c-0.54,1.12-1.11,2.22-1.57,3.37
	c-0.22,0.68-0.88,1.12-1.59,1.05c-0.98,0-1.97,0.02-2.95,0c-0.81-0.02-1.47,0.06-1.5,1.1c-0.05,1.63,0.08,1.82,1.35,1.84l2.77,0.03
	L36.6,107.79L36.11,108.51z M125.1,46.82c-1.43,3.08-2.91,6.13-4.33,9.22c-0.38,0.83-0.83,1-1.62,0.59
	c-0.97-0.5-1.99-0.92-2.97-1.42s-1.45-0.12-1.85,0.78c-0.4,0.9-0.36,1.43,0.58,1.83c0.94,0.4,1.9,0.95,2.9,1.33s1.07,0.89,0.63,1.83
	c-5.89,12.4-11.75,24.82-17.59,37.24l-17.41,36.84c-1.09,2.3-2.94,3.01-5.21,1.95c-3.84-1.78-7.65-3.63-11.5-5.4
	c-0.82-0.38-0.89-0.94-0.81-1.68c0.36-3.6-1.65-7.03-5.02-8.24c-3.3-1.19-6.25-0.39-8.72,2.07c-0.48,0.47-0.84,0.56-1.42,0.29
	c-3.99-1.91-7.99-3.77-11.97-5.69c-1.83-0.88-2.44-2.73-1.58-4.63c1.14-2.49,2.32-4.96,3.49-7.43l31.57-66.86
	c0.7-1.47,0.7-1.48,2.19-0.77c0.89,0.42,1.79,0.83,2.67,1.27c0.74,0.37,1.16,0.08,1.45-0.62c0.29-0.7,0.85-1.42-0.2-1.96
	c-1.05-0.53-2.09-1.05-3.16-1.51c-0.73-0.31-0.92-0.71-0.58-1.45c1.54-3.23,3.03-6.48,4.61-9.69c0.87-1.74,2.71-2.34,4.46-1.52
	c4,1.87,7.99,3.77,11.99,5.65c0.58,0.27,0.79,0.55,0.67,1.25c-0.58,3.24,1.19,6.74,4.03,8.18c3.35,1.71,6.82,1.24,9.36-1.3
	c0.69-0.69,1.29-0.94,2.28-0.45c3.73,1.84,7.53,3.57,11.3,5.35C125.33,42.86,126.04,44.77,125.1,46.82L125.1,46.82z M88.58,42.19
	c-1.12-0.52-2.25-1.03-3.35-1.6c-1.16-0.6-1.41,0.29-1.82,1.03c-0.45,0.82-0.21,1.28,0.61,1.6c0.54,0.21,1.05,0.49,1.58,0.74
	c0.59,0.29,1.19,0.55,1.78,0.84c0.93,0.47,1.31-0.08,1.66-0.82C89.37,43.26,89.5,42.61,88.58,42.19z M51.22,28.11
	c-1.45,0-2.92,0-4.37,0.07c-0.89,0.04-0.87,0.81-0.8,1.41s-0.22,1.45,0.85,1.45c1.45,0,2.91,0,4.36-0.09
	c0.32-0.02,0.87-0.42,0.87-0.68c0.06-0.7-0.11-1.41-0.18-2.03C51.7,28.18,51.46,28.14,51.22,28.11L51.22,28.11z M62.55,27.94
	c-1.38,0-2.76,0-4.14,0.06c-0.27,0.05-0.53,0.16-0.76,0.32c-0.58,1.19-0.07,2.61,0.81,2.61c1.38,0.02,2.76,0,4.14-0.08
	c1.16-0.06,0.91-0.96,0.94-1.71S63.37,27.93,62.55,27.94L62.55,27.94z M98.46,46.86l-1.28-0.61l0,0c-0.62-0.29-1.24-0.61-1.87-0.87
	c-1.05-0.44-1.2,0.47-1.52,1.07c-0.33,0.61-0.48,1.16,0.33,1.54c1.22,0.56,2.42,1.19,3.66,1.69c0.42,0.13,0.87,0.05,1.23-0.21
	c1.02-1.15,0.82-1.95-0.56-2.61H98.46z M108.92,51.78c-0.49-0.24-0.99-0.47-1.48-0.7c-0.49-0.23-1.07-0.47-1.58-0.75
	c-0.88-0.48-1.33-0.09-1.68,0.71c-0.33,0.75-0.65,1.42,0.39,1.89c1.13,0.5,2.25,1.04,3.36,1.59c0.79,0.39,1.27,0.2,1.65-0.6
	c0.58-1.25,0.52-1.52-0.69-2.13L108.92,51.78z"/>
<linearGradient id="SVGID_00000102533375878984835110000006026154262001110193_" gradientUnits="userSpaceOnUse" x1="-6.1378" y1="122.3934" x2="155.8324" y2="28.8813">
	<stop  offset="0" style="stop-color:#BFA065"/>
	<stop  offset="0.24" style="stop-color:#EBCE6F"/>
	<stop  offset="0.52" style="stop-color:#FFFCAC"/>
	<stop  offset="1" style="stop-color:#BFA065"/>
</linearGradient>
<path style="display:none;fill:url(#SVGID_00000102533375878984835110000006026154262001110193_);" d="M129.59,2.16H20.11
	C9.76,2.16,1.37,10.55,1.37,20.9v109.48c0,10.35,8.39,18.73,18.73,18.73h109.48c10.35,0,18.73-8.39,18.73-18.73V20.9
	C148.32,10.55,139.93,2.16,129.59,2.16z M117.4,46.49c-3.57,4.69-8.54,9.37-15.14,15.7c-1.1,1.1-2.2,2.2-3.58,3.58
	c6.07,20.65,7.17,23.41,13.51,45.45c0.26,0.27,0.26,0.55,0.26,0.82c0,1.1-0.26,1.93-0.82,2.48l-4.69,4.4
	c-0.28,0.55-1.1,0.83-1.65,0.83c-1.1,0-1.94-0.55-2.2-1.38L89.61,90.55c0-0.27-0.28-0.55-0.55-0.55l-8.83-6.33
	c-7.44,7.16-14.59,13.49-20.93,18.18c-0.55,0.55-1.1,1.1-1.65,1.37l1.94,20.65c0,1.1-0.55,1.93-1.1,2.75l-2.22,1.93
	c-0.27,0.55-1.1,0.82-1.65,0.82c-1.1,0-1.92-0.55-2.47-1.38c-6.62-14.32-16.26-23.68-30.3-30.57c-0.82-0.27-1.37-1.1-1.37-2.2
	c0-0.82,0.26-1.37,0.55-1.93l2.2-1.92c0.55-0.84,1.65-1.1,2.46-1.1c0.28,0,0.28,0,0.28,0l20.65,1.93c0.28-0.55,0.83-1.11,1.12-1.66
	c4.95-6.33,11.29-13.49,18.44-20.93l-6.89-9.09c0-0.27-0.55-0.55-0.55-0.55L31.48,46.76c-0.82-0.55-1.37-1.38-1.37-2.2
	c0-0.83,0.26-1.38,0.82-1.93l4.4-4.41c0.55-0.55,1.39-0.83,2.22-0.83c0.27,0,0.81,0,1.1,0c21.75,6.61,24.78,7.44,45.43,13.78
	c1.38-1.38,2.48-2.48,3.58-3.58c6.34-6.88,10.74-11.57,15.43-15.14c5.77-4.14,11.56-6.89,15.96-6.89c1.38,0,2.48,0.27,3.32,0.83
	c0,0,0.27,0.27,0.55,0.55c0.27,0.28,0.27,0.55,0.27,0.55c0.55,0.83,0.83,1.93,0.83,3.31C124.02,34.92,121.54,40.99,117.4,46.49z"/>
<g class="st2">
	
		<linearGradient id="SVGID_00000034080561107534705030000010582050914408521099_" gradientUnits="userSpaceOnUse" x1="-18.9659" y1="100.2691" x2="143.6745" y2="6.3701">
		<stop  offset="0" style="stop-color:#BFA065"/>
		<stop  offset="0.24" style="stop-color:#EBCE6F"/>
		<stop  offset="0.52" style="stop-color:#FFFCAC"/>
		<stop  offset="1" style="stop-color:#BFA065"/>
	</linearGradient>
	<path style="display:inline;fill:url(#SVGID_00000034080561107534705030000010582050914408521099_);" d="M101.33,36.25
		c0-2.43-0.73-4.8-2-6.51c-1.35-1.81-3.21-2.73-5.51-2.73c-0.21,0-0.42,0.01-0.64,0.02c-7.93,0.55-11.12,9.75-12.3,14.98h17.14
		C100.63,42.02,101.33,38.25,101.33,36.25z"/>
	
		<linearGradient id="SVGID_00000031927792489341965680000014470321433790179465_" gradientUnits="userSpaceOnUse" x1="-6.3847" y1="122.0606" x2="156.2556" y2="28.1616">
		<stop  offset="0" style="stop-color:#BFA065"/>
		<stop  offset="0.24" style="stop-color:#EBCE6F"/>
		<stop  offset="0.52" style="stop-color:#FFFCAC"/>
		<stop  offset="1" style="stop-color:#BFA065"/>
	</linearGradient>
	<path style="display:inline;fill:url(#SVGID_00000031927792489341965680000014470321433790179465_);" d="M129.9,1.33H19.97
		C9.58,1.33,1.16,9.76,1.16,20.14v109.93c0,10.39,8.42,18.81,18.81,18.81H129.9c10.39,0,18.81-8.42,18.81-18.81V20.14
		C148.71,9.76,140.29,1.33,129.9,1.33z M45.14,25.84c2.57-3.45,6.39-5.35,10.74-5.35c0.36,0,0.72,0.01,1.09,0.04
		c11.42,0.79,16.06,11.63,17.87,18.62c1.81-6.99,6.45-17.83,17.87-18.62c0.37-0.03,0.73-0.04,1.09-0.04c4.35,0,8.17,1.9,10.74,5.35
		c2.1,2.81,3.3,6.6,3.3,10.41c0,5.12-2.03,9.13-5.27,11.04c-0.45,0.27-1.29,0.67-3.41,0.67c-2.31,0-40.38,0-48.94,0
		c-1.93,0-2.59-0.37-3.01-0.61c-3.3-1.89-5.37-5.93-5.37-11.1C41.84,32.45,43.05,28.65,45.14,25.84z M68.14,120.51H40.76
		c-2,0-3.62-1.62-3.62-3.62V78.01c0-2,1.62-3.62,3.62-3.62h27.38V120.51z M68.14,70.04H35.81c-2,0-3.62-1.62-3.62-3.62V55.06
		c0-2,1.62-3.62,3.62-3.62h32.35L68.14,70.04z M112.73,116.89c0,2-1.62,3.62-3.62,3.62H81.73V74.38h27.38c2,0,3.62,1.62,3.62,3.62
		V116.89z M117.68,66.41c0,2-1.62,3.62-3.62,3.62H81.73l-0.08-18.6h32.41c2,0,3.62,1.62,3.62,3.62V66.41z"/>
	
		<linearGradient id="SVGID_00000005225778501315809970000015963190307568883854_" gradientUnits="userSpaceOnUse" x1="-27.3533" y1="85.7413" x2="135.287" y2="-8.1576">
		<stop  offset="0" style="stop-color:#BFA065"/>
		<stop  offset="0.24" style="stop-color:#EBCE6F"/>
		<stop  offset="0.52" style="stop-color:#FFFCAC"/>
		<stop  offset="1" style="stop-color:#BFA065"/>
	</linearGradient>
	<path style="display:inline;fill:url(#SVGID_00000005225778501315809970000015963190307568883854_);" d="M51.68,42.02h17.14
		c-1.18-5.24-4.37-14.43-12.3-14.98c-0.22-0.02-0.43-0.02-0.64-0.02c-2.31,0-4.16,0.92-5.51,2.73c-1.27,1.71-2,4.08-2,6.51
		C48.36,38.25,49.06,42.02,51.68,42.02z"/>
</g>
<g class="st2">
	
		<linearGradient id="SVGID_00000123427561751364230120000015505468644472975534_" gradientUnits="userSpaceOnUse" x1="-18.9932" y1="100.6755" x2="144.137" y2="6.4937">
		<stop  offset="0" style="stop-color:#BFA065"/>
		<stop  offset="0.24" style="stop-color:#EBCE6F"/>
		<stop  offset="0.52" style="stop-color:#FFFCAC"/>
		<stop  offset="1" style="stop-color:#BFA065"/>
	</linearGradient>
	
		<rect x="23.09" y="37.74" style="display:inline;fill:url(#SVGID_00000123427561751364230120000015505468644472975534_);" width="41.36" height="53.39"/>
	
		<linearGradient id="SVGID_00000058551742807068397780000001078874811902062244_" gradientUnits="userSpaceOnUse" x1="11.3101" y1="153.1632" x2="174.4403" y2="58.9814">
		<stop  offset="0" style="stop-color:#BFA065"/>
		<stop  offset="0.24" style="stop-color:#EBCE6F"/>
		<stop  offset="0.52" style="stop-color:#FFFCAC"/>
		<stop  offset="1" style="stop-color:#BFA065"/>
	</linearGradient>
	<path style="display:inline;fill:url(#SVGID_00000058551742807068397780000001078874811902062244_);" d="M84.83,112.82h49.68
		c0.75,0,1.39-0.64,1.39-1.39V81.32c0-0.75-0.64-1.39-1.39-1.39H84.83c-0.75,0-1.39,0.64-1.39,1.39v30.11
		C83.44,112.18,84.08,112.82,84.83,112.82z"/>
	
		<linearGradient id="SVGID_00000008862606007187533570000001525297975526944703_" gradientUnits="userSpaceOnUse" x1="-32.6368" y1="77.0438" x2="130.4935" y2="-17.138">
		<stop  offset="0" style="stop-color:#BFA065"/>
		<stop  offset="0.24" style="stop-color:#EBCE6F"/>
		<stop  offset="0.52" style="stop-color:#FFFCAC"/>
		<stop  offset="1" style="stop-color:#BFA065"/>
	</linearGradient>
	<path style="display:inline;fill:url(#SVGID_00000008862606007187533570000001525297975526944703_);" d="M35.35,34.6H52.2
		c0.92,0,1.67-0.75,1.67-1.67c0-0.92-0.75-1.67-1.67-1.67H35.35c-0.92,0-1.67,0.75-1.67,1.67C33.67,33.85,34.42,34.6,35.35,34.6z"/>
	
		<linearGradient id="SVGID_00000128459014918484867880000002026624528480950927_" gradientUnits="userSpaceOnUse" x1="-4.5191" y1="125.7458" x2="158.6111" y2="31.564">
		<stop  offset="0" style="stop-color:#BFA065"/>
		<stop  offset="0.24" style="stop-color:#EBCE6F"/>
		<stop  offset="0.52" style="stop-color:#FFFCAC"/>
		<stop  offset="1" style="stop-color:#BFA065"/>
	</linearGradient>
	<path style="display:inline;fill:url(#SVGID_00000128459014918484867880000002026624528480950927_);" d="M43.78,94.44
		c-1.89,0-3.43,1.53-3.43,3.43c0,1.89,1.54,3.43,3.43,3.43c1.89,0,3.43-1.53,3.43-3.43C47.2,95.97,45.67,94.44,43.78,94.44z"/>
	
		<linearGradient id="SVGID_00000109743948582221310960000005027869253917631364_" gradientUnits="userSpaceOnUse" x1="-6.5651" y1="122.202" x2="156.5651" y2="28.0202">
		<stop  offset="0" style="stop-color:#BFA065"/>
		<stop  offset="0.24" style="stop-color:#EBCE6F"/>
		<stop  offset="0.52" style="stop-color:#FFFCAC"/>
		<stop  offset="1" style="stop-color:#BFA065"/>
	</linearGradient>
	<path style="display:inline;fill:url(#SVGID_00000109743948582221310960000005027869253917631364_);" d="M130.13,1.11H19.87
		C9.45,1.11,1,9.56,1,19.98v110.27c0,10.42,8.45,18.87,18.87,18.87h110.27c10.42,0,18.87-8.45,18.87-18.87V19.98
		C149,9.56,140.55,1.11,130.13,1.11z M70.33,96.81c0,3.95-3.22,7.17-7.17,7.17H24.39c-3.95,0-7.17-3.22-7.17-7.17V35.86
		c0-5.22,4.41-9.62,9.62-9.62h33.87c5.67,0,9.62,3.76,9.62,9.13V96.81z M145.46,131.37c-0.82,1.31-2.32,2.07-4.11,2.07H78
		c-1.79,0-3.28-0.75-4.11-2.07c-0.82-1.31-0.85-2.99-0.07-4.6l5.9-12.15c-0.58-0.93-0.92-2.02-0.92-3.19V81.32
		c0-3.32,2.7-6.02,6.02-6.02h49.68c3.32,0,6.02,2.7,6.02,6.02v30.11c0,1.17-0.34,2.26-0.92,3.19l5.9,12.15
		C146.3,128.38,146.28,130.05,145.46,131.37z"/>
	
		<linearGradient id="SVGID_00000033341464096382150480000015214990731048969349_" gradientUnits="userSpaceOnUse" x1="23.5624" y1="174.3852" x2="186.6927" y2="80.2034">
		<stop  offset="0" style="stop-color:#BFA065"/>
		<stop  offset="0.24" style="stop-color:#EBCE6F"/>
		<stop  offset="0.52" style="stop-color:#FFFCAC"/>
		<stop  offset="1" style="stop-color:#BFA065"/>
	</linearGradient>
	<path style="display:inline;fill:url(#SVGID_00000033341464096382150480000015214990731048969349_);" d="M135.78,117.32
		c-0.41,0.09-0.83,0.13-1.26,0.13H84.83c-0.43,0-0.85-0.05-1.26-0.13L78,128.8c0,0,0,0,0,0.01c0,0,0,0,0.01,0h63.35c0,0,0,0,0.01,0
		c0,0,0,0,0-0.01L135.78,117.32z"/>
</g>
<linearGradient id="SVGID_00000014597450719513878610000007989838548625190824_" gradientUnits="userSpaceOnUse" x1="-6.1157" y1="121.5348" x2="156.1157" y2="27.872">
	<stop  offset="0" style="stop-color:#BFA065"/>
	<stop  offset="0.24" style="stop-color:#EBCE6F"/>
	<stop  offset="0.52" style="stop-color:#FFFCAC"/>
	<stop  offset="1" style="stop-color:#BFA065"/>
</linearGradient>
<path style="display:none;fill:url(#SVGID_00000014597450719513878610000007989838548625190824_);" d="M129.83,1.11H20.17
	c-10.36,0-18.76,8.4-18.76,18.76v109.66c0,10.36,8.4,18.76,18.76,18.76h109.66c10.36,0,18.76-8.4,18.76-18.76V19.87
	C148.59,9.51,140.19,1.11,129.83,1.11z M106.83,113.88c0,1.55-1.25,2.8-2.8,2.8H82.52c-1.55,0-2.8-1.25-2.8-2.8V91.67h-9.45v22.21
	c0,1.55-1.25,2.8-2.8,2.8H45.97c-1.55,0-2.8-1.25-2.8-2.8V79.25c0-1.55,1.25-2.8,2.8-2.8c1.55,0,2.8,1.25,2.8,2.8v31.83h15.91V88.87
	c0-1.55,1.25-2.8,2.8-2.8h15.04c1.54,0,2.8,1.25,2.8,2.8v22.21h15.91V79.25c0-1.55,1.25-2.8,2.8-2.8c1.55,0,2.8,1.25,2.8,2.8V113.88
	z M120.45,79.09c-0.55,0.57-1.29,0.86-2.02,0.86c-0.7,0-1.39-0.26-1.94-0.78L75,39.41L33.5,79.17c-1.12,1.07-2.89,1.03-3.96-0.08
	c-1.07-1.12-1.03-2.89,0.08-3.96l43.43-41.62c1.08-1.04,2.79-1.04,3.87,0l18.68,17.9V39.38c0-1.45,1.18-2.63,2.63-2.63
	c1.45,0,2.63,1.17,2.63,2.63v16.96c0,0.03-0.01,0.07-0.01,0.1l19.51,18.69C121.48,76.2,121.52,77.97,120.45,79.09z"/>
<linearGradient id="SVGID_00000012431184377993386420000005538243207141575578_" gradientUnits="userSpaceOnUse" x1="-346.1151" y1="3.6013" x2="-185.3209" y2="-89.2318">
	<stop  offset="0" style="stop-color:#BFA065"/>
	<stop  offset="0.24" style="stop-color:#EBCE6F"/>
	<stop  offset="0.52" style="stop-color:#FFFCAC"/>
	<stop  offset="1" style="stop-color:#BFA065"/>
</linearGradient>
<path style="fill:url(#SVGID_00000012431184377993386420000005538243207141575578_);" d="M-264.51-46.72
	c0.07,2.25,1.66,4.16,4.91,5.82v-10.67C-263.87-49.91-264.54-48.16-264.51-46.72z"/>
<linearGradient id="SVGID_00000020390517963984180530000005526485643224839059_" gradientUnits="userSpaceOnUse" x1="-327.9834" y1="35.0069" x2="-167.1891" y2="-57.8262">
	<stop  offset="0" style="stop-color:#BFA065"/>
	<stop  offset="0.24" style="stop-color:#EBCE6F"/>
	<stop  offset="0.52" style="stop-color:#FFFCAC"/>
	<stop  offset="1" style="stop-color:#BFA065"/>
</linearGradient>
<path style="fill:url(#SVGID_00000020390517963984180530000005526485643224839059_);" d="M-243.95-18.86v10.67
	c3.25-1.66,4.84-3.57,4.91-5.82C-239-15.46-239.67-17.2-243.95-18.86z"/>
<linearGradient id="SVGID_00000070098912472946216450000000956643396088558257_" gradientUnits="userSpaceOnUse" x1="-364.9021" y1="60.294" x2="-281.9165" y2="12.383">
	<stop  offset="0" style="stop-color:#BFA065"/>
	<stop  offset="0.24" style="stop-color:#EBCE6F"/>
	<stop  offset="0.52" style="stop-color:#FFFCAC"/>
	<stop  offset="1" style="stop-color:#BFA065"/>
</linearGradient>
<path style="fill:url(#SVGID_00000070098912472946216450000000956643396088558257_);" d="M-291.26,68.66
	c-5.01,2.46-10.91,4.19-17.52,5.15v4.29c0,3.34-3.65,6.06-8.14,6.06h-9.07c-4.49,0-8.13-2.72-8.13-6.06V73.8
	c-7.69-1.21-14.71-3.62-20.89-7.16c-4.23-2.4-7.68-4.97-10.26-7.64c-1.12-0.96-1.72-2.11-1.75-3.38c-0.03-1.41,0.62-3.39,3.91-4.81
	l9.6-4.18c0.9-0.29,2.61-0.79,3.99-0.79c2.63,0,4.86,0.8,6.46,2.31c2.82,2.28,5.83,4.11,8.94,5.41V43.34
	c-9.43-1.38-16.84-4.09-22.17-8.04c-1.07-0.8-2.11-1.64-3-2.54c-3.55-3.5-5.41-7.59-5.52-12.14c-0.22-9.25,6.45-16.24,19.84-20.8
	c3.27-1.12,6.91-1.97,10.85-2.52v-4.97c0-3.35,3.64-6.07,8.13-6.07h9.07c4.49,0,8.14,2.73,8.14,6.07v5.23
	c9.47,1.61,17.41,5.08,23.62,10.34c1.45,1.02,2.24,2.36,2.2,3.82c-0.03,1.28-0.68,3.1-3.6,4.48l-10.17,4.77
	c-0.13,0.06-0.25,0.1-0.37,0.15c-0.21,0.08-2.43,0.9-4.42,0.9c-0.01,0-0.02,0-0.04,0c-2.34-0.01-4.45-0.58-6.25-1.69
	c-0.32-0.21-0.65-0.41-0.97-0.6v6.45c0.89,0.12,1.74,0.27,2.6,0.41c10.24,1.68,18.15,4.91,23.48,9.66l0.01,0.01
	c4.02,3.63,5.99,8.08,5.85,13.24C-277.06,57.59-281.91,64.04-291.26,68.66z"/>
<linearGradient id="SVGID_00000020357055247900953130000002234350540120221332_" gradientUnits="userSpaceOnUse" x1="-144.3991" y1="-473.2723" x2="20.8994" y2="-377.8388" gradientTransform="matrix(1 0 0 -1 0 268)">
	<stop  offset="0" style="stop-color:#BFA065"/>
	<stop  offset="0.24" style="stop-color:#EBCE6F"/>
	<stop  offset="0.52" style="stop-color:#FFFCAC"/>
	<stop  offset="1" style="stop-color:#BFA065"/>
</linearGradient>
<path style="fill:url(#SVGID_00000020357055247900953130000002234350540120221332_);" d="M-3.2,619.56H-120.3
	c-8.53,0-15.45,6.92-15.45,15.45v117.11c0,8.53,6.92,15.45,15.45,15.45H-3.2c8.53,0,15.45-6.92,15.45-15.45V635
	C12.25,626.47,5.33,619.56-3.2,619.56z M-101.58,727.18c0,0-0.1-2.95-0.12-4.27c-0.07-5.71-0.13-11.43-0.19-17.14
	c-0.1-8.01-0.19-16.01-0.29-24.02c-0.11-7.43-0.25-14.85-0.37-22.28c-0.04-2.8-0.04-5.61-0.11-8.4c-0.02-0.85,0.29-1.18,1.14-1.16
	c1.09,0.03,2.18-0.05,3.28,0c1.09,0.05,1.37-0.56,1.33-1.51c-0.04-0.83-0.14-1.52-1.27-1.45s-2.34-0.06-3.49,0.07
	c-0.92,0.1-1.07-0.35-1.07-1.05c-0.02-2.36-0.04-4.73-0.06-7.09c0-1.13-0.02-2.26-0.03-3.39c0-1.99,1.23-3.44,3.24-3.52
	c3.85-0.14,7.71-0.08,11.56-0.27c1.78-0.09,2.79,0.13,3.63,2.07c1.36,3.15,4.19,4.66,7.65,4.31c3.47-0.35,5.86-2.31,6.97-5.66
	c0.25-0.77,0.6-1.01,1.39-1.01c4.23-0.04,8.45-0.16,12.67-0.21c2.55-0.03,3.79,1.27,3.82,3.85c0.01,1.34,0.05,2.68,0.08,4.19
	c-0.94-0.23-1.76-0.46-2.59-0.63c-2.78-0.51-5.56,0.87-6.84,3.39c-0.54,1.12-1.11,2.22-1.57,3.37c-0.22,0.68-0.88,1.12-1.59,1.05
	c-0.98,0-1.97,0.02-2.95,0c-0.81-0.02-1.47,0.06-1.5,1.1c-0.05,1.63,0.08,1.82,1.35,1.84l2.77,0.03l-36.35,77.04L-101.58,727.18z
	 M-12.59,665.49c-1.43,3.08-2.91,6.13-4.33,9.22c-0.38,0.83-0.83,1-1.62,0.59c-0.97-0.5-1.99-0.92-2.97-1.42s-1.45-0.12-1.85,0.78
	c-0.4,0.9-0.36,1.43,0.58,1.83c0.94,0.4,1.9,0.95,2.9,1.33c1,0.38,1.07,0.89,0.63,1.83c-5.89,12.4-11.75,24.82-17.59,37.24
	l-17.41,36.84c-1.09,2.3-2.94,3.01-5.21,1.95c-3.84-1.78-7.65-3.63-11.5-5.4c-0.82-0.38-0.89-0.94-0.81-1.68
	c0.36-3.6-1.65-7.03-5.02-8.24c-3.3-1.19-6.25-0.39-8.72,2.07c-0.48,0.47-0.84,0.56-1.42,0.29c-3.99-1.91-7.99-3.77-11.97-5.69
	c-1.83-0.88-2.44-2.73-1.58-4.63c1.14-2.49,2.32-4.96,3.49-7.43l31.57-66.86c0.7-1.47,0.7-1.48,2.19-0.77
	c0.89,0.42,1.79,0.83,2.67,1.27c0.74,0.37,1.16,0.08,1.45-0.62c0.29-0.7,0.85-1.42-0.2-1.96c-1.05-0.53-2.09-1.05-3.16-1.51
	c-0.73-0.31-0.92-0.71-0.58-1.45c1.54-3.23,3.03-6.48,4.61-9.69c0.87-1.74,2.71-2.34,4.46-1.52c4,1.87,7.99,3.77,11.99,5.65
	c0.58,0.27,0.79,0.55,0.67,1.25c-0.58,3.24,1.19,6.74,4.03,8.18c3.35,1.71,6.82,1.24,9.36-1.3c0.69-0.69,1.29-0.94,2.28-0.45
	c3.73,1.84,7.53,3.57,11.3,5.35C-12.35,661.53-11.64,663.43-12.59,665.49L-12.59,665.49z M-49.11,660.86
	c-1.12-0.52-2.25-1.03-3.35-1.6c-1.16-0.6-1.41,0.29-1.82,1.03c-0.45,0.82-0.21,1.28,0.61,1.6c0.54,0.21,1.05,0.49,1.58,0.74
	c0.59,0.29,1.19,0.55,1.78,0.84c0.93,0.47,1.31-0.08,1.66-0.82C-48.31,661.92-48.18,661.28-49.11,660.86z M-86.47,646.77
	c-1.45,0-2.92,0-4.37,0.07c-0.89,0.04-0.87,0.81-0.8,1.41c0.07,0.59-0.22,1.45,0.85,1.45c1.45,0,2.91,0,4.36-0.09
	c0.32-0.02,0.87-0.42,0.87-0.68c0.06-0.7-0.11-1.41-0.18-2.03C-85.98,646.85-86.23,646.8-86.47,646.77L-86.47,646.77z
	 M-75.14,646.61c-1.38,0-2.76,0-4.14,0.06c-0.27,0.05-0.53,0.16-0.76,0.32c-0.58,1.19-0.07,2.61,0.81,2.61
	c1.38,0.02,2.76,0,4.14-0.08c1.16-0.06,0.91-0.96,0.94-1.71C-74.11,647.05-74.31,646.6-75.14,646.61L-75.14,646.61z M-39.22,665.52
	l-1.28-0.61l0,0c-0.62-0.29-1.24-0.61-1.87-0.87c-1.05-0.44-1.2,0.47-1.52,1.07s-0.48,1.16,0.33,1.54c1.22,0.56,2.42,1.19,3.66,1.69
	c0.42,0.13,0.87,0.05,1.23-0.21c1.02-1.15,0.82-1.95-0.56-2.61H-39.22z M-28.76,670.45c-0.49-0.24-0.99-0.47-1.48-0.7
	c-0.49-0.23-1.07-0.47-1.58-0.75c-0.88-0.48-1.33-0.09-1.68,0.71c-0.33,0.75-0.65,1.42,0.39,1.89c1.13,0.5,2.25,1.04,3.36,1.59
	c0.79,0.39,1.27,0.2,1.65-0.6c0.58-1.25,0.52-1.52-0.69-2.13L-28.76,670.45z"/>
<linearGradient id="SVGID_00000118392320721064676900000011419005041245565117_" gradientUnits="userSpaceOnUse" x1="-142.7349" y1="404.3116" x2="19.2353" y2="310.7996">
	<stop  offset="0" style="stop-color:#BFA065"/>
	<stop  offset="0.24" style="stop-color:#EBCE6F"/>
	<stop  offset="0.52" style="stop-color:#FFFCAC"/>
	<stop  offset="1" style="stop-color:#BFA065"/>
</linearGradient>
<path style="fill:url(#SVGID_00000118392320721064676900000011419005041245565117_);" d="M-7.01,284.08h-109.48
	c-10.35,0-18.73,8.39-18.73,18.73V412.3c0,10.35,8.39,18.73,18.73,18.73H-7.01c10.35,0,18.73-8.39,18.73-18.73V302.82
	C11.72,292.47,3.34,284.08-7.01,284.08z M-19.19,328.41c-3.57,4.69-8.54,9.37-15.14,15.7c-1.1,1.1-2.2,2.2-3.58,3.58
	c6.07,20.65,7.17,23.41,13.51,45.45c0.26,0.27,0.26,0.55,0.26,0.82c0,1.1-0.26,1.93-0.82,2.48l-4.69,4.4
	c-0.28,0.55-1.1,0.83-1.65,0.83c-1.1,0-1.94-0.55-2.2-1.38l-13.49-27.82c0-0.27-0.28-0.55-0.55-0.55l-8.83-6.33
	c-7.44,7.16-14.59,13.49-20.93,18.18c-0.55,0.55-1.1,1.1-1.65,1.37l1.94,20.65c0,1.1-0.55,1.93-1.1,2.75l-2.22,1.93
	c-0.27,0.55-1.1,0.82-1.65,0.82c-1.1,0-1.92-0.55-2.47-1.38c-6.62-14.32-16.26-23.68-30.3-30.57c-0.82-0.27-1.37-1.1-1.37-2.2
	c0-0.82,0.26-1.37,0.55-1.93l2.2-1.92c0.55-0.84,1.65-1.1,2.46-1.1c0.28,0,0.28,0,0.28,0l20.65,1.93c0.28-0.55,0.83-1.11,1.12-1.66
	c4.95-6.33,11.29-13.49,18.44-20.93l-6.89-9.09c0-0.27-0.55-0.55-0.55-0.55l-27.27-13.22c-0.82-0.55-1.37-1.38-1.37-2.2
	c0-0.83,0.26-1.38,0.82-1.93l4.4-4.41c0.55-0.55,1.39-0.83,2.22-0.83c0.27,0,0.81,0,1.1,0c21.75,6.61,24.78,7.44,45.43,13.78
	c1.38-1.38,2.48-2.48,3.58-3.58c6.34-6.88,10.74-11.57,15.43-15.14c5.77-4.14,11.56-6.89,15.96-6.89c1.38,0,2.48,0.27,3.32,0.83
	c0,0,0.27,0.27,0.55,0.55c0.27,0.28,0.27,0.55,0.27,0.55c0.55,0.83,0.83,1.93,0.83,3.31C-12.57,316.84-15.06,322.91-19.19,328.41z"
	/>
<g>
	
		<linearGradient id="SVGID_00000024701936217199966200000006906433177263386033_" gradientUnits="userSpaceOnUse" x1="32.2782" y1="708.6356" x2="194.9185" y2="614.7366">
		<stop  offset="0" style="stop-color:#BFA065"/>
		<stop  offset="0.24" style="stop-color:#EBCE6F"/>
		<stop  offset="0.52" style="stop-color:#FFFCAC"/>
		<stop  offset="1" style="stop-color:#BFA065"/>
	</linearGradient>
	<path style="fill:url(#SVGID_00000024701936217199966200000006906433177263386033_);" d="M152.57,644.62c0-2.43-0.73-4.8-2-6.51
		c-1.35-1.81-3.21-2.73-5.51-2.73c-0.21,0-0.42,0.01-0.64,0.02c-7.93,0.55-11.12,9.75-12.3,14.98h17.14
		C151.88,650.38,152.57,646.61,152.57,644.62z"/>
	
		<linearGradient id="SVGID_00000027566089693468120030000005293396973692058000_" gradientUnits="userSpaceOnUse" x1="44.8593" y1="730.4271" x2="207.4997" y2="636.5281">
		<stop  offset="0" style="stop-color:#BFA065"/>
		<stop  offset="0.24" style="stop-color:#EBCE6F"/>
		<stop  offset="0.52" style="stop-color:#FFFCAC"/>
		<stop  offset="1" style="stop-color:#BFA065"/>
	</linearGradient>
	<path style="fill:url(#SVGID_00000027566089693468120030000005293396973692058000_);" d="M181.15,609.7H71.21
		c-10.39,0-18.81,8.42-18.81,18.81v109.93c0,10.39,8.42,18.81,18.81,18.81h109.93c10.39,0,18.81-8.42,18.81-18.81V628.51
		C199.96,618.12,191.54,609.7,181.15,609.7z M96.39,634.21c2.57-3.45,6.39-5.35,10.74-5.35c0.36,0,0.72,0.01,1.09,0.04
		c11.42,0.79,16.06,11.63,17.87,18.62c1.81-6.99,6.45-17.83,17.87-18.62c0.37-0.03,0.73-0.04,1.09-0.04c4.35,0,8.17,1.9,10.74,5.35
		c2.1,2.81,3.3,6.6,3.3,10.41c0,5.12-2.03,9.13-5.27,11.04c-0.45,0.27-1.29,0.67-3.41,0.67c-2.31,0-40.38,0-48.94,0
		c-1.93,0-2.59-0.37-3.01-0.61c-3.3-1.89-5.37-5.93-5.37-11.1C93.09,640.81,94.29,637.02,96.39,634.21z M119.39,728.88H92
		c-2,0-3.62-1.62-3.62-3.62v-38.88c0-2,1.62-3.62,3.62-3.62h27.38V728.88z M119.39,678.4H87.05c-2,0-3.62-1.62-3.62-3.62v-11.35
		c0-2,1.62-3.62,3.62-3.62h32.35L119.39,678.4z M163.98,725.26c0,2-1.62,3.62-3.62,3.62h-27.38v-46.13h27.38
		c2,0,3.62,1.62,3.62,3.62V725.26z M168.93,674.78c0,2-1.62,3.62-3.62,3.62h-32.33l-0.08-18.6h32.41c2,0,3.62,1.62,3.62,3.62V674.78
		z"/>
	
		<linearGradient id="SVGID_00000151529946751146739370000001054021967479126162_" gradientUnits="userSpaceOnUse" x1="23.8907" y1="694.1078" x2="186.5311" y2="600.2089">
		<stop  offset="0" style="stop-color:#BFA065"/>
		<stop  offset="0.24" style="stop-color:#EBCE6F"/>
		<stop  offset="0.52" style="stop-color:#FFFCAC"/>
		<stop  offset="1" style="stop-color:#BFA065"/>
	</linearGradient>
	<path style="fill:url(#SVGID_00000151529946751146739370000001054021967479126162_);" d="M102.92,650.38h17.14
		c-1.18-5.24-4.37-14.43-12.3-14.98c-0.22-0.02-0.43-0.02-0.64-0.02c-2.31,0-4.16,0.92-5.51,2.73c-1.27,1.71-2,4.08-2,6.51
		C99.61,646.61,100.3,650.38,102.92,650.38z"/>
</g>
<g>
	
		<linearGradient id="SVGID_00000175321593554337630330000012658477705127636402_" gradientUnits="userSpaceOnUse" x1="23.743" y1="548.1815" x2="186.8732" y2="453.9998">
		<stop  offset="0" style="stop-color:#BFA065"/>
		<stop  offset="0.24" style="stop-color:#EBCE6F"/>
		<stop  offset="0.52" style="stop-color:#FFFCAC"/>
		<stop  offset="1" style="stop-color:#BFA065"/>
	</linearGradient>
	
		<rect x="65.83" y="485.25" style="fill:url(#SVGID_00000175321593554337630330000012658477705127636402_);" width="41.36" height="53.39"/>
	
		<linearGradient id="SVGID_00000062872277072175188800000003434212006935995032_" gradientUnits="userSpaceOnUse" x1="54.0463" y1="600.6693" x2="217.1765" y2="506.4875">
		<stop  offset="0" style="stop-color:#BFA065"/>
		<stop  offset="0.24" style="stop-color:#EBCE6F"/>
		<stop  offset="0.52" style="stop-color:#FFFCAC"/>
		<stop  offset="1" style="stop-color:#BFA065"/>
	</linearGradient>
	<path style="fill:url(#SVGID_00000062872277072175188800000003434212006935995032_);" d="M127.57,560.32h49.68
		c0.75,0,1.39-0.64,1.39-1.39v-30.11c0-0.75-0.64-1.39-1.39-1.39h-49.68c-0.75,0-1.39,0.64-1.39,1.39v30.11
		C126.18,559.69,126.82,560.32,127.57,560.32z"/>
	
		<linearGradient id="SVGID_00000127744834719187276200000006180010861252519312_" gradientUnits="userSpaceOnUse" x1="10.0994" y1="524.5498" x2="173.2297" y2="430.368">
		<stop  offset="0" style="stop-color:#BFA065"/>
		<stop  offset="0.24" style="stop-color:#EBCE6F"/>
		<stop  offset="0.52" style="stop-color:#FFFCAC"/>
		<stop  offset="1" style="stop-color:#BFA065"/>
	</linearGradient>
	<path style="fill:url(#SVGID_00000127744834719187276200000006180010861252519312_);" d="M78.08,482.11h16.86
		c0.92,0,1.67-0.75,1.67-1.67c0-0.92-0.75-1.67-1.67-1.67H78.08c-0.92,0-1.67,0.75-1.67,1.67
		C76.41,481.36,77.16,482.11,78.08,482.11z"/>
	
		<linearGradient id="SVGID_00000178170297644811024500000013399551112647095231_" gradientUnits="userSpaceOnUse" x1="38.2171" y1="573.2518" x2="201.3474" y2="479.0701">
		<stop  offset="0" style="stop-color:#BFA065"/>
		<stop  offset="0.24" style="stop-color:#EBCE6F"/>
		<stop  offset="0.52" style="stop-color:#FFFCAC"/>
		<stop  offset="1" style="stop-color:#BFA065"/>
	</linearGradient>
	<path style="fill:url(#SVGID_00000178170297644811024500000013399551112647095231_);" d="M86.51,541.94
		c-1.89,0-3.43,1.53-3.43,3.43c0,1.89,1.54,3.43,3.43,3.43c1.89,0,3.43-1.53,3.43-3.43C89.94,543.48,88.4,541.94,86.51,541.94z"/>
	
		<linearGradient id="SVGID_00000150061335105825072410000006909302472352175797_" gradientUnits="userSpaceOnUse" x1="36.1711" y1="569.7081" x2="199.3013" y2="475.5263">
		<stop  offset="0" style="stop-color:#BFA065"/>
		<stop  offset="0.24" style="stop-color:#EBCE6F"/>
		<stop  offset="0.52" style="stop-color:#FFFCAC"/>
		<stop  offset="1" style="stop-color:#BFA065"/>
	</linearGradient>
	<path style="fill:url(#SVGID_00000150061335105825072410000006909302472352175797_);" d="M172.87,448.62H62.6
		c-10.42,0-18.87,8.45-18.87,18.87v110.27c0,10.42,8.45,18.87,18.87,18.87h110.27c10.42,0,18.87-8.45,18.87-18.87V467.48
		C191.74,457.06,183.29,448.62,172.87,448.62z M113.07,544.32c0,3.95-3.22,7.17-7.17,7.17H67.13c-3.95,0-7.17-3.22-7.17-7.17v-60.96
		c0-5.21,4.41-9.62,9.62-9.62h33.87c5.67,0,9.62,3.76,9.62,9.13V544.32z M188.19,578.87c-0.82,1.31-2.32,2.07-4.11,2.07h-63.35
		c-1.79,0-3.28-0.75-4.11-2.07c-0.82-1.31-0.85-2.99-0.07-4.6l5.9-12.15c-0.58-0.93-0.92-2.02-0.92-3.19v-30.11
		c0-3.32,2.7-6.02,6.02-6.02h49.68c3.32,0,6.02,2.7,6.02,6.02v30.11c0,1.17-0.34,2.26-0.92,3.19l5.9,12.15
		C189.04,575.89,189.01,577.56,188.19,578.87z"/>
	
		<linearGradient id="SVGID_00000129199313830581376450000002849190942603504521_" gradientUnits="userSpaceOnUse" x1="66.2986" y1="621.8912" x2="229.4289" y2="527.7095">
		<stop  offset="0" style="stop-color:#BFA065"/>
		<stop  offset="0.24" style="stop-color:#EBCE6F"/>
		<stop  offset="0.52" style="stop-color:#FFFCAC"/>
		<stop  offset="1" style="stop-color:#BFA065"/>
	</linearGradient>
	<path style="fill:url(#SVGID_00000129199313830581376450000002849190942603504521_);" d="M178.51,564.82
		c-0.41,0.09-0.83,0.13-1.26,0.13h-49.68c-0.43,0-0.85-0.05-1.26-0.13l-5.58,11.48c0,0,0,0,0,0.01c0,0,0,0,0.01,0h63.35
		c0,0,0,0,0.01,0c0,0,0,0,0-0.01L178.51,564.82z"/>
</g>
<linearGradient id="SVGID_00000083789828541422312950000009866489126036929689_" gradientUnits="userSpaceOnUse" x1="-134.1296" y1="564.2015" x2="28.1018" y2="470.5387">
	<stop  offset="0" style="stop-color:#BFA065"/>
	<stop  offset="0.24" style="stop-color:#EBCE6F"/>
	<stop  offset="0.52" style="stop-color:#FFFCAC"/>
	<stop  offset="1" style="stop-color:#BFA065"/>
</linearGradient>
<path style="fill:url(#SVGID_00000083789828541422312950000009866489126036929689_);" d="M1.81,443.78h-109.66
	c-10.36,0-18.76,8.4-18.76,18.76V572.2c0,10.36,8.4,18.76,18.76,18.76H1.81c10.36,0,18.76-8.4,18.76-18.76V462.54
	C20.58,452.18,12.18,443.78,1.81,443.78z M-21.19,556.54c0,1.55-1.25,2.8-2.8,2.8h-21.51c-1.55,0-2.8-1.25-2.8-2.8v-22.21h-9.45
	v22.21c0,1.55-1.25,2.8-2.8,2.8h-21.51c-1.55,0-2.8-1.25-2.8-2.8v-34.63c0-1.55,1.25-2.8,2.8-2.8c1.55,0,2.8,1.25,2.8,2.8v31.83
	h15.91v-22.21c0-1.55,1.25-2.8,2.8-2.8h15.04c1.54,0,2.8,1.25,2.8,2.8v22.21h15.91v-31.83c0-1.55,1.25-2.8,2.8-2.8
	c1.55,0,2.8,1.25,2.8,2.8V556.54z M-7.56,521.75c-0.55,0.57-1.29,0.86-2.02,0.86c-0.7,0-1.39-0.26-1.94-0.78l-41.5-39.77
	l-41.49,39.77c-1.12,1.07-2.89,1.03-3.96-0.08c-1.07-1.12-1.03-2.89,0.08-3.96l43.43-41.62c1.08-1.04,2.79-1.04,3.87,0l18.68,17.9
	v-12.04c0-1.45,1.18-2.63,2.63-2.63c1.45,0,2.63,1.17,2.63,2.63v16.96c0,0.03-0.01,0.07-0.01,0.1l19.51,18.69
	C-6.53,518.87-6.49,520.64-7.56,521.75z"/>
<g>
	
		<linearGradient id="SVGID_00000011714175075784011610000015874625945593270971_" gradientUnits="userSpaceOnUse" x1="3.3048" y1="392.0074" x2="164.0991" y2="299.1743">
		<stop  offset="0" style="stop-color:#BFA065"/>
		<stop  offset="0.24" style="stop-color:#EBCE6F"/>
		<stop  offset="0.52" style="stop-color:#FFFCAC"/>
		<stop  offset="1" style="stop-color:#BFA065"/>
	</linearGradient>
	<path style="fill:url(#SVGID_00000011714175075784011610000015874625945593270971_);" d="M84.91,341.69
		c0.07,2.25,1.66,4.16,4.91,5.82v-10.67C85.55,338.5,84.88,340.24,84.91,341.69z"/>
	
		<linearGradient id="SVGID_00000101105612027591845210000005485553004738833809_" gradientUnits="userSpaceOnUse" x1="12.5404" y1="408.0042" x2="173.3347" y2="315.1711">
		<stop  offset="0" style="stop-color:#BFA065"/>
		<stop  offset="0.24" style="stop-color:#EBCE6F"/>
		<stop  offset="0.52" style="stop-color:#FFFCAC"/>
		<stop  offset="1" style="stop-color:#BFA065"/>
	</linearGradient>
	<path style="fill:url(#SVGID_00000101105612027591845210000005485553004738833809_);" d="M104.64,354
		c-1.25-0.17-2.19-1.26-2.19-2.52v-13.66c0-0.88,0.44-1.68,1.18-2.15c0.74-0.47,1.65-0.52,2.45-0.15c1.94,0.92,3.8,2.14,5.52,3.64
		c0.48,0.4,1.06,0.6,1.73,0.6c0.18,0,0.83-0.21,1.28-0.43l7.98-5.01c0.5-0.32,0.5-0.5,0.51-0.57c0-0.06,0-0.16-0.24-0.38
		c-0.07-0.06-0.13-0.13-0.2-0.2c-4.65-5.29-10.75-8.63-18.12-9.91c-1.22-0.21-2.11-1.27-2.11-2.5v-7.69c0-0.78-0.64-1.42-1.42-1.42
		h-7.25c-0.78,0-1.41,0.64-1.41,1.42v7.49c0,1.27-0.94,2.35-2.19,2.52c-3.49,0.49-6.68,1.38-9.45,2.65
		c-8.83,4.02-13.04,9.76-12.9,17.56c0.07,3.77,1.21,7.15,3.39,10.04c3.81,5.11,10.2,8.38,19,9.74c1.25,0.19,2.16,1.25,2.16,2.52
		v17.05c0,0.83-0.4,1.6-1.07,2.08c-0.67,0.48-1.54,0.6-2.32,0.32c-4.5-1.59-8.76-4.55-12.68-8.8l-0.15-0.17
		c-0.33-0.42-0.64-0.57-1.2-0.57c-0.05,0.01-0.58,0.17-1.08,0.39l-7.21,4.24c-0.61,0.35-0.61,0.56-0.61,0.67
		c0,0.08,0.01,0.2,0.22,0.45c0.06,0.07,0.12,0.14,0.17,0.22c1.77,2.47,4.2,4.89,7.21,7.18c4.85,3.73,10.42,6.11,16.56,7.09
		c1.24,0.2,2.14,1.25,2.14,2.51v6.73c0,0.77,0.63,1.41,1.41,1.41h7.25c0.78,0,1.42-0.63,1.42-1.41v-6.75c0-1.27,0.91-2.33,2.17-2.52
		c4.8-0.72,9.03-2.18,12.67-4.27c0.49-0.28,1-0.53,1.47-0.84c1.52-1,2.85-2.09,3.99-3.27c2.28-2.36,3.81-5.07,4.61-8.18
		c0.39-1.55,0.61-3.21,0.65-4.96c0.08-4.33-1.06-7.87-3.51-10.83C120.34,358.42,113.66,355.27,104.64,354z M92.85,349.66
		c0,0.87-0.43,1.67-1.17,2.14c-0.41,0.26-0.88,0.4-1.37,0.4c-0.37,0-0.73-0.08-1.07-0.23c-0.57-0.26-1.24-0.58-1.85-0.97
		c-3.62-2.21-5.46-5.37-5.5-9.41c-0.02-3.15,1.29-7.32,7.65-9.32c0.77-0.24,1.62-0.1,2.27,0.37c0.65,0.48,1.04,1.24,1.04,2.05
		V349.66z M107.91,383.71c-0.62,0.39-1.29,0.71-1.85,0.97c-0.34,0.15-0.7,0.23-1.07,0.23c-0.49,0-0.96-0.14-1.37-0.4
		c-0.74-0.47-1.17-1.27-1.17-2.14V367.4c0-0.81,0.39-1.57,1.04-2.05c0.65-0.48,1.5-0.62,2.27-0.37c6.36,2,7.67,6.17,7.65,9.32
		C113.37,378.33,111.52,381.5,107.91,383.71z"/>
	
		<linearGradient id="SVGID_00000147196360533849601360000005953891213855580330_" gradientUnits="userSpaceOnUse" x1="21.4366" y1="423.413" x2="182.2308" y2="330.5799">
		<stop  offset="0" style="stop-color:#BFA065"/>
		<stop  offset="0.24" style="stop-color:#EBCE6F"/>
		<stop  offset="0.52" style="stop-color:#FFFCAC"/>
		<stop  offset="1" style="stop-color:#BFA065"/>
	</linearGradient>
	<path style="fill:url(#SVGID_00000147196360533849601360000005953891213855580330_);" d="M105.47,369.55v10.67
		c3.25-1.66,4.84-3.57,4.91-5.82C110.42,372.95,109.75,371.2,105.47,369.55z"/>
	
		<linearGradient id="SVGID_00000082334848296412214460000002513755117670124175_" gradientUnits="userSpaceOnUse" x1="13.1215" y1="409.0107" x2="173.9158" y2="316.1776">
		<stop  offset="0" style="stop-color:#BFA065"/>
		<stop  offset="0.24" style="stop-color:#EBCE6F"/>
		<stop  offset="0.52" style="stop-color:#FFFCAC"/>
		<stop  offset="1" style="stop-color:#BFA065"/>
	</linearGradient>
	<path style="fill:url(#SVGID_00000082334848296412214460000002513755117670124175_);" d="M147.86,289.65H39.18
		c-10.27,0-18.6,8.33-18.6,18.6v108.69c0,10.27,8.33,18.6,18.6,18.6h108.69c10.27,0,18.6-8.33,18.6-18.6V308.25
		C166.46,297.98,158.13,289.65,147.86,289.65z M121.55,394.84c-4.01,2.63-8.72,4.49-14.01,5.52v4.6c0,3.58-2.92,6.49-6.51,6.49
		h-7.25c-3.59,0-6.5-2.91-6.5-6.49v-4.62c-6.15-1.29-11.77-3.87-16.71-7.67c-3.38-2.57-6.14-5.32-8.21-8.18
		c-0.89-1.03-1.38-2.26-1.4-3.62c-0.02-1.51,0.5-3.63,3.13-5.15l7.67-4.48c0.72-0.31,2.09-0.84,3.19-0.84c2.1,0,3.89,0.86,5.17,2.48
		c2.26,2.44,4.67,4.4,7.15,5.8v-10.96c-7.55-1.47-13.47-4.38-17.73-8.61c-0.86-0.86-1.68-1.75-2.4-2.73
		c-2.84-3.75-4.33-8.13-4.42-13c-0.18-9.91,5.16-17.4,15.87-22.28c2.62-1.2,5.53-2.11,8.68-2.7v-5.33c0-3.59,2.91-6.51,6.5-6.51
		h7.25c3.59,0,6.51,2.92,6.51,6.51v5.6c7.57,1.73,13.92,5.45,18.89,11.07c1.16,1.09,1.79,2.52,1.76,4.09
		c-0.02,1.37-0.54,3.32-2.88,4.8l-8.13,5.11c-0.1,0.06-0.2,0.11-0.3,0.16c-0.17,0.09-1.94,0.96-3.54,0.96c-0.01,0-0.02,0-0.03,0
		c-1.88-0.01-3.56-0.62-5-1.81c-0.26-0.22-0.52-0.43-0.77-0.64v6.91c0.71,0.13,1.39,0.29,2.08,0.44c8.19,1.8,14.51,5.26,18.78,10.35
		l0.01,0.01c3.22,3.89,4.79,8.66,4.68,14.18C132.91,382.98,129.03,389.9,121.55,394.84z"/>
</g>
<path class="st32" d="M-632.96,461.44c-1.65,0-2.74,1.09-2.74,2.89v39.97h-19.74v-16.2c0-1.43-1.09-2.89-2.45-2.89h-14.23
	c-1.65,0-3.03,1.45-3.03,2.89v16.2h-19.45v-38.53c0-1.79-1.36-2.89-2.74-2.89c-1.65,0-2.74,1.09-2.74,2.89v41.78
	c0,1.43,1.09,2.89,2.74,2.89h25.22c1.36,0,2.45-1.45,2.45-2.89v-16.56h8.78v16.56c0,1.43,1.36,2.89,3.01,2.89h24.93
	c1.36,0,2.74-1.45,2.74-2.89v-43.21C-630.22,462.54-631.61,461.44-632.96,461.44L-632.96,461.44z"/>
<path class="st33" d="M-797.34,409.55l-41.38-37.65c-2.34-2.13-5.93-2.13-8.27,0l-41.38,37.65c-2.5,2.27-2.66,6.14-0.39,8.64l0,0
	c1.21,1.31,2.89,1.99,4.54,1.99c1.49,0,2.98-0.53,4.15-1.6l37.22-33.89l37.24,33.89c2.5,2.27,6.39,2.11,8.66-0.39
	C-794.68,415.69-794.84,411.82-797.34,409.55L-797.34,409.55z"/>
<path class="st33" d="M-764.56,488.7l-41.38-37.65c-2.34-2.13-5.93-2.13-8.27,0l-41.38,37.65c-2.5,2.27-2.66,6.14-0.39,8.64l0,0
	c1.21,1.31,2.89,1.99,4.54,1.99c1.49,0,2.98-0.53,4.15-1.6l37.22-33.89l37.24,33.89c2.5,2.27,6.39,2.11,8.66-0.39
	C-761.9,494.84-762.06,490.97-764.56,488.7L-764.56,488.7z"/>
<path class="st33" d="M-842.86,499.26v38.31c0.02,1.44,0.96,2.36,1.74,2.8c0.8,0.46,1.67,0.66,2.61,0.66c20.88,0,35.95,0,56.85,0
	c0.94,0,1.81-0.21,2.61-0.66c0.78-0.44,1.69-1.35,1.74-2.8v-38.31l-32.79-29.81L-842.86,499.26z"/>
<linearGradient id="SVGID_00000103239320099481298430000017204539770072428425_" gradientUnits="userSpaceOnUse" x1="-631.6158" y1="508.2005" x2="-469.6457" y2="414.6884">
	<stop  offset="0" style="stop-color:#BFA065"/>
	<stop  offset="0.24" style="stop-color:#EBCE6F"/>
	<stop  offset="0.52" style="stop-color:#FFFCAC"/>
	<stop  offset="1" style="stop-color:#BFA065"/>
</linearGradient>
<path style="fill:url(#SVGID_00000103239320099481298430000017204539770072428425_);" d="M-495.89,387.97h-109.48
	c-10.35,0-18.73,8.39-18.73,18.73v109.48c0,10.35,8.39,18.73,18.73,18.73h109.48c10.35,0,18.73-8.39,18.73-18.73V406.7
	C-477.16,396.36-485.54,387.97-495.89,387.97z M-517.85,495.74c-0.05,1.44-0.96,2.36-1.74,2.8c-0.8,0.46-1.67,0.66-2.61,0.66
	c-6,0-15.98,0-16.98,0c-0.14,0-0.07-17.81-0.07-17.81c-2.03,0-13-0.1-20.33-0.1c0,0,0.06,17.91-0.17,17.91c-1.39,0-13.87,0-19.3,0
	c-0.94,0-1.81-0.21-2.61-0.66c-0.78-0.44-1.72-1.35-1.74-2.8v-38.31l32.77-29.81l32.79,29.81V495.74z M-503.38,463.16
	c-0.53,0.31-1.09,0.63-1.92,0.63c-0.82,0-1.65-0.31-1.91-0.63l-43.29-39.94l-43.55,39.31c-1.09,1.25-2.74,1.25-3.83,0
	c-0.56-0.29-0.82-0.92-0.82-1.54c0-0.6,0.27-1.23,0.82-1.86l12.54-11.43v-23.52c0-1.56,1.14-2.86,2.54-2.86
	c1.38,0,2.52,1.29,2.52,2.86v18.91l27.6-25.15c0.53-0.62,1.36-0.92,2.18-0.92c0.56,0,1.12,0.29,1.65,0.92
	c16.15,14.56,27.38,24.78,45.47,41.5C-502.28,460.38-502.28,462.24-503.38,463.16z"/>
<linearGradient id="SVGID_00000084509315499065137270000015571430898654305456_" gradientUnits="userSpaceOnUse" x1="-611.2257" y1="250.9029" x2="-545.1201" y2="212.7375">
	<stop  offset="0" style="stop-color:#BFA065"/>
	<stop  offset="0.24" style="stop-color:#EBCE6F"/>
	<stop  offset="0.52" style="stop-color:#FFFCAC"/>
	<stop  offset="1" style="stop-color:#BFA065"/>
</linearGradient>
<path style="fill:url(#SVGID_00000084509315499065137270000015571430898654305456_);" d="M-543.25,254.29
	c-0.05,1.44-0.96,2.36-1.74,2.8c-0.8,0.46-1.67,0.66-2.61,0.66c-6,0-15.98,0-16.98,0c-0.14,0-0.07-17.81-0.07-17.81
	c-2.03,0-13-0.1-20.33-0.1c0,0,0.06,17.91-0.17,17.91c-1.39,0-13.87,0-19.3,0c-0.94,0-1.81-0.21-2.61-0.66
	c-0.78-0.44-1.72-1.35-1.74-2.8v-38.31l32.77-29.81l32.79,29.81V254.29z"/>
<linearGradient id="SVGID_00000030474984660913008590000002112568705506726077_" gradientUnits="userSpaceOnUse" x1="-618.6335" y1="229.5693" x2="-546.1199" y2="187.7042">
	<stop  offset="0" style="stop-color:#BFA065"/>
	<stop  offset="0.24" style="stop-color:#EBCE6F"/>
	<stop  offset="0.52" style="stop-color:#FFFCAC"/>
	<stop  offset="1" style="stop-color:#BFA065"/>
</linearGradient>
<path style="fill:url(#SVGID_00000030474984660913008590000002112568705506726077_);" d="M-528.78,221.71
	c-0.53,0.31-1.09,0.63-1.92,0.63c-0.82,0-1.65-0.31-1.91-0.63l-43.29-39.94l-43.55,39.31c-1.09,1.25-2.74,1.25-3.83,0
	c-0.56-0.29-0.82-0.92-0.82-1.54c0-0.6,0.27-1.23,0.82-1.86l12.54-11.43v-23.52c0-1.56,1.14-2.86,2.54-2.86
	c1.38,0,2.52,1.29,2.52,2.86v18.91l27.6-25.15c0.53-0.62,1.36-0.92,2.18-0.92c0.56,0,1.12,0.29,1.65,0.92
	c16.15,14.56,27.38,24.78,45.47,41.5C-527.68,218.94-527.68,220.79-528.78,221.71z"/>
<path class="st32" d="M-427.3,400.28c-0.53-0.62-1.09-0.92-1.65-0.92c-0.82,0-1.65,0.29-2.18,0.92l-27.6,25.15v-18.91
	c0-1.56-1.14-2.86-2.52-2.86c-1.41,0-2.54,1.29-2.54,2.86v23.52l-12.54,11.43c-0.56,0.63-0.82,1.25-0.82,1.86
	c0,0.63,0.27,1.25,0.82,1.54c1.09,1.25,2.74,1.25,3.83,0l43.55-39.31l43.29,39.94c0.27,0.31,1.09,0.63,1.91,0.63
	c0.82,0,1.38-0.31,1.92-0.63c1.09-0.92,1.09-2.77,0-3.71C-399.92,425.05-411.15,414.83-427.3,400.28z"/>
<path class="st33" d="M-461.86,439.76v38.31c0.02,1.44,0.96,2.36,1.74,2.8c0.8,0.46,1.67,0.66,2.61,0.66c20.88,0,35.95,0,56.85,0
	c0.94,0,1.81-0.21,2.61-0.66c0.78-0.44,1.69-1.35,1.74-2.8v-38.31l-32.79-29.81L-461.86,439.76z M-415.67,436.73v18.77h-26.93
	v-18.77v-1.82h26.93V436.73z"/>
<rect x="-442.59" y="434.91" class="st33" width="26.93" height="1.82"/>
<rect x="-442.59" y="436.73" class="st33" width="26.93" height="18.77"/>
<rect x="-438.51" y="455.99" class="st33" width="18.77" height="26.93"/>
<linearGradient id="SVGID_00000055665424546913849610000002110990735910073021_" gradientUnits="userSpaceOnUse" x1="-5.9851" y1="121.7561" x2="155.9851" y2="28.244">
	<stop  offset="0" style="stop-color:#BFA065"/>
	<stop  offset="0.24" style="stop-color:#EBCE6F"/>
	<stop  offset="0.52" style="stop-color:#FFFCAC"/>
	<stop  offset="1" style="stop-color:#BFA065"/>
</linearGradient>
<path style="display:none;fill:url(#SVGID_00000055665424546913849610000002110990735910073021_);" d="M129.74,1.53H20.26
	C9.91,1.53,1.53,9.91,1.53,20.26v109.48c0,10.35,8.39,18.73,18.73,18.73h109.48c10.35,0,18.73-8.39,18.73-18.73V20.26
	C148.47,9.91,140.09,1.53,129.74,1.53z M110.91,81.72v40.23H80.88V95.13H68.92v26.82H39.09V81.72H27.1l47.89-53.66l47.91,53.66
	H110.91z"/>
<linearGradient id="SVGID_00000170957830410740847390000011778893772645054900_" gradientUnits="userSpaceOnUse" x1="-641.4801" y1="-37.853" x2="-561.202" y2="-84.2008">
	<stop  offset="0" style="stop-color:#BFA065"/>
	<stop  offset="0.24" style="stop-color:#EBCE6F"/>
	<stop  offset="0.52" style="stop-color:#FFFCAC"/>
	<stop  offset="1" style="stop-color:#BFA065"/>
</linearGradient>
<polygon style="fill:url(#SVGID_00000170957830410740847390000011778893772645054900_);" points="-562.79,-66.2 -562.79,-25.97 
	-592.82,-25.97 -592.82,-52.79 -604.78,-52.79 -604.78,-25.97 -634.62,-25.97 -634.62,-66.2 -646.6,-66.2 -598.72,-119.86 
	-550.81,-66.2 "/>
<polygon class="st32" points="-631.31,111.08 -619.33,111.08 -619.33,151.31 -589.49,151.31 -589.49,124.49 -577.53,124.49 
	-577.53,151.31 -547.5,151.31 -547.5,111.08 -535.51,111.08 -583.42,57.42 "/>
<linearGradient id="SVGID_00000101800215079843580950000016201424698933456770_" gradientUnits="userSpaceOnUse" x1="-5.9851" y1="121.7561" x2="155.9851" y2="28.244">
	<stop  offset="0" style="stop-color:#BFA065"/>
	<stop  offset="0.24" style="stop-color:#EBCE6F"/>
	<stop  offset="0.52" style="stop-color:#FFFCAC"/>
	<stop  offset="1" style="stop-color:#BFA065"/>
</linearGradient>
<path style="display:none;fill:url(#SVGID_00000101800215079843580950000016201424698933456770_);" d="M129.74,1.53H20.26
	C9.91,1.53,1.53,9.91,1.53,20.26v109.48c0,10.35,8.39,18.73,18.73,18.73h109.48c10.35,0,18.73-8.39,18.73-18.73V20.26
	C148.47,9.91,140.09,1.53,129.74,1.53z M97.39,96c-1.12,2.8-2.75,5.28-4.83,7.35c-2.08,2.08-4.55,3.71-7.47,5
	c-2.92,1.23-6.18,1.96-9.71,2.31l-1.18,13.37c0,0.34-0.11,0.56-0.23,0.84c-0.11,0.28-0.4,0.45-0.73,0.62
	c-0.34,0.17-0.85,0.34-1.4,0.4c-0.62,0.11-1.41,0.17-2.31,0.17c-1.18,0-2.13-0.05-2.86-0.17c-0.67-0.17-1.24-0.34-1.63-0.56
	c-0.45-0.22-0.73-0.5-0.84-0.9c-0.11-0.34-0.17-0.78-0.05-1.23l1.18-12.64c-1.63-0.23-3.09-0.56-4.5-0.96
	c-1.41-0.4-2.7-0.78-3.82-1.29c-1.18-0.46-2.14-0.96-2.98-1.41c-0.84-0.5-1.46-1.01-1.85-1.46c-0.45-0.5-0.73-1.18-0.9-2.13
	c-0.22-0.9-0.34-2.31-0.34-4.16c0-1.35,0.06-2.53,0.11-3.43c0.11-0.96,0.22-1.63,0.39-2.14c0.22-0.5,0.45-0.84,0.73-1.07
	c0.28-0.17,0.56-0.23,0.95-0.23c0.45,0,1.18,0.29,2.08,0.91c0.96,0.62,2.14,1.35,3.54,2.07c1.46,0.74,3.2,1.41,5.23,2.02
	c2.08,0.62,4.43,0.95,7.25,0.95c4.32,0,7.53-0.89,9.6-2.69c2.08-1.8,3.15-4.22,3.15-7.25c0-1.97-0.45-3.6-1.35-4.89
	c-0.9-1.29-2.14-2.41-3.6-3.37c-1.51-0.95-3.26-1.86-5.17-2.58c-1.91-0.79-3.82-1.64-5.84-2.47c-1.97-0.84-3.94-1.91-5.85-3.04
	c-1.85-1.17-3.59-2.58-5.11-4.26c-1.52-1.74-2.7-3.82-3.6-6.18c-0.9-2.42-1.35-5.39-1.35-8.82c0-3.09,0.45-5.9,1.35-8.49
	c0.96-2.53,2.31-4.77,4.05-6.68c1.74-1.91,3.88-3.43,6.4-4.61c2.53-1.18,5.4-1.96,8.6-2.41l1.13-12.47
	c0.05-0.34,0.11-0.62,0.28-0.84c0.11-0.22,0.34-0.45,0.68-0.62c0.39-0.17,0.84-0.34,1.46-0.4c0.56-0.11,1.35-0.11,2.3-0.11
	c1.13,0,2.08,0.06,2.81,0.17c0.79,0.11,1.35,0.27,1.74,0.5c0.45,0.23,0.67,0.56,0.79,0.9c0.11,0.4,0.17,0.78,0.17,1.29l-1.13,11.74
	c1.07,0.17,2.14,0.39,3.26,0.67c1.18,0.28,2.25,0.62,3.26,1.01c0.96,0.4,1.86,0.84,2.7,1.29c0.78,0.4,1.35,0.84,1.69,1.18
	c0.28,0.34,0.56,0.67,0.73,1.07c0.17,0.34,0.28,0.79,0.39,1.29c0.06,0.5,0.11,1.12,0.17,1.85c0.05,0.73,0.05,1.58,0.05,2.47
	c0,1.29,0,2.36-0.05,3.2c-0.06,0.84-0.17,1.45-0.34,1.91c-0.11,0.39-0.28,0.67-0.5,0.84c-0.17,0.17-0.4,0.23-0.68,0.23
	c-0.45,0-1.18-0.28-2.08-0.84c-0.9-0.51-2.08-1.13-3.43-1.68c-1.35-0.62-2.87-1.24-4.66-1.74c-1.74-0.56-3.65-0.84-5.79-0.84
	c-1.91,0-3.54,0.22-4.89,0.62c-1.4,0.46-2.47,1.01-3.32,1.74c-0.9,0.73-1.52,1.63-1.91,2.7c-0.39,1.01-0.62,2.14-0.62,3.37
	c0,1.96,0.45,3.59,1.4,4.89c0.9,1.35,2.14,2.47,3.65,3.43c1.58,0.96,3.32,1.86,5.23,2.64c1.96,0.78,3.93,1.58,5.9,2.47
	c2.02,0.84,3.99,1.86,5.95,2.98c1.91,1.18,3.65,2.59,5.17,4.27c1.52,1.69,2.75,3.71,3.65,6.07c0.96,2.41,1.4,5.23,1.4,8.6
	C99.07,89.93,98.51,93.13,97.39,96z"/>
<path class="st32" d="M-257.82-64.24c-1.52-1.68-3.26-3.09-5.17-4.27c-1.97-1.12-3.93-2.13-5.95-2.98c-1.97-0.89-3.93-1.68-5.9-2.47
	c-1.91-0.78-3.65-1.68-5.23-2.64c-1.52-0.95-2.75-2.08-3.65-3.43c-0.95-1.29-1.4-2.92-1.4-4.89c0-1.23,0.22-2.36,0.62-3.37
	c0.39-1.07,1.01-1.96,1.91-2.7c0.84-0.73,1.91-1.29,3.32-1.74c1.35-0.4,2.98-0.62,4.89-0.62c2.14,0,4.05,0.28,5.79,0.84
	c1.79,0.5,3.31,1.12,4.66,1.74c1.35,0.56,2.53,1.17,3.43,1.68c0.9,0.56,1.63,0.84,2.08,0.84c0.28,0,0.51-0.06,0.68-0.23
	c0.22-0.17,0.39-0.45,0.5-0.84c0.17-0.46,0.28-1.07,0.34-1.91c0.05-0.84,0.05-1.92,0.05-3.2c0-0.9,0-1.74-0.05-2.47
	c-0.06-0.73-0.11-1.35-0.17-1.85c-0.11-0.5-0.22-0.96-0.39-1.29c-0.16-0.4-0.45-0.73-0.73-1.07c-0.34-0.34-0.9-0.78-1.69-1.18
	c-0.84-0.45-1.74-0.9-2.7-1.29c-1.01-0.4-2.08-0.73-3.26-1.01c-1.13-0.28-2.19-0.5-3.26-0.67l1.13-11.74c0-0.51-0.06-0.9-0.17-1.29
	c-0.11-0.34-0.34-0.67-0.79-0.9c-0.4-0.23-0.96-0.39-1.74-0.5c-0.73-0.11-1.68-0.17-2.81-0.17c-0.95,0-1.74,0-2.3,0.11
	c-0.62,0.06-1.07,0.23-1.46,0.4c-0.34,0.17-0.56,0.4-0.68,0.62c-0.17,0.22-0.22,0.5-0.28,0.84l-1.13,12.47
	c-3.2,0.45-6.07,1.23-8.6,2.41c-2.53,1.18-4.66,2.7-6.4,4.61c-1.74,1.91-3.09,4.16-4.05,6.68c-0.9,2.59-1.35,5.4-1.35,8.49
	c0,3.43,0.45,6.4,1.35,8.82c0.9,2.36,2.08,4.44,3.6,6.18c1.52,1.68,3.26,3.09,5.11,4.26c1.91,1.13,3.88,2.19,5.85,3.04
	c2.02,0.84,3.93,1.68,5.84,2.47c1.91,0.72,3.65,1.63,5.17,2.58c1.46,0.96,2.7,2.08,3.6,3.37c0.9,1.29,1.35,2.92,1.35,4.89
	c0,3.03-1.07,5.45-3.15,7.25c-2.08,1.8-5.28,2.69-9.6,2.69c-2.81,0-5.17-0.33-7.25-0.95c-2.02-0.62-3.77-1.29-5.23-2.02
	c-1.4-0.72-2.58-1.45-3.54-2.07c-0.9-0.62-1.63-0.91-2.08-0.91c-0.4,0-0.67,0.06-0.95,0.23c-0.28,0.22-0.51,0.56-0.73,1.07
	c-0.17,0.51-0.28,1.18-0.39,2.14c-0.05,0.9-0.11,2.08-0.11,3.43c0,1.85,0.11,3.26,0.34,4.16c0.17,0.95,0.45,1.63,0.9,2.13
	c0.39,0.45,1.01,0.96,1.85,1.46c0.84,0.45,1.8,0.95,2.98,1.41c1.12,0.5,2.41,0.89,3.82,1.29c1.4,0.4,2.86,0.73,4.5,0.96l-1.18,12.64
	c-0.11,0.45-0.06,0.9,0.05,1.23c0.11,0.4,0.4,0.68,0.84,0.9c0.39,0.23,0.96,0.4,1.63,0.56c0.73,0.11,1.68,0.17,2.86,0.17
	c0.9,0,1.69-0.05,2.31-0.17c0.56-0.05,1.07-0.22,1.4-0.4c0.33-0.17,0.62-0.34,0.73-0.62c0.11-0.27,0.23-0.5,0.23-0.84l1.18-13.37
	c3.54-0.34,6.79-1.07,9.71-2.31c2.92-1.29,5.39-2.92,7.47-5c2.08-2.08,3.71-4.55,4.83-7.35c1.13-2.87,1.69-6.07,1.69-9.67
	c0-3.37-0.45-6.18-1.4-8.6C-255.07-60.54-256.31-62.55-257.82-64.24z"/>
<g>
	
		<linearGradient id="SVGID_00000009566989850845877060000008720522395119442589_" gradientUnits="userSpaceOnUse" x1="-17.5128" y1="100.4314" x2="143.2815" y2="7.5982">
		<stop  offset="0" style="stop-color:#BFA065"/>
		<stop  offset="0.24" style="stop-color:#EBCE6F"/>
		<stop  offset="0.52" style="stop-color:#FFFCAC"/>
		<stop  offset="1" style="stop-color:#BFA065"/>
	</linearGradient>
	<path style="fill:url(#SVGID_00000009566989850845877060000008720522395119442589_);" d="M66.2,43.62
		c-0.65-0.48-1.5-0.62-2.27-0.37c-6.36,2-7.67,6.17-7.65,9.32c0.03,4.04,1.88,7.2,5.5,9.41c0.62,0.39,1.29,0.71,1.85,0.97
		c0.34,0.15,0.7,0.23,1.07,0.23c0.49,0,0.96-0.14,1.37-0.4c0.74-0.47,1.17-1.27,1.17-2.14V45.67C67.24,44.86,66.86,44.09,66.2,43.62
		z"/>
	
		<linearGradient id="SVGID_00000134227396959471503920000007874675367386729652_" gradientUnits="userSpaceOnUse" x1="0.4209" y1="131.494" x2="161.2152" y2="38.6608">
		<stop  offset="0" style="stop-color:#BFA065"/>
		<stop  offset="0.24" style="stop-color:#EBCE6F"/>
		<stop  offset="0.52" style="stop-color:#FFFCAC"/>
		<stop  offset="1" style="stop-color:#BFA065"/>
	</linearGradient>
	<path style="fill:url(#SVGID_00000134227396959471503920000007874675367386729652_);" d="M80.15,75.95
		c-0.77-0.24-1.62-0.1-2.27,0.37c-0.65,0.48-1.04,1.24-1.04,2.05v14.96c0,0.87,0.43,1.67,1.17,2.14c0.41,0.26,0.88,0.4,1.37,0.4
		c0.37,0,0.73-0.08,1.07-0.23c0.57-0.26,1.24-0.58,1.85-0.97c3.62-2.21,5.46-5.37,5.5-9.41C87.82,82.12,86.51,77.95,80.15,75.95z"/>
	
		<linearGradient id="SVGID_00000114050132851143687920000017328783579110077861_" gradientUnits="userSpaceOnUse" x1="-5.3971" y1="121.4165" x2="155.3971" y2="28.5834">
		<stop  offset="0" style="stop-color:#BFA065"/>
		<stop  offset="0.24" style="stop-color:#EBCE6F"/>
		<stop  offset="0.52" style="stop-color:#FFFCAC"/>
		<stop  offset="1" style="stop-color:#BFA065"/>
	</linearGradient>
	<path style="fill:url(#SVGID_00000114050132851143687920000017328783579110077861_);" d="M129.34,2.06H20.66
		c-10.27,0-18.6,8.33-18.6,18.6v108.69c0,10.27,8.33,18.6,18.6,18.6h108.69c10.27,0,18.6-8.33,18.6-18.6V20.66
		C147.94,10.39,139.61,2.06,129.34,2.06z M101.75,90.12c-0.8,3.11-2.32,5.82-4.61,8.18c-1.14,1.18-2.46,2.27-3.99,3.27
		c-0.47,0.31-0.98,0.56-1.47,0.84c-3.64,2.1-7.87,3.56-12.67,4.27c-1.26,0.19-2.17,1.25-2.17,2.52v6.75c0,0.77-0.64,1.41-1.42,1.41
		h-7.25c-0.78,0-1.41-0.63-1.41-1.41v-6.73c0-1.26-0.9-2.31-2.14-2.51c-6.14-0.98-11.71-3.36-16.56-7.09
		c-3.01-2.29-5.45-4.7-7.21-7.18c-0.05-0.07-0.11-0.15-0.17-0.22c-0.21-0.24-0.22-0.37-0.22-0.45c0-0.11-0.01-0.32,0.61-0.67
		l7.21-4.24c0.51-0.21,1.03-0.37,1.08-0.39c0.56,0,0.87,0.15,1.2,0.57l0.15,0.17c3.91,4.25,8.18,7.21,12.68,8.8
		c0.77,0.28,1.64,0.15,2.32-0.32c0.67-0.47,1.07-1.25,1.07-2.08V76.55c0-1.26-0.9-2.32-2.16-2.52c-8.8-1.36-15.19-4.63-19-9.74
		c-2.18-2.89-3.32-6.27-3.39-10.04c-0.15-7.8,4.07-13.54,12.9-17.56c2.78-1.27,5.96-2.16,9.45-2.65c1.25-0.17,2.2-1.26,2.2-2.52
		v-7.49c0-0.78,0.63-1.42,1.41-1.42h7.25c0.78,0,1.42,0.64,1.42,1.42v7.69c0,1.24,0.88,2.29,2.11,2.5
		c7.37,1.28,13.46,4.62,18.12,9.91c0.06,0.07,0.13,0.13,0.2,0.2c0.24,0.22,0.24,0.31,0.24,0.38C97.5,44.8,97.5,44.98,97,45.29
		l-7.98,5.01c-0.45,0.22-1.1,0.43-1.28,0.43c-0.68,0-1.25-0.2-1.73-0.6c-1.72-1.5-3.58-2.72-5.52-3.64
		c-0.8-0.37-1.71-0.31-2.45,0.15c-0.74,0.47-1.18,1.27-1.18,2.15v13.66c0,1.26,0.94,2.34,2.19,2.52c9.02,1.26,15.7,4.41,19.85,9.35
		c2.45,2.96,3.59,6.5,3.51,10.83C102.36,86.91,102.14,88.56,101.75,90.12z"/>
</g>
<linearGradient id="SVGID_00000072986861274415844910000014186379294378870671_" gradientUnits="userSpaceOnUse" x1="-326.8831" y1="102.3796" x2="-166.0888" y2="9.5465">
	<stop  offset="0" style="stop-color:#BFA065"/>
	<stop  offset="0.24" style="stop-color:#EBCE6F"/>
	<stop  offset="0.52" style="stop-color:#FFFCAC"/>
	<stop  offset="1" style="stop-color:#BFA065"/>
</linearGradient>
<path style="fill:url(#SVGID_00000072986861274415844910000014186379294378870671_);" d="M-239.48,51.09
	c-1.25-0.17-2.19-1.26-2.19-2.52V34.91c0-0.88,0.44-1.68,1.18-2.15c0.74-0.47,1.65-0.52,2.45-0.15c1.94,0.92,3.8,2.14,5.52,3.64
	c0.48,0.4,1.06,0.6,1.73,0.6c0.18,0,0.83-0.21,1.28-0.43l7.98-5.01c0.5-0.32,0.5-0.5,0.51-0.57c0-0.06,0-0.16-0.24-0.38
	c-0.07-0.06-0.13-0.13-0.2-0.2c-4.65-5.29-10.75-8.63-18.12-9.91c-1.22-0.21-2.11-1.27-2.11-2.5v-7.69c0-0.78-0.64-1.42-1.42-1.42
	h-7.25c-0.78,0-1.41,0.64-1.41,1.42v7.49c0,1.27-0.94,2.35-2.2,2.52c-3.49,0.49-6.68,1.38-9.45,2.65
	c-8.83,4.02-13.04,9.76-12.9,17.56c0.07,3.77,1.21,7.15,3.39,10.04c3.81,5.11,10.2,8.38,19,9.74c1.25,0.19,2.16,1.25,2.16,2.52
	v17.05c0,0.83-0.4,1.6-1.07,2.08c-0.67,0.48-1.54,0.6-2.32,0.32c-4.5-1.59-8.76-4.55-12.68-8.8l-0.15-0.17
	c-0.33-0.42-0.64-0.57-1.2-0.57c-0.05,0.01-0.58,0.17-1.08,0.39l-7.21,4.24c-0.61,0.35-0.61,0.56-0.61,0.67
	c0,0.08,0.01,0.2,0.22,0.45c0.06,0.07,0.12,0.14,0.17,0.22c1.77,2.47,4.2,4.89,7.21,7.18c4.85,3.73,10.42,6.11,16.56,7.09
	c1.24,0.2,2.14,1.25,2.14,2.51v6.73c0,0.77,0.63,1.41,1.41,1.41h7.25c0.78,0,1.42-0.63,1.42-1.41V95.3c0-1.27,0.91-2.33,2.17-2.52
	c4.8-0.72,9.03-2.18,12.67-4.27c0.49-0.28,1-0.53,1.47-0.84c1.52-1,2.85-2.09,3.99-3.27c2.28-2.36,3.81-5.07,4.61-8.18
	c0.39-1.55,0.61-3.21,0.65-4.96c0.08-4.33-1.06-7.87-3.51-10.83C-223.77,55.5-230.45,52.35-239.48,51.09z M-251.27,46.74
	c0,0.87-0.43,1.67-1.17,2.14c-0.41,0.26-0.88,0.4-1.37,0.4c-0.37,0-0.73-0.08-1.07-0.23c-0.57-0.26-1.24-0.58-1.85-0.97
	c-3.62-2.21-5.46-5.37-5.5-9.41c-0.02-3.15,1.29-7.32,7.65-9.32c0.77-0.24,1.62-0.1,2.27,0.37c0.65,0.48,1.04,1.24,1.04,2.05V46.74z
	 M-236.21,80.79c-0.62,0.39-1.29,0.71-1.85,0.97c-0.34,0.15-0.7,0.23-1.07,0.23c-0.49,0-0.96-0.14-1.37-0.4
	c-0.74-0.47-1.17-1.27-1.17-2.14V64.49c0-0.81,0.39-1.57,1.04-2.05c0.65-0.48,1.5-0.62,2.27-0.37c6.36,2,7.67,6.17,7.65,9.32
	C-230.75,75.42-232.59,78.58-236.21,80.79z"/>
<linearGradient id="SVGID_00000146474020996442864900000011844914855901675934_" gradientUnits="userSpaceOnUse" x1="-331.5754" y1="154.6166" x2="-170.7812" y2="61.7835">
	<stop  offset="0" style="stop-color:#BFA065"/>
	<stop  offset="0.24" style="stop-color:#EBCE6F"/>
	<stop  offset="0.52" style="stop-color:#FFFCAC"/>
	<stop  offset="1" style="stop-color:#BFA065"/>
</linearGradient>
<path style="fill:url(#SVGID_00000146474020996442864900000011844914855901675934_);" d="M-239.48,100.62
	c-1.25-0.17-2.19-1.26-2.19-2.52V84.44c0-0.88,0.44-1.68,1.18-2.15c0.74-0.47,1.65-0.52,2.45-0.15c1.94,0.92,3.8,2.14,5.52,3.64
	c0.48,0.4,1.06,0.6,1.73,0.6c0.18,0,0.83-0.21,1.28-0.43l7.98-5.01c0.5-0.32,0.5-0.5,0.51-0.57c0-0.06,0-0.16-0.24-0.38
	c-0.07-0.06-0.13-0.13-0.2-0.2c-4.65-5.29-10.75-8.63-18.12-9.91c-1.22-0.21-2.11-1.27-2.11-2.5v-7.69c0-0.78-0.64-1.42-1.42-1.42
	h-7.25c-0.78,0-1.41,0.64-1.41,1.42v7.49c0,1.27-0.94,2.35-2.2,2.52c-3.49,0.49-6.68,1.38-9.45,2.65
	c-8.83,4.02-13.04,9.76-12.9,17.56c0.07,3.77,1.21,7.15,3.39,10.04c3.81,5.11,10.2,8.38,19,9.74c1.25,0.19,2.16,1.25,2.16,2.52
	v17.05c0,0.83-0.4,1.6-1.07,2.08c-0.67,0.48-1.54,0.6-2.32,0.32c-4.5-1.59-8.76-4.55-12.68-8.8l-0.15-0.17
	c-0.33-0.42-0.64-0.57-1.2-0.57c-0.05,0.01-0.58,0.17-1.08,0.39l-7.21,4.24c-0.61,0.35-0.61,0.56-0.61,0.67
	c0,0.08,0.01,0.2,0.22,0.45c0.06,0.07,0.12,0.14,0.17,0.22c1.77,2.47,4.2,4.89,7.21,7.18c4.85,3.73,10.42,6.11,16.56,7.09
	c1.24,0.2,2.14,1.25,2.14,2.51v6.73c0,0.77,0.63,1.41,1.41,1.41h7.25c0.78,0,1.42-0.63,1.42-1.41v-6.75c0-1.27,0.91-2.33,2.17-2.52
	c4.8-0.72,9.03-2.18,12.67-4.27c0.49-0.28,1-0.53,1.47-0.84c1.52-1,2.85-2.09,3.99-3.27c2.28-2.36,3.81-5.07,4.61-8.18
	c0.39-1.55,0.61-3.21,0.65-4.96c0.08-4.33-1.06-7.87-3.51-10.83C-223.77,105.03-230.45,101.88-239.48,100.62z M-251.27,96.27
	c0,0.87-0.43,1.67-1.17,2.14c-0.41,0.26-0.88,0.4-1.37,0.4c-0.37,0-0.73-0.08-1.07-0.23c-0.57-0.26-1.24-0.58-1.85-0.97
	c-3.62-2.21-5.46-5.37-5.5-9.41c-0.02-3.15,1.29-7.32,7.65-9.32c0.77-0.24,1.62-0.1,2.27,0.37c0.65,0.48,1.04,1.24,1.04,2.05V96.27z
	 M-236.21,130.32c-0.62,0.39-1.29,0.71-1.85,0.97c-0.34,0.15-0.7,0.23-1.07,0.23c-0.49,0-0.96-0.14-1.37-0.4
	c-0.74-0.47-1.17-1.27-1.17-2.14v-14.96c0-0.81,0.39-1.57,1.04-2.05c0.65-0.48,1.5-0.62,2.27-0.37c6.36,2,7.67,6.17,7.65,9.32
	C-230.75,124.95-232.59,128.11-236.21,130.32z"/>
</svg>
