<svg width="22" height="22" viewBox="0 0 22 22" fill="none" xmlns="http://www.w3.org/2000/svg">
<path d="M10.9759 21.992C8.02334 21.992 5.06273 22 2.11014 21.992C0.946754 21.984 0 21.0051 0 19.8417C0 14.0088 0 8.17578 0 2.35084C0 0.938731 0.938731 0 2.33479 0C8.12764 0 13.9205 0.00802334 19.7133 0.00802334C21.0613 0.00802334 21.992 0.930707 22 2.27061C22.008 8.03136 22.008 13.8001 22.008 19.5609C22.008 21.1255 21.1255 22 19.5689 22C18.9832 22 18.3895 21.992 17.8038 21.992C15.5252 21.992 13.2465 21.992 10.9759 21.992ZM8.99416 16.7768C12.2436 13.5354 15.4931 10.2939 18.7425 7.05252C18.1247 6.44274 17.4829 5.8089 16.7848 5.11889C14.2093 7.70241 11.6258 10.2859 9.00219 12.9256C7.71043 11.6258 6.44274 10.3501 5.23122 9.13859C4.55726 9.7965 3.90737 10.4384 3.25748 11.0722C5.16703 12.9657 7.10066 14.8913 8.99416 16.7768Z" fill="#EBCE6F"/>
</svg>
