<svg id="Layer_1" data-name="Layer 1" xmlns="http://www.w3.org/2000/svg" xmlns:xlink="http://www.w3.org/1999/xlink" viewBox="0 0 512 512"><defs><style>.cls-1{fill:url(#linear-gradient);}.cls-2{fill:url(#New_Gradient_Swatch);}</style><linearGradient id="linear-gradient" x1="0.5" y1="256" x2="511.5" y2="256" gradientUnits="userSpaceOnUse"><stop offset="0" stop-color="#b07908"/><stop offset="0.51" stop-color="#f4db76"/><stop offset="1" stop-color="#b07908"/></linearGradient><linearGradient id="New_Gradient_Swatch" x1="-29.36" y1="420.75" x2="541.36" y2="91.25" gradientUnits="userSpaceOnUse"><stop offset="0" stop-color="#bfa065"/><stop offset="0.24" stop-color="#ebce6f"/><stop offset="0.52" stop-color="#fffcac"/><stop offset="1" stop-color="#bfa065"/></linearGradient></defs><path class="cls-1" d="M458.17.5H53.83A53.33,53.33,0,0,0,.5,53.83V458.17A53.33,53.33,0,0,0,53.83,511.5H458.17a53.33,53.33,0,0,0,53.33-53.33V53.83A53.33,53.33,0,0,0,458.17.5ZM118.49,372.1s-.36-10.19-.42-14.73c-.25-19.73-.44-39.46-.67-59.19q-.5-41.46-1-82.93c-.37-25.64-.87-51.28-1.28-76.92-.15-9.68-.15-19.36-.37-29-.07-2.94,1-4.08,3.94-4,3.77.09,7.54-.17,11.31,0s4.74-1.93,4.59-5.2c-.13-2.88-.47-5.26-4.38-5s-8.07-.19-12.05.24c-3.19.34-3.68-1.21-3.7-3.63q-.11-12.24-.2-24.48c0-3.9-.08-7.79-.09-11.69,0-6.86,4.25-11.87,11.2-12.14,13.3-.49,26.63-.26,39.91-.93,6.14-.31,9.65.44,12.54,7.15,4.68,10.87,14.45,16.1,26.42,14.88S224.47,56.57,228.3,45c.88-2.65,2.07-3.47,4.8-3.49,14.59-.13,29.17-.56,43.76-.71,8.81-.09,13.1,4.4,13.19,13.3.05,4.63.16,9.25.26,14.45-3.24-.79-6.07-1.6-8.94-2.16a22.07,22.07,0,0,0-23.62,11.7c-1.88,3.85-3.84,7.68-5.43,11.65a5.22,5.22,0,0,1-5.49,3.61c-3.39,0-6.79.08-10.18,0-2.79-.08-5.08.22-5.18,3.8-.17,5.62.28,6.29,4.66,6.35l9.56.11-125.51,266Zm307.25-213c-4.93,10.64-10.06,21.18-14.95,31.83-1.3,2.85-2.87,3.45-5.6,2.05-3.36-1.73-6.87-3.17-10.24-4.89s-5-.41-6.39,2.71-1.23,4.94,2,6.32,6.56,3.27,10,4.58,3.7,3.08,2.17,6.32Q372.23,272.26,342,336.59L281.89,463.8c-3.75,7.94-10.15,10.4-18,6.75-13.27-6.16-26.43-12.53-39.72-18.63-2.84-1.31-3.06-3.26-2.81-5.8,1.23-12.43-5.68-24.27-17.33-28.46-11.38-4.1-21.59-1.34-30.12,7.15-1.65,1.64-2.91,1.94-4.91,1-13.77-6.58-27.6-13-41.33-19.64-6.31-3.05-8.44-9.41-5.45-16,3.92-8.6,8-17.12,12.06-25.67l109-230.84c2.41-5.09,2.43-5.1,7.56-2.67,3.08,1.45,6.17,2.87,9.22,4.38,2.56,1.27,4,.29,5-2.13s2.95-4.92-.69-6.76-7.21-3.64-10.91-5.23c-2.52-1.07-3.19-2.46-2-5,5.33-11.14,10.47-22.38,15.92-33.46,3-6,9.34-8.08,15.41-5.25,13.82,6.44,27.58,13,41.39,19.5,2,.93,2.73,1.9,2.3,4.32-2,11.17,4.1,23.26,13.91,28.26,11.55,5.9,23.56,4.27,32.32-4.5,2.37-2.38,4.45-3.24,7.88-1.55,12.89,6.36,26,12.32,39,18.47C426.55,145.42,429,152,425.74,159.11Zm-126.09-16c-3.88-1.78-7.77-3.57-11.58-5.51-4-2.06-4.87,1-6.29,3.56-1.55,2.82-.72,4.42,2.09,5.53,1.86.74,3.64,1.69,5.46,2.55,2.05,1,4.12,1.89,6.13,2.91,3.21,1.62,4.51-.28,5.72-2.82S302.85,144.56,299.65,143.1Zm-129-48.62c-5,0-10.07,0-15.09.24-3.09.15-3,2.81-2.75,4.86s-.77,5,2.92,5c5,0,10.06,0,15.07-.32,1.11-.07,3-1.44,3-2.34.2-2.4-.39-4.86-.63-7A23.49,23.49,0,0,0,170.62,94.48Zm39.13-.58c-4.76,0-9.52,0-14.28.19a6.81,6.81,0,0,0-2.63,1.12c-2,4.1-.25,9,2.78,9,4.76.07,9.53,0,14.28-.27,4-.21,3.13-3.3,3.26-5.9S212.63,93.87,209.75,93.9Zm124,65.31-4.43-2.09v0c-2.15-1-4.27-2.12-6.47-3-3.63-1.52-4.13,1.61-5.26,3.71s-1.65,4,1.13,5.3c4.22,1.95,8.34,4.12,12.65,5.83a4.72,4.72,0,0,0,4.23-.73C339.16,164.25,338.47,161.5,333.7,159.21Zm36.11,17c-1.68-.84-3.41-1.62-5.11-2.42s-3.69-1.63-5.45-2.6c-3.05-1.67-4.58-.32-5.8,2.45-1.15,2.6-2.23,4.91,1.36,6.51,3.91,1.73,7.77,3.58,11.6,5.48,2.72,1.34,4.4.69,5.71-2.07C374.19,179.23,374,178.31,369.81,176.22Z"/><path class="cls-2" d="M458.17.5H53.83A53.33,53.33,0,0,0,.5,53.83V458.17A53.33,53.33,0,0,0,53.83,511.5H458.17a53.33,53.33,0,0,0,53.33-53.33V53.83A53.33,53.33,0,0,0,458.17.5ZM118.49,372.1s-.36-10.19-.42-14.73c-.25-19.73-.44-39.46-.67-59.19q-.5-41.46-1-82.93c-.37-25.64-.87-51.28-1.28-76.92-.15-9.68-.15-19.36-.37-29-.07-2.94,1-4.08,3.94-4,3.77.09,7.54-.17,11.31,0s4.74-1.93,4.59-5.2c-.13-2.88-.47-5.26-4.38-5s-8.07-.19-12.05.24c-3.19.34-3.68-1.21-3.7-3.63q-.11-12.24-.2-24.48c0-3.9-.08-7.79-.09-11.69,0-6.86,4.25-11.87,11.2-12.14,13.3-.49,26.63-.26,39.91-.93,6.14-.31,9.65.44,12.54,7.15,4.68,10.87,14.45,16.1,26.42,14.88S224.47,56.57,228.3,45c.88-2.65,2.07-3.47,4.8-3.49,14.59-.13,29.17-.56,43.76-.71,8.81-.09,13.1,4.4,13.19,13.3.05,4.63.16,9.25.26,14.45-3.24-.79-6.07-1.6-8.94-2.16a22.07,22.07,0,0,0-23.62,11.7c-1.88,3.85-3.84,7.68-5.43,11.65a5.22,5.22,0,0,1-5.49,3.61c-3.39,0-6.79.08-10.18,0-2.79-.08-5.08.22-5.18,3.8-.17,5.62.28,6.29,4.66,6.35l9.56.11-125.51,266Zm307.25-213c-4.93,10.64-10.06,21.18-14.95,31.83-1.3,2.85-2.87,3.45-5.6,2.05-3.36-1.73-6.87-3.17-10.24-4.89s-5-.41-6.39,2.71-1.23,4.94,2,6.32,6.56,3.27,10,4.58,3.7,3.08,2.17,6.32Q372.23,272.26,342,336.59L281.89,463.8c-3.75,7.94-10.15,10.4-18,6.75-13.27-6.16-26.43-12.53-39.72-18.63-2.84-1.31-3.06-3.26-2.81-5.8,1.23-12.43-5.68-24.27-17.33-28.46-11.38-4.1-21.59-1.34-30.12,7.15-1.65,1.64-2.91,1.94-4.91,1-13.77-6.58-27.6-13-41.33-19.64-6.31-3.05-8.44-9.41-5.45-16,3.92-8.6,8-17.12,12.06-25.67l109-230.84c2.41-5.09,2.43-5.1,7.56-2.67,3.08,1.45,6.17,2.87,9.22,4.38,2.56,1.27,4,.29,5-2.13s2.95-4.92-.69-6.76-7.21-3.64-10.91-5.23c-2.52-1.07-3.19-2.46-2-5,5.33-11.14,10.47-22.38,15.92-33.46,3-6,9.34-8.08,15.41-5.25,13.82,6.44,27.58,13,41.39,19.5,2,.93,2.73,1.9,2.3,4.32-2,11.17,4.1,23.26,13.91,28.26,11.55,5.9,23.56,4.27,32.32-4.5,2.37-2.38,4.45-3.24,7.88-1.55,12.89,6.36,26,12.32,39,18.47C426.55,145.42,429,152,425.74,159.11Zm-126.09-16c-3.88-1.78-7.77-3.57-11.58-5.51-4-2.06-4.87,1-6.29,3.56-1.55,2.82-.72,4.42,2.09,5.53,1.86.74,3.64,1.69,5.46,2.55,2.05,1,4.12,1.89,6.13,2.91,3.21,1.62,4.51-.28,5.72-2.82S302.85,144.56,299.65,143.1Zm-129-48.62c-5,0-10.07,0-15.09.24-3.09.15-3,2.81-2.75,4.86s-.77,5,2.92,5c5,0,10.06,0,15.07-.32,1.11-.07,3-1.44,3-2.34.2-2.4-.39-4.86-.63-7A23.49,23.49,0,0,0,170.62,94.48Zm39.13-.58c-4.76,0-9.52,0-14.28.19a6.81,6.81,0,0,0-2.63,1.12c-2,4.1-.25,9,2.78,9,4.76.07,9.53,0,14.28-.27,4-.21,3.13-3.3,3.26-5.9S212.63,93.87,209.75,93.9Zm124,65.31-4.43-2.09v0c-2.15-1-4.27-2.12-6.47-3-3.63-1.52-4.13,1.61-5.26,3.71s-1.65,4,1.13,5.3c4.22,1.95,8.34,4.12,12.65,5.83a4.72,4.72,0,0,0,4.23-.73C339.16,164.25,338.47,161.5,333.7,159.21Zm36.11,17c-1.68-.84-3.41-1.62-5.11-2.42s-3.69-1.63-5.45-2.6c-3.05-1.67-4.58-.32-5.8,2.45-1.15,2.6-2.23,4.91,1.36,6.51,3.91,1.73,7.77,3.58,11.6,5.48,2.72,1.34,4.4.69,5.71-2.07C374.19,179.23,374,178.31,369.81,176.22Z"/></svg>