<svg id="Layer_1" data-name="Layer 1" xmlns="http://www.w3.org/2000/svg" xmlns:xlink="http://www.w3.org/1999/xlink" viewBox="0 0 512 512"><defs><style>.cls-1{fill:url(#New_Gradient_Swatch);}</style><linearGradient id="New_Gradient_Swatch" x1="-29.36" y1="420.75" x2="512.57" y2="107.87" gradientUnits="userSpaceOnUse"><stop offset="0" stop-color="#bfa065"/><stop offset="0.24" stop-color="#ebce6f"/><stop offset="0.52" stop-color="#fffcac"/><stop offset="1" stop-color="#bfa065"/></linearGradient></defs><path class="cls-1" d="M458.17.5H53.83A53.33,53.33,0,0,0,.5,53.83V458.17A53.33,53.33,0,0,0,53.83,511.5H458.17a53.33,53.33,0,0,0,53.33-53.33V53.83A53.33,53.33,0,0,0,458.17.5Zm2,88.83c-11.79,20-28.13,36.19-44.42,52.42-22.4,22.31-44.69,44.73-67.11,67-2.25,2.24-3,4.09-1.93,7.37,10.82,34.41,21.42,68.89,32.06,103.36,12.45,40.29,24.82,80.61,37.38,120.87,2.22,7.12.72,12.82-4.64,17.81-3.38,3.15-6.53,6.55-9.85,9.78-4.58,4.47-8.13,4.17-11.56-1.32q-19.34-30.9-38.48-61.91-36.19-58.34-72.4-116.66c-1.1-1.77-2.27-3.48-4.16-6.37-6.8,7-13,13.64-19.41,20-19.43,19.37-38.78,38.83-58.49,57.9-6.62,6.41-14.09,12-21.49,17.52-3,2.25-3.74,4.21-2.72,7.78,4.43,15.63,8.78,31.29,12.68,47.05.79,3.2.64,7.77-1.13,10.21A80.93,80.93,0,0,1,170.36,457c-3.33,2.73-6.76.2-9.11-2.92q-9.42-12.51-18.78-25.07c-6.33-8.49-12.69-16.95-18.91-25.52-1.86-2.56-3.71-3.82-6.62-1.73a1.81,1.81,0,0,1-.82.35c-2,.23-4,.41-5.94.61.14-2.11-.37-4.56.53-6.28,2-3.78.7-5.73-2.41-8-16.35-12-32.56-24.17-48.81-36.3-6.07-4.53-6.34-8.15-1.06-13.52,2.3-2.34,4.71-4.59,6.94-7,4.79-5.15,10.55-6.3,17.16-4.47,15.66,4.35,31.32,8.69,47,12.87,1.24.33,3.52-.16,4.15-1.07,15.83-22.9,36.7-41.15,56-60.86,12.42-12.69,25.1-25.12,37.65-37.68,1-1,1.92-2.11,3.32-3.65l-28.88-17.91L55.86,128.25c-3.93-2.44-7.9-4.8-11.75-7.34-4.54-3-5.06-6.61-1.43-10.41q6-6.31,12.39-12.3c4.28-4,9.28-4.92,14.93-3.17q76.23,23.6,152.5,47.09c24.92,7.69,49.85,15.34,74.72,23.19,3,1,4.89.38,7-1.79q38.52-38.7,77.22-77.24c16-16,32.89-30.94,53.94-40A68.46,68.46,0,0,1,456.49,41c10-.83,15.25,4.88,15.22,14.91C471.68,68.35,466.25,79,460.17,89.33Z"/></svg>