<svg id="Layer_1" data-name="Layer 1" xmlns="http://www.w3.org/2000/svg" xmlns:xlink="http://www.w3.org/1999/xlink" viewBox="0 0 512 512"><defs><style>.cls-1{fill:url(#New_Gradient_Swatch);}</style><linearGradient id="New_Gradient_Swatch" x1="-29.36" y1="420.75" x2="541.36" y2="91.25" gradientUnits="userSpaceOnUse"><stop offset="0" stop-color="#bfa065"/><stop offset="0.24" stop-color="#ebce6f"/><stop offset="0.52" stop-color="#fffcac"/><stop offset="1" stop-color="#bfa065"/></linearGradient></defs><path class="cls-1" d="M458.17.5H53.83A53.33,53.33,0,0,0,.5,53.83V458.17A53.33,53.33,0,0,0,53.83,511.5H458.17a53.33,53.33,0,0,0,53.33-53.33V53.83A53.33,53.33,0,0,0,458.17.5Zm-329.24,58c10.42-5.32,20.84-10.68,31.31-15.89a12.17,12.17,0,0,1,5.31-1.31q90.38.31,180.75.81a10.38,10.38,0,0,1,4.58,1q29.28,14.91,58.5,30a20.57,20.57,0,0,1,1.94,1.41c-1.57.76-2.67,1.37-3.81,1.85q-31.5,13.18-63,26.29a17.36,17.36,0,0,1-6.54,1.35q-83.08.24-166.16.27a13.66,13.66,0,0,1-5.41-.9Q134.07,89.28,101.85,75c-.47-.21-.91-.53-2.39-1.39C109.86,68.25,119.39,63.36,128.93,58.5ZM355.54,204.88H153.46c3.54-16.31,6.91-31.9,10.3-47.49,2.05-9.43,4.22-18.82,6.15-28.29.63-3.09,1.59-4.45,4.48-4.42q81.3.82,162.59,1.31c2.76,0,3.82,1.09,4.44,4.39,4.44,23.37,9.08,46.69,13.63,70C355.31,201.76,355.36,203.17,355.54,204.88ZM58.72,116.52c6-9.15,12-18.21,17.9-27.44,1.58-2.47,2.83-3.37,5.53-2.11,22.55,10.57,45.18,20.92,67.81,31.27,2,.91,3,1.85,2.35,4.83-5.29,25.25-10.46,50.53-15.68,75.81a16,16,0,0,1-.7,1.86l-96-55.25C46.35,135.55,52.52,126,58.72,116.52ZM226,442.44,44.34,172.8A25.58,25.58,0,0,1,47.66,174c28.11,16.31,56.24,32.59,84.28,49.11,1.89,1.12,3.5,3.78,4.51,6.17q42.32,99.56,84.46,199.22,2.84,6.72,5.7,13.42ZM155.85,226.21H354.32L255,470.7ZM284.74,442.86l-1.1-1.08q11.75-27.67,23.49-55.35,33.09-77.81,66.27-155.54a14.39,14.39,0,0,1,5.33-6.43c27.56-16.26,55.21-32.28,82.84-48.35a4.47,4.47,0,0,1,3.34-.64Zm89.18-242.74a18.39,18.39,0,0,1-1.11-3c-4.92-24.37-9.77-48.76-14.75-73.11-.6-2.93-.11-4.18,2.25-5.29,22.52-10.62,45-21.44,67.51-32a4.14,4.14,0,0,1,4.27.93c13.27,18.6,26.38,37.37,39.51,56.11a7.94,7.94,0,0,1,.51,1.38Z"/></svg>