<svg id="Layer_1" data-name="Layer 1" xmlns="http://www.w3.org/2000/svg" xmlns:xlink="http://www.w3.org/1999/xlink" viewBox="0 0 512 512"><defs><style>.cls-1{fill:url(#New_Gradient_Swatch);}</style><linearGradient id="New_Gradient_Swatch" x1="-29.36" y1="420.75" x2="541.36" y2="91.25" gradientUnits="userSpaceOnUse"><stop offset="0" stop-color="#bfa065"/><stop offset="0.24" stop-color="#ebce6f"/><stop offset="0.52" stop-color="#fffcac"/><stop offset="1" stop-color="#bfa065"/></linearGradient></defs><path class="cls-1" d="M458.17.5H53.83A53.33,53.33,0,0,0,.5,53.83V458.17A53.33,53.33,0,0,0,53.83,511.5H458.17a53.33,53.33,0,0,0,53.33-53.33V53.83A53.33,53.33,0,0,0,458.17.5ZM356.34,200.33,335.47,235.4H168.21a146.07,146.07,0,0,0-1.35,20.09c0,2.21.09,4.37.18,6.54h189.3L335.48,297.1H172.6a124.37,124.37,0,0,0,10.74,25.73A118,118,0,0,0,230,369q30.13,16.78,67,16.77,31.43,0,57.43-11.74t57.17-42.7l48.93,51.06q-42,41-79.39,56.86t-85.31,15.86q-88.43,0-144.74-56.07Q108.73,357,98.19,297.1H50L70.88,262H94.82c-.06-2.22-.14-4.42-.14-6.68,0-6.8.38-13.42.93-19.95H50l20.87-35.07h30.66a183.15,183.15,0,0,1,18.8-45.76Q146,110.5,193.79,83.69a207.19,207.19,0,0,1,103-26.81A218.57,218.57,0,0,1,462,133.05l-50.49,48.12Q360,126.74,295.63,126.73q-54.35,0-91.56,37.16a125.3,125.3,0,0,0-25.71,36.44Z"/></svg>