<svg id="Layer_1" data-name="Layer 1" xmlns="http://www.w3.org/2000/svg" xmlns:xlink="http://www.w3.org/1999/xlink" viewBox="0 0 512 512"><defs><style>.cls-1{fill:url(#New_Gradient_Swatch);}</style><linearGradient id="New_Gradient_Swatch" x1="-29.36" y1="420.75" x2="541.36" y2="91.25" gradientUnits="userSpaceOnUse"><stop offset="0" stop-color="#bfa065"/><stop offset="0.24" stop-color="#ebce6f"/><stop offset="0.52" stop-color="#fffcac"/><stop offset="1" stop-color="#bfa065"/></linearGradient></defs><path class="cls-1" d="M458.17.5H53.83A53.33,53.33,0,0,0,.5,53.83V458.17A53.33,53.33,0,0,0,53.83,511.5H458.17a53.33,53.33,0,0,0,53.33-53.33V53.83A53.33,53.33,0,0,0,458.17.5ZM398,56.5a24.79,24.79,0,0,1,1.61,7.23c.17,12.71.2,25.43,0,38.15a10.56,10.56,0,0,1-2.16,6.17Q368.91,142.7,340,177.11c-.95,1.13-2.33,1.9-4.23,3.41-6-11.81-11.79-23-17.43-34.29-5.18-10.34-10-20.84-15.43-31.07-2-3.72-1.27-5.56,2.09-7.66Q347.75,80.89,390.32,54C394.32,51.48,396.65,52.3,398,56.5ZM304.29,160c-6.6,7.49-12.64,15.5-19.39,22.85a13.49,13.49,0,0,1-8.51,4c-13.62.43-27.27.41-40.89,0a12.47,12.47,0,0,1-8.1-3.66c-7-7.74-13.73-15.76-19.93-24.15-1.56-2.11-1.94-6.49-.85-8.92,4.74-10.55,10-20.9,15.62-31a10.31,10.31,0,0,1,7.28-4.45c8.83-.55,17.71-.21,26.57-.21,8.41,0,16.82.15,25.22-.08,4.35-.11,7.07,1.14,9.06,5.36,4.83,10.26,10.14,20.3,15.39,30.36C307.73,154,307.09,156.86,304.29,160ZM378.85,43.52l.52,1.74Q359.56,57.68,339.75,70.1c-14.43,9-28.73,18.28-43.38,27a28.53,28.53,0,0,1-13.26,3.88c-18.4.45-36.81.33-55.21.12a19.45,19.45,0,0,1-9.62-2.39c-27.65-17-55.14-34.26-82.66-51.48a40.71,40.71,0,0,1-4.06-3.66ZM112.3,66.82a35.13,35.13,0,0,1,1.12-8.73c1.4-5.09,3.61-7,9.2-3.44q40.73,26,82,51.15c5.1,3.13,6.75,5.73,3.6,11.7-10,19.06-19.39,38.48-29,57.74-.8,1.6-1.84,3.08-3.56,5.94-4.68-5.51-8.62-10.1-12.49-14.73-15.72-18.82-31.53-37.55-47-56.57a18.71,18.71,0,0,1-3.71-10.36C111.93,88.64,112.17,77.72,112.3,66.82Zm64.75,335.53c-37.3-.3-74.61-.1-111.91-.2-16,0-24.7-9-24.7-25.12q0-88.35-.07-176.68V180.24a25,25,0,0,1,9.93-19.67c16.54-13.16,33.1-26.29,49.46-39.67,3.78-3.08,5.92-2.53,8.88,1,19.67,23.84,39.52,47.54,59.31,71.27,1,1.23,2,2.5,3.1,3.63,5.22,5.32,9.39,4.83,12.86-1.73,3.3-6.22,6.27-12.61,9.47-18.89,1.1-2.15,2.44-4.19,4.34-7.42,7.68,9.28,14.78,17.73,21.65,26.36.8,1,.62,3.1.37,4.6q-9.66,58.17-19.45,116.34c-4.31,25.78-8.85,51.53-12.74,77.37C186.52,400.38,183.84,402.41,177.05,402.35Zm135.56,2.75v0a10.34,10.34,0,0,1-.22,1.08v0c-.09.34-.2.68-.32,1l0,.07a9.4,9.4,0,0,1-.43,1c0,.05,0,.1-.08.14-.16.31-.33.61-.52.91l-.05.07c-.2.31-.43.63-.67.94l-.16.2c-.25.32-.51.63-.8.94q-24.74,26.78-48.88,54.09c-3.66,4.15-5.71,3.57-9-.17-16.16-18.15-32.65-36-48.66-54.27a8.37,8.37,0,0,1-.7-.93c-.09-.12-.16-.25-.24-.37l-.39-.67-.27-.53c-.09-.18-.17-.37-.26-.56s-.19-.45-.28-.69l-.12-.35a14.85,14.85,0,0,1-.85-4.27,9.74,9.74,0,0,1,.08-1.81c7.35-46.19,15.07-92.32,22.72-138.46,3.12-18.82,6.36-37.61,9.37-56.44.62-3.86,2.36-5.59,6.25-5.52,6.13.11,12.27,0,18.41,0,5.91,0,11.86-.44,17.7.23,2.09.25,5.25,2.91,5.6,4.88,5.81,32.87,11.27,65.81,16.76,98.73,5.3,31.81,10.45,63.64,15.9,95.42a19.75,19.75,0,0,1,.31,2.94A12.5,12.5,0,0,1,312.61,405.1Zm158.86-28c0,16.41-8.44,24.93-24.69,24.95-37.52.05-75-.11-112.56.14-6.26,0-8.59-1.93-9.58-8.18-6.88-43.29-14.11-86.53-21.33-129.77-3.55-21.28-7.32-42.52-10.91-63.8-.29-1.71-.61-4.09.28-5.22,6.78-8.67,13.87-17.1,21.87-26.84,4.63,9.22,8.49,16.84,12.29,24.48,4.78,9.61,8.94,10.14,15.92,1.79q29.5-35.3,58.92-70.67c5.71-6.87,5.65-6.89,12.71-1.25,14.73,11.77,29.28,23.79,44.3,35.19,9.11,6.92,13,15.22,12.94,26.8C471.27,248.89,471.49,313,471.47,377.14Z"/></svg>