<svg id="Layer_1" data-name="Layer 1" xmlns="http://www.w3.org/2000/svg" xmlns:xlink="http://www.w3.org/1999/xlink" viewBox="0 0 512 512"><defs><style>.cls-1{fill:url(#New_Gradient_Swatch);}</style><linearGradient id="New_Gradient_Swatch" x1="-29.36" y1="420.75" x2="541.36" y2="91.25" gradientUnits="userSpaceOnUse"><stop offset="0" stop-color="#bfa065"/><stop offset="0.24" stop-color="#ebce6f"/><stop offset="0.52" stop-color="#fffcac"/><stop offset="1" stop-color="#bfa065"/></linearGradient></defs><path class="cls-1" d="M458.17.5H53.83A53.33,53.33,0,0,0,.5,53.83V458.17A53.33,53.33,0,0,0,53.83,511.5H458.17a53.33,53.33,0,0,0,53.33-53.33V53.83A53.33,53.33,0,0,0,458.17.5Zm-315.86,175v50.13l-37.15,15.76L36.49,211ZM245.87,471.06l-127.2-48.41V333.72l52.9,19.14,74.3-27Zm-78.8-137.34L36.49,285.32l69.79-28.14,139.59,49.53Zm28.66-107.28,11.51-67.11L158.48,111.8,225.86,102,256,40.94,286.14,102l67.38,9.79-48.76,47.53,11.51,67.11L256,194.76Zm197.6,196.21-127.2,48.41V325.84l74.3,27,52.9-19.14Zm-48.4-88.93-78.8-27,139.59-49.53,69.79,28.14Zm61.91-92.3-37.15-15.76V175.53L475.51,211Z"/></svg>