<?xml version="1.0" encoding="utf-8"?>
<!-- Generator: Adobe Illustrator 26.3.0, SVG Export Plug-In . SVG Version: 6.00 Build 0)  -->
<svg version="1.1" id="Capa_1" xmlns="http://www.w3.org/2000/svg" xmlns:xlink="http://www.w3.org/1999/xlink" x="0px" y="0px"
	 viewBox="0 0 100 100" style="enable-background:new 0 0 100 100;" xml:space="preserve">
<style type="text/css">
	.st0{display:none;}
	.st1{display:inline;fill-rule:evenodd;clip-rule:evenodd;fill:url(#SVGID_1_);}
	.st2{display:inline;}
	.st3{fill:#FFFFFF;}
	.st4{display:inline;fill-rule:evenodd;clip-rule:evenodd;fill:url(#SVGID_00000138543292261865214780000001513755028814357161_);}
	.st5{display:inline;fill-rule:evenodd;clip-rule:evenodd;fill:url(#SVGID_00000127036203008552242470000012155255876155185053_);}
	.st6{fill-rule:evenodd;clip-rule:evenodd;fill:url(#SVGID_00000131329863535132095720000010899341839697007020_);}
	.st7{display:inline;fill-rule:evenodd;clip-rule:evenodd;fill:url(#SVGID_00000127763380201902097030000009568127017039313552_);}
	
		.st8{display:inline;clip-path:url(#SVGID_00000001643265271988021110000011417683869552726687_);fill-rule:evenodd;clip-rule:evenodd;fill:url(#SVGID_00000115485268281222302120000015296862372213821870_);}
	.st9{display:inline;clip-path:url(#SVGID_00000001643265271988021110000011417683869552726687_);}
	.st10{fill:none;stroke:#FFFFFF;stroke-width:0.9953;stroke-miterlimit:10;}
</style>
<g class="st0">
	<linearGradient id="SVGID_1_" gradientUnits="userSpaceOnUse" x1="3.9567" y1="47.7706" x2="94.4132" y2="47.7706">
		<stop  offset="0" style="stop-color:#B47A1A"/>
		<stop  offset="0.0528" style="stop-color:#B9811E"/>
		<stop  offset="0.1288" style="stop-color:#C69429"/>
		<stop  offset="0.2187" style="stop-color:#DCB33C"/>
		<stop  offset="0.3185" style="stop-color:#FADE56"/>
		<stop  offset="0.3333" style="stop-color:#FFE55A"/>
		<stop  offset="0.5161" style="stop-color:#FFEC88"/>
		<stop  offset="0.6613" style="stop-color:#FFE55A"/>
		<stop  offset="1" style="stop-color:#B47A1A"/>
	</linearGradient>
	<path class="st1" d="M94.41,47.8c0,24.93-20.28,45.2-45.23,45.2c-25,0-45.23-20.28-45.23-45.2c0-25.02,20.23-45.25,45.23-45.25
		C74.13,2.54,94.41,22.77,94.41,47.8z"/>
	<g class="st2">
		<g>
			<g>
				<g>
					<path class="st3" d="M39.62,59.89l-18.2,18.2c1.15,0.55,2.43,0.87,3.79,0.87h24.6L39.62,59.89z"/>
				</g>
				<g>
					<polygon class="st3" points="16.42,43.62 16.42,66.5 31.33,51.59 					"/>
				</g>
				<g>
					<path class="st3" d="M70.65,15.9H25.22c-4.86,0-8.8,3.94-8.8,8.8V34.8l3.55,0.47l2.56-2.56c0.9-0.9,2.37-0.9,3.27,0
						c0.9,0.9,0.9,2.37,0,3.27l-0.05,0.05l18.63,2.49l6.93-6.93c1.34-1.34,2.82-2.5,4.41-3.46c1.59-0.96,3.27-1.72,5.02-2.26
						c1.51-0.46,2.89-0.07,3.77,0.82c0.88,0.88,1.28,2.26,0.82,3.77l0,0c-0.53,1.75-1.29,3.43-2.26,5.02
						c-0.96,1.59-2.12,3.07-3.46,4.41l-6.93,6.93l2.49,18.63l0.05-0.05c0.9-0.9,2.37-0.9,3.27,0c0.9,0.9,0.9,2.37,0,3.27l-2.56,2.56
						l1.03,7.71h13.69c4.86,0,8.8-3.94,8.8-8.8V24.69C79.45,19.83,75.51,15.9,70.65,15.9z"/>
				</g>
			</g>
		</g>
	</g>
</g>
<g class="st0">
	
		<linearGradient id="SVGID_00000160159146997946644840000004475474771278903433_" gradientUnits="userSpaceOnUse" x1="3.9567" y1="47.1557" x2="94.4132" y2="47.1557">
		<stop  offset="0" style="stop-color:#B47A1A"/>
		<stop  offset="0.0528" style="stop-color:#B9811E"/>
		<stop  offset="0.1288" style="stop-color:#C69429"/>
		<stop  offset="0.2187" style="stop-color:#DCB33C"/>
		<stop  offset="0.3185" style="stop-color:#FADE56"/>
		<stop  offset="0.3333" style="stop-color:#FFE55A"/>
		<stop  offset="0.5161" style="stop-color:#FFEC88"/>
		<stop  offset="0.6613" style="stop-color:#FFE55A"/>
		<stop  offset="1" style="stop-color:#B47A1A"/>
	</linearGradient>
	
		<path style="display:inline;fill-rule:evenodd;clip-rule:evenodd;fill:url(#SVGID_00000160159146997946644840000004475474771278903433_);" d="
		M94.41,47.18c0,24.93-20.28,45.2-45.23,45.2c-25,0-45.23-20.28-45.23-45.2c0-25.02,20.23-45.25,45.23-45.25
		C74.13,1.93,94.41,22.16,94.41,47.18z"/>
	<g class="st2">
		<path class="st3" d="M77.36,42.78L64.71,30.66c0-0.02,0.01-0.04,0.01-0.06v-11c0-0.94-0.76-1.7-1.7-1.7c-0.94,0-1.7,0.76-1.7,1.7
			v7.81L49.19,15.78c-0.7-0.67-1.81-0.67-2.51,0L18.51,42.78c-0.72,0.69-0.75,1.84-0.05,2.57c0.69,0.72,1.84,0.75,2.57,0.05
			l26.91-25.79L74.85,45.4c0.35,0.34,0.8,0.5,1.26,0.5c0.48,0,0.95-0.19,1.31-0.56C78.11,44.62,78.08,43.47,77.36,42.78z"/>
		<g>
			<path class="st3" d="M66.76,69.72H29.11c-1,0-1.81-0.81-1.81-1.82V45.45c0-1,0.81-1.82,1.81-1.82c1,0,1.82,0.81,1.82,1.82v20.64
				h34.03V45.45c0-1,0.81-1.82,1.82-1.82c1,0,1.81,0.81,1.81,1.82v22.46C68.58,68.91,67.77,69.72,66.76,69.72z"/>
		</g>
		<path class="st3" d="M57.02,41.21c-2.02-2.27-5.81-2.32-8.51,0.57c-2.7-2.89-6.49-2.84-8.51-0.57
			c-3.95,4.44,0.15,10.13,4.12,12.81c1.3,0.88,2.88,1.54,4.39,1.97c1.51-0.43,3.09-1.09,4.39-1.97
			C56.87,51.34,60.97,45.64,57.02,41.21z"/>
	</g>
</g>
<g class="st0">
	
		<linearGradient id="SVGID_00000072964870485915258080000006292392317165733795_" gradientUnits="userSpaceOnUse" x1="3.9567" y1="48.1698" x2="94.4132" y2="48.1698">
		<stop  offset="0" style="stop-color:#B47A1A"/>
		<stop  offset="0.0528" style="stop-color:#B9811E"/>
		<stop  offset="0.1288" style="stop-color:#C69429"/>
		<stop  offset="0.2187" style="stop-color:#DCB33C"/>
		<stop  offset="0.3185" style="stop-color:#FADE56"/>
		<stop  offset="0.3333" style="stop-color:#FFE55A"/>
		<stop  offset="0.5161" style="stop-color:#FFEC88"/>
		<stop  offset="0.6613" style="stop-color:#FFE55A"/>
		<stop  offset="1" style="stop-color:#B47A1A"/>
	</linearGradient>
	
		<path style="display:inline;fill-rule:evenodd;clip-rule:evenodd;fill:url(#SVGID_00000072964870485915258080000006292392317165733795_);" d="
		M94.41,48.19c0,24.93-20.28,45.2-45.23,45.2c-25,0-45.23-20.28-45.23-45.2c0-25.02,20.23-45.25,45.23-45.25
		C74.13,2.94,94.41,23.17,94.41,48.19z"/>
	<g class="st2">
		<path class="st3" d="M68.77,47.16H52.9v26.74h15.87c1.16,0,2.1-0.94,2.1-2.1V49.26C70.87,48.1,69.93,47.16,68.77,47.16z"/>
		<path class="st3" d="M27.06,49.26v22.54c0,1.16,0.94,2.1,2.1,2.1h15.87V47.16H29.16C28,47.16,27.06,48.1,27.06,49.26z"/>
		<path class="st3" d="M24.19,35.96v6.58c0,1.16,0.94,2.1,2.1,2.1h18.74l0.01-10.78H26.29C25.13,33.86,24.19,34.8,24.19,35.96z"/>
		<path class="st3" d="M71.64,33.86H52.86l0.04,10.78h18.74c1.16,0,2.1-0.94,2.1-2.1v-6.58C73.74,34.8,72.8,33.86,71.64,33.86z"/>
		<path class="st3" d="M63.01,31.84c1.23,0,1.72-0.24,1.98-0.39c1.88-1.11,3.06-3.43,3.06-6.4c0-2.21-0.7-4.41-1.91-6.03
			c-1.49-2-3.7-3.1-6.22-3.1c-0.21,0-0.42,0.01-0.63,0.02c-6.62,0.46-9.31,6.74-10.36,10.79c-1.05-4.05-3.74-10.33-10.36-10.79
			c-0.22-0.01-0.43-0.02-0.63-0.02c-2.52,0-4.73,1.1-6.22,3.1c-1.21,1.63-1.91,3.83-1.91,6.03c0,3,1.2,5.34,3.11,6.43
			c0.24,0.14,0.63,0.36,1.75,0.36C39.61,31.84,61.67,31.84,63.01,31.84 M59.53,19.71c0.13-0.01,0.25-0.01,0.37-0.01
			c1.34,0,2.41,0.53,3.2,1.58c0.74,0.99,1.16,2.37,1.16,3.77c0,1.16-0.4,3.34-1.92,3.34h-9.94C53.09,25.36,54.94,20.03,59.53,19.71z
			 M34.73,21.28c0.78-1.05,1.86-1.58,3.2-1.58c0.12,0,0.25,0,0.37,0.01c4.59,0.32,6.44,5.65,7.13,8.68h-9.94
			c-1.52,0-1.92-2.18-1.92-3.34C33.57,23.65,33.99,22.27,34.73,21.28z"/>
	</g>
</g>
<g>
	
		<linearGradient id="SVGID_00000130619666912846965230000001681041631802156470_" gradientUnits="userSpaceOnUse" x1="3.9567" y1="48.1698" x2="94.4132" y2="48.1698">
		<stop  offset="0" style="stop-color:#B47A1A"/>
		<stop  offset="0.0528" style="stop-color:#B9811E"/>
		<stop  offset="0.1288" style="stop-color:#C69429"/>
		<stop  offset="0.2187" style="stop-color:#DCB33C"/>
		<stop  offset="0.3185" style="stop-color:#FADE56"/>
		<stop  offset="0.3333" style="stop-color:#FFE55A"/>
		<stop  offset="0.5161" style="stop-color:#FFEC88"/>
		<stop  offset="0.6613" style="stop-color:#FFE55A"/>
		<stop  offset="1" style="stop-color:#B47A1A"/>
	</linearGradient>
	<path style="fill-rule:evenodd;clip-rule:evenodd;fill:url(#SVGID_00000130619666912846965230000001681041631802156470_);" d="
		M94.41,48.19c0,24.93-20.28,45.2-45.23,45.2c-25,0-45.23-20.28-45.23-45.2c0-25.02,20.23-45.25,45.23-45.25
		C74.13,2.94,94.41,23.17,94.41,48.19z"/>
</g>
<g class="st0">
	
		<linearGradient id="SVGID_00000168118163072811819460000006486253429027643018_" gradientUnits="userSpaceOnUse" x1="3.9567" y1="47.7706" x2="94.4132" y2="47.7706">
		<stop  offset="0" style="stop-color:#B47A1A"/>
		<stop  offset="0.0528" style="stop-color:#B9811E"/>
		<stop  offset="0.1288" style="stop-color:#C69429"/>
		<stop  offset="0.2187" style="stop-color:#DCB33C"/>
		<stop  offset="0.3185" style="stop-color:#FADE56"/>
		<stop  offset="0.3333" style="stop-color:#FFE55A"/>
		<stop  offset="0.5161" style="stop-color:#FFEC88"/>
		<stop  offset="0.6613" style="stop-color:#FFE55A"/>
		<stop  offset="1" style="stop-color:#B47A1A"/>
	</linearGradient>
	
		<path style="display:inline;fill-rule:evenodd;clip-rule:evenodd;fill:url(#SVGID_00000168118163072811819460000006486253429027643018_);" d="
		M94.41,47.8c0,24.93-20.28,45.2-45.23,45.2c-25,0-45.23-20.28-45.23-45.2c0-25.02,20.23-45.25,45.23-45.25
		C74.13,2.54,94.41,22.77,94.41,47.8z"/>
	<g id="XMLID_00000144321211716549484870000001019460094177677953_" class="st2">
		<path id="XMLID_00000052784788035996528780000008715417339504430992_" class="st3" d="M70.23,46.27c-2.86-3.41-7.1-5.73-12.6-6.94
			c-0.46-0.1-0.92-0.21-1.4-0.3V34.4c0.17,0.14,0.35,0.28,0.52,0.43c0.97,0.8,2.1,1.21,3.36,1.21c0.01,0,0.01,0,0.02,0
			c1.07,0,2.26-0.59,2.37-0.65c0.07-0.03,0.13-0.06,0.2-0.11l5.46-3.43c1.57-0.99,1.92-2.3,1.93-3.22c0.02-1.05-0.4-2.01-1.18-2.74
			c-3.33-3.77-7.59-6.27-12.67-7.43v-3.76c0-2.41-1.96-4.36-4.36-4.36h-4.87c-2.41,0-4.36,1.96-4.36,4.36v3.57
			c-2.11,0.4-4.07,1.01-5.82,1.81c-7.19,3.27-10.77,8.3-10.65,14.94c0.06,3.27,1.06,6.2,2.96,8.72c0.48,0.65,1.04,1.25,1.61,1.83
			c2.86,2.84,6.83,4.79,11.89,5.78v7.35c-1.67-0.94-3.28-2.25-4.8-3.89c-0.86-1.09-2.06-1.66-3.47-1.66c-0.74,0-1.66,0.35-2.14,0.56
			l-5.15,3.01c-1.76,1.02-2.11,2.44-2.1,3.46c0.02,0.91,0.34,1.74,0.94,2.43c1.39,1.92,3.24,3.76,5.51,5.49
			c3.31,2.55,7.08,4.28,11.21,5.15v3.1c0,2.4,1.95,4.36,4.36,4.36h4.87c2.41,0,4.36-1.95,4.36-4.36v-3.09
			c3.55-0.69,6.71-1.94,9.4-3.7c5.02-3.32,7.62-7.96,7.74-13.79C73.45,52.09,72.39,48.89,70.23,46.27L70.23,46.27z M69.53,59.05
			c-0.53,2.08-1.56,3.9-3.09,5.48c-0.76,0.79-1.65,1.52-2.67,2.19c-0.31,0.21-0.66,0.37-0.98,0.56c-2.44,1.41-5.28,2.39-8.5,2.87
			c-0.84,0.13-1.45,0.84-1.45,1.69v4.52c0,0.52-0.43,0.94-0.95,0.94h-4.87c-0.52,0-0.95-0.42-0.95-0.94v-4.52
			c0-0.84-0.61-1.55-1.44-1.69c-4.12-0.66-7.86-2.25-11.11-4.76c-2.02-1.53-3.65-3.16-4.84-4.81c-0.03-0.05-0.08-0.1-0.12-0.14
			c-0.14-0.16-0.15-0.24-0.15-0.3c0-0.08,0-0.21,0.41-0.45l4.84-2.85c0.34-0.14,0.69-0.25,0.73-0.26c0.37,0,0.58,0.1,0.8,0.38
			l0.1,0.12c2.62,2.85,5.49,4.84,8.5,5.9c0.52,0.18,1.1,0.1,1.56-0.22c0.45-0.32,0.72-0.84,0.72-1.39V49.95
			c0-0.85-0.61-1.56-1.45-1.69c-5.9-0.91-10.19-3.11-12.74-6.53c-1.46-1.94-2.23-4.2-2.27-6.74c-0.1-5.23,2.73-9.08,8.65-11.78
			c1.86-0.85,4-1.45,6.34-1.78c0.84-0.11,1.47-0.84,1.47-1.69v-5.02c0-0.52,0.43-0.95,0.95-0.95h4.87c0.52,0,0.95,0.43,0.95,0.95
			v5.16c0,0.83,0.59,1.54,1.41,1.68c4.94,0.86,9.03,3.1,12.15,6.65c0.04,0.05,0.09,0.09,0.13,0.13c0.16,0.15,0.16,0.21,0.16,0.25
			c0,0.05,0,0.17-0.34,0.38l-5.36,3.36c-0.3,0.15-0.74,0.29-0.86,0.29c-0.46,0-0.84-0.14-1.16-0.4c-1.16-1.01-2.4-1.83-3.71-2.44
			c-0.53-0.25-1.14-0.21-1.64,0.1c-0.5,0.31-0.79,0.85-0.79,1.44v9.16c0,0.85,0.63,1.57,1.47,1.69c6.05,0.85,10.53,2.96,13.31,6.27
			c1.64,1.98,2.41,4.36,2.35,7.26C69.94,56.9,69.79,58.01,69.53,59.05z"/>
		<path id="XMLID_00000065793914329471754080000011129061833579400377_" class="st3" d="M45.31,29.68
			c-0.47-0.32-1.06-0.39-1.58-0.18l-0.49,0.2c-3.16,1.51-3.81,3.75-3.81,5.38c0.02,1.86,0.78,4.37,4.3,5.73
			c0.2,0.08,0.4,0.11,0.61,0.11c0.34,0,0.68-0.1,0.97-0.3c0.46-0.32,0.74-0.85,0.74-1.41v-8.12C46.06,30.52,45.78,29.99,45.31,29.68
			L45.31,29.68z"/>
		<path id="XMLID_00000009572117300834543270000011714915623280728704_" class="st3" d="M55.04,49.54
			c-0.52-0.16-1.09-0.07-1.52,0.25c-0.44,0.32-0.7,0.83-0.7,1.38v10.04c0,0.58,0.29,1.12,0.78,1.44c0.27,0.18,0.59,0.27,0.92,0.27
			c0.25,0,0.49-0.05,0.72-0.15c0.38-0.18,0.83-0.39,1.24-0.65c2.43-1.48,3.66-3.6,3.69-6.31C60.19,53.68,59.31,50.89,55.04,49.54z
			 M56.24,57.75v-3.64c0.46,0.56,0.53,1.16,0.52,1.65C56.75,56.54,56.58,57.19,56.24,57.75z"/>
	</g>
</g>
<g class="st0">
	<defs>
		<path id="SVGID_00000127025107359304095340000005552557073272257422_" d="M94.41,48.02c0,24.93-20.28,45.2-45.23,45.2
			c-25,0-45.23-20.28-45.23-45.2C3.96,23,24.18,2.77,49.18,2.77C74.13,2.77,94.41,23,94.41,48.02z"/>
	</defs>
	<clipPath id="SVGID_00000124868455626607000160000010419042018031587972_" class="st2">
		<use xlink:href="#SVGID_00000127025107359304095340000005552557073272257422_"  style="overflow:visible;"/>
	</clipPath>
	
		<linearGradient id="SVGID_00000107568268520289033830000009891813266334374833_" gradientUnits="userSpaceOnUse" x1="3.9567" y1="47.9959" x2="94.4132" y2="47.9959">
		<stop  offset="0" style="stop-color:#B47A1A"/>
		<stop  offset="0.0528" style="stop-color:#B9811E"/>
		<stop  offset="0.1288" style="stop-color:#C69429"/>
		<stop  offset="0.2187" style="stop-color:#DCB33C"/>
		<stop  offset="0.3185" style="stop-color:#FADE56"/>
		<stop  offset="0.3333" style="stop-color:#FFE55A"/>
		<stop  offset="0.5161" style="stop-color:#FFEC88"/>
		<stop  offset="0.6613" style="stop-color:#FFE55A"/>
		<stop  offset="1" style="stop-color:#B47A1A"/>
	</linearGradient>
	
		<path style="display:inline;clip-path:url(#SVGID_00000124868455626607000160000010419042018031587972_);fill-rule:evenodd;clip-rule:evenodd;fill:url(#SVGID_00000107568268520289033830000009891813266334374833_);" d="
		M94.41,48.02c0,24.93-20.28,45.2-45.23,45.2c-25,0-45.23-20.28-45.23-45.2C3.96,23,24.18,2.77,49.18,2.77
		C74.13,2.77,94.41,23,94.41,48.02z"/>
	<g style="display:inline;clip-path:url(#SVGID_00000124868455626607000160000010419042018031587972_);">
		<path class="st3" d="M63.46,18.65c-1.82,1.8-1.83,4.74-0.03,6.55c0.44,0.44,0.94,0.77,1.48,1l-0.12,23.74l4.38,4.42l-0.1,20.61
			l3.1,0.02l0.11-21.89l-4.38-4.42L68,26.39c0.72-0.2,1.4-0.59,1.98-1.16c1.82-1.8,1.83-4.74,0.03-6.55
			C68.21,16.87,65.27,16.85,63.46,18.65z M67.79,23.03c-0.6,0.59-1.57,0.59-2.16-0.01c-0.59-0.6-0.59-1.57,0.01-2.16
			c0.6-0.59,1.57-0.59,2.16,0.01C68.4,21.47,68.39,22.44,67.79,23.03z"/>
		<path class="st3" d="M34.3,41.24c-1.82,1.8-1.83,4.74-0.03,6.55c0.53,0.53,1.15,0.91,1.82,1.13l-0.13,25.89l3.1,0.02l0.13-25.96
			c0.59-0.22,1.15-0.56,1.63-1.04c1.82-1.8,1.83-4.74,0.03-6.55C39.06,39.46,36.12,39.44,34.3,41.24z M38.64,45.62
			c-0.6,0.59-1.57,0.59-2.16-0.01s-0.59-1.57,0.01-2.16c0.6-0.59,1.57-0.59,2.16,0.01C39.24,44.05,39.24,45.03,38.64,45.62z"/>
		<path class="st3" d="M58.32,57.38c-1.82,1.8-1.83,4.74-0.03,6.55c0.53,0.53,1.15,0.91,1.82,1.13l-0.05,9.86l3.1,0.02l0.05-9.94
			c0.59-0.22,1.15-0.56,1.63-1.04c1.82-1.8,1.83-4.74,0.03-6.55C63.07,55.6,60.13,55.59,58.32,57.38z M62.65,61.76
			c-0.6,0.59-1.57,0.59-2.16-0.01s-0.59-1.57,0.01-2.16C61.1,59,62.07,59,62.66,59.6C63.26,60.2,63.25,61.17,62.65,61.76z"/>
		<path class="st3" d="M50.15,31.83c-0.03,0.03-0.07,0.07-0.1,0.1c-1.72,1.8-1.7,4.67,0.06,6.45c0.59,0.6,1.31,1,2.07,1.21
			l-0.08,14.84l-4.76,4.71l-0.08,15.73l3.1,0.02l0.07-14.44l4.76-4.71l0.08-16.38c0.5-0.22,0.97-0.53,1.38-0.93
			c0.06-0.05,0.11-0.11,0.17-0.17l0,0c1.59-1.75,1.61-4.43,0.03-6.2l-0.07-0.07c-0.03-0.04-0.06-0.07-0.09-0.1
			C54.9,30.05,51.96,30.03,50.15,31.83z M54.48,36.21c-0.6,0.59-1.57,0.59-2.16-0.01c-0.59-0.6-0.59-1.57,0.01-2.16
			s1.57-0.59,2.16,0.01C55.09,34.64,55.08,35.62,54.48,36.21z"/>
		<path class="st3" d="M22.8,25.24c-1.82,1.8-1.83,4.74-0.03,6.55l0,0c0.44,0.44,0.94,0.77,1.48,1l-0.08,16.4l3.58,3.62l-0.05,11.01
			l-3.35,3.31l-0.04,7.61l3.1,0.01l0.03-6.33l3.34-3.31l0.07-13.58l-3.58-3.62l0.08-14.95c0.72-0.21,1.39-0.59,1.96-1.15l0,0
			c1.82-1.8,1.83-4.73,0.03-6.55C27.55,23.46,24.61,23.44,22.8,25.24z M27.13,29.62c-0.6,0.6-1.57,0.59-2.16-0.01
			c-0.59-0.6-0.59-1.57,0.01-2.16c0.6-0.59,1.57-0.58,2.16,0.01C27.73,28.06,27.73,29.02,27.13,29.62z"/>
	</g>
</g>
<g>
	<path class="st10" d="M67.98,22.95c-0.83-0.38-1.26-1.28-1.13-2.17l-0.17-0.08c-0.6,0.68-1.56,0.93-2.39,0.54
		c-0.83-0.38-1.26-1.28-1.13-2.17l-0.15-0.07c-0.6,0.68-1.56,0.93-2.39,0.54c-0.83-0.38-1.26-1.28-1.13-2.17l-0.17-0.08
		c-0.6,0.68-1.56,0.93-2.39,0.54c-0.83-0.38-1.26-1.28-1.13-2.17l-1.46-0.68c-1.41,3.04-4.9,4.42-7.79,3.08L23.06,68.9
		c2.9,1.34,4.1,4.89,2.7,7.93l1.47,0.68c0.6-0.68,1.56-0.93,2.39-0.54c0.83,0.38,1.26,1.28,1.13,2.17l0.17,0.08
		c0.6-0.68,1.56-0.93,2.39-0.54c0.83,0.38,1.26,1.28,1.13,2.17l0.15,0.07c0.6-0.68,1.56-0.93,2.39-0.54
		c0.83,0.38,1.26,1.28,1.13,2.17l0.17,0.08c0.6-0.68,1.56-0.93,2.39-0.54c0.83,0.38,1.26,1.28,1.13,2.17l1.63,0.75
		c1.41-3.04,4.9-4.42,7.79-3.08L74.7,31.1c-2.9-1.34-4.1-4.89-2.7-7.93l-1.64-0.76C69.77,23.09,68.8,23.34,67.98,22.95z"/>
	<path class="st3" d="M45.84,24.07L26.07,66.8c-0.69,1.49-0.04,3.26,1.45,3.95l19.18,8.88c1.49,0.69,3.26,0.04,3.95-1.45
		l19.78-42.74c0.69-1.49,0.04-3.26-1.45-3.95L49.8,22.61C48.31,21.92,46.53,22.58,45.84,24.07z M44.03,30.69l22.52,10.42
		L52.47,71.55L29.95,61.13L44.03,30.69z M47.18,78.6L28,69.72c-0.92-0.43-1.32-1.52-0.9-2.44l2.37-5.12l22.52,10.42l-2.37,5.12
		C49.19,78.62,48.1,79.02,47.18,78.6z M68.5,32.52c0.92,0.43,1.32,1.52,0.9,2.44l-2.37,5.12L44.51,29.66l2.37-5.12
		c0.43-0.92,1.52-1.32,2.44-0.9L68.5,32.52z"/>
</g>
</svg>
