<?xml version="1.0" encoding="UTF-8" standalone="no"?>
<svg width="50px" height="41px" viewBox="0 0 50 41" version="1.1" xmlns="http://www.w3.org/2000/svg" xmlns:xlink="http://www.w3.org/1999/xlink">
    <!-- Generator: Sketch 39.1 (31720) - http://www.bohemiancoding.com/sketch -->
    <title>twitter</title>
    <desc>Created with Sketch.</desc>
    <defs></defs>
    <g id="Page-1" stroke="none" stroke-width="1" fill="none" fill-rule="evenodd">
        <g id="twitter" fill="#FFFFFF">
            <path d="M50.082,5.5495 C48.2705,6.3542 46.3223,6.8972 44.2769,7.1408 C46.3643,5.8908 47.9663,3.9103 48.7212,1.549 C46.7681,2.7077 44.606,3.549 42.3032,4.0026 C40.46,2.0383 37.833,0.8107 34.9263,0.8107 C29.3447,0.8107 24.8194,5.3361 24.8194,10.9177 C24.8194,11.7097 24.9087,12.4807 25.0811,13.2204 C16.6812,12.7995 9.2334,8.7761 4.2486,2.6608 C3.3789,4.153 2.8804,5.8889 2.8804,7.7419 C2.8804,11.2482 4.6646,14.3415 7.3765,16.1545 C5.7202,16.1013 4.1611,15.6472 2.7988,14.8898 C2.7979,14.9318 2.7979,14.9743 2.7979,15.0178 C2.7979,19.9138 6.2818,23.9987 10.9058,24.9279 C10.0576,25.1584 9.1646,25.2824 8.2427,25.2824 C7.5908,25.2824 6.958,25.2194 6.3408,25.1008 C7.6275,29.1159 11.3599,32.0383 15.7818,32.1198 C12.3228,34.8308 7.9653,36.4465 3.2295,36.4465 C2.4141,36.4465 1.6099,36.3981 0.8189,36.3054 C5.2925,39.1735 10.6045,40.8464 16.312,40.8464 C34.9028,40.8464 45.0679,25.4455 45.0679,12.0895 C45.0679,11.652 45.0591,11.215 45.0396,10.7819 C47.0137,9.3571 48.728,7.5769 50.082,5.5495 L50.082,5.5495 Z" id="Shape"></path>
        </g>
    </g>
</svg>