<?xml version="1.0" encoding="UTF-8" standalone="no"?>
<svg width="50px" height="49px" viewBox="0 0 50 49" version="1.1" xmlns="http://www.w3.org/2000/svg" xmlns:xlink="http://www.w3.org/1999/xlink">
    <!-- Generator: Sketch 39.1 (31720) - http://www.bohemiancoding.com/sketch -->
    <title>youtube</title>
    <desc>Created with Sketch.</desc>
    <defs></defs>
    <g id="Page-1" stroke="none" stroke-width="1" fill="none" fill-rule="evenodd">
        <g id="youtube" fill="#FFFFFF">
            <g id="Group">
                <path d="M40.911,23.21 L9.782,23.21 C4.834,23.21 0.823,27.225 0.823,32.172 L0.823,39.373 C0.823,44.32 4.834,48.334 9.782,48.334 L40.911,48.334 C45.858,48.334 49.87,44.32 49.87,39.373 L49.87,32.172 C49.87,27.225 45.858,23.21 40.911,23.21 L40.911,23.21 Z M16.322,28.816 L13.428,28.816 L13.428,43.196 L10.632,43.196 L10.632,28.816 L7.74,28.816 L7.74,26.37 L16.322,26.37 L16.322,28.816 L16.322,28.816 Z M24.497,43.196 L22.017,43.196 L22.017,41.836 C21.556,42.339 21.081,42.723 20.585,42.982 C20.089,43.252 19.61,43.378 19.144,43.378 C18.568,43.378 18.14,43.195 17.847,42.823 C17.559,42.452 17.412,41.902 17.412,41.159 L17.412,30.782 L19.892,30.782 L19.892,40.305 C19.892,40.599 19.947,40.81 20.046,40.941 C20.153,41.076 20.323,41.138 20.556,41.138 C20.736,41.138 20.968,41.052 21.247,40.878 C21.528,40.702 21.784,40.482 22.017,40.21 L22.017,30.781 L24.497,30.781 L24.497,43.196 L24.497,43.196 Z M33.501,40.633 C33.501,41.51 33.306,42.184 32.917,42.654 C32.53,43.124 31.964,43.355 31.231,43.355 C30.743,43.355 30.309,43.267 29.932,43.085 C29.553,42.905 29.196,42.628 28.871,42.244 L28.871,43.195 L26.361,43.195 L26.361,26.37 L28.871,26.37 L28.871,31.789 C29.207,31.414 29.562,31.123 29.933,30.928 C30.312,30.729 30.693,30.633 31.079,30.633 C31.864,30.633 32.462,30.895 32.876,31.424 C33.292,31.953 33.499,32.728 33.499,33.744 L33.499,40.633 L33.501,40.633 Z M42.104,37.288 L37.358,37.288 L37.358,39.627 C37.358,40.279 37.438,40.733 37.6,40.986 C37.766,41.24 38.045,41.364 38.442,41.364 C38.854,41.364 39.139,41.257 39.305,41.043 C39.465,40.827 39.551,40.357 39.551,39.627 L39.551,39.062 L42.104,39.062 L42.104,39.699 C42.104,40.971 41.795,41.93 41.168,42.577 C40.551,43.218 39.621,43.536 38.385,43.536 C37.272,43.536 36.395,43.197 35.758,42.515 C35.123,41.837 34.799,40.896 34.799,39.7 L34.799,34.124 C34.799,33.051 35.153,32.168 35.856,31.491 C36.557,30.814 37.46,30.476 38.571,30.476 C39.708,30.476 40.581,30.789 41.19,31.417 C41.799,32.046 42.104,32.946 42.104,34.123 L42.104,37.288 L42.104,37.288 Z" id="Shape"></path>
                <path d="M38.466,32.646 C38.07,32.646 37.788,32.757 37.616,32.989 C37.44,33.207 37.358,33.58 37.358,34.101 L37.358,35.356 L39.551,35.356 L39.551,34.101 C39.551,33.58 39.463,33.206 39.289,32.989 C39.122,32.758 38.843,32.646 38.466,32.646 L38.466,32.646 Z" id="Shape"></path>
                <path d="M29.909,32.604 C29.733,32.604 29.555,32.643 29.384,32.724 C29.21,32.803 29.04,32.934 28.872,33.104 L28.872,40.837 C29.071,41.037 29.268,41.191 29.46,41.279 C29.651,41.364 29.849,41.412 30.06,41.412 C30.365,41.412 30.587,41.324 30.73,41.146 C30.871,40.97 30.943,40.689 30.943,40.292 L30.943,33.881 C30.943,33.459 30.859,33.143 30.683,32.926 C30.501,32.712 30.243,32.604 29.909,32.604 L29.909,32.604 Z" id="Shape"></path>
                <polygon id="Shape" points="13.858 18.898 17.002 18.898 17.002 11.208 20.663 0.36 17.467 0.36 15.521 7.77 15.323 7.77 13.28 0.36 10.113 0.36 13.858 11.554"></polygon>
                <path d="M24.923,19.243 C26.193,19.243 27.189,18.91 27.915,18.244 C28.636,17.575 28.997,16.662 28.997,15.492 L28.997,8.428 C28.997,7.387 28.628,6.53 27.893,5.869 C27.153,5.21 26.205,4.878 25.049,4.878 C23.779,4.878 22.768,5.192 22.016,5.819 C21.266,6.446 20.889,7.287 20.889,8.35 L20.889,15.438 C20.889,16.601 21.256,17.521 21.989,18.211 C22.722,18.898 23.702,19.243 24.923,19.243 L24.923,19.243 Z M23.765,8.246 C23.765,7.949 23.872,7.709 24.081,7.521 C24.298,7.337 24.573,7.248 24.915,7.248 C25.284,7.248 25.583,7.337 25.811,7.521 C26.038,7.709 26.151,7.949 26.151,8.246 L26.151,15.697 C26.151,16.062 26.04,16.352 25.815,16.561 C25.592,16.771 25.292,16.874 24.915,16.874 C24.546,16.874 24.261,16.774 24.061,16.564 C23.864,16.359 23.764,16.071 23.764,15.696 L23.764,8.246 L23.765,8.246 Z" id="Shape"></path>
                <path d="M33.214,19.098 C33.739,19.098 34.278,18.948 34.833,18.66 C35.394,18.368 35.931,17.941 36.442,17.384 L36.442,18.899 L39.235,18.899 L39.235,5.224 L36.442,5.224 L36.442,15.604 C36.182,15.901 35.893,16.145 35.583,16.339 C35.267,16.531 35.007,16.627 34.802,16.627 C34.54,16.627 34.347,16.555 34.234,16.406 C34.119,16.263 34.054,16.029 34.054,15.708 L34.054,5.224 L31.265,5.224 L31.265,16.653 C31.265,17.468 31.429,18.077 31.753,18.481 C32.083,18.891 32.565,19.098 33.214,19.098 L33.214,19.098 Z" id="Shape"></path>
            </g>
        </g>
    </g>
</svg>